TwilioSansMono-ExtraBoldItalic.ufo
<glyph name="exclam" format="2">
	<unicode hex="0021"/>
	<advance width="600"/>
	<outline>
		<contour>
			<point x="237" y="241" type="line"/>
			<point x="357" y="241" type="line"/>
			<point x="433" y="565" type="line"/>
			<point x="451" y="684" type="line"/>
			<point x="268" y="684" type="line"/>
			<point x="251" y="565" type="line"/>
		</contour>
		<contour>
			<point x="268" y="-12" type="curve" smooth="yes"/>
			<point x="335" y="-12"/>
			<point x="368" y="13"/>
			<point x="377" y="72" type="curve" smooth="yes"/>
			<point x="388" y="144"/>
			<point x="351" y="173"/>
			<point x="281" y="173" type="curve" smooth="yes"/>
			<point x="215" y="173"/>
			<point x="181" y="148"/>
			<point x="173" y="90" type="curve" smooth="yes"/>
			<point x="162" y="17"/>
			<point x="199" y="-12"/>
		</contour>
	</outline>
</glyph>
<glyph name="numbersign" format="2">
	<unicode hex="0023"/>
	<advance width="600"/>
	<outline>
		<contour>
			<point x="20" y="276" type="line"/>
			<point x="2" y="153" type="line"/>
			<point x="90" y="153" type="line"/>
			<point x="54" y="0" type="line"/>
			<point x="180" y="0" type="line"/>
			<point x="216" y="153" type="line"/>
			<point x="318" y="153" type="line"/>
			<point x="282" y="0" type="line"/>
			<point x="407" y="0" type="line"/>
			<point x="443" y="153" type="line"/>
			<point x="543" y="153" type="line"/>
			<point x="560" y="276" type="line"/>
			<point x="472" y="276" type="line"/>
			<point x="505" y="414" type="line"/>
			<point x="604" y="414" type="line"/>
			<point x="620" y="537" type="line"/>
			<point x="534" y="537" type="line"/>
			<point x="569" y="684" type="line"/>
			<point x="443" y="684" type="line"/>
			<point x="408" y="537" type="line"/>
			<point x="306" y="537" type="line"/>
			<point x="341" y="684" type="line"/>
			<point x="216" y="684" type="line"/>
			<point x="181" y="537" type="line"/>
			<point x="80" y="537" type="line"/>
			<point x="64" y="414" type="line"/>
			<point x="152" y="414" type="line"/>
			<point x="119" y="276" type="line"/>
		</contour>
		<contour>
			<point x="245" y="276" type="line"/>
			<point x="277" y="414" type="line"/>
			<point x="379" y="414" type="line"/>
			<point x="347" y="276" type="line"/>
		</contour>
	</outline>
</glyph>
<glyph name="percent" format="2">
	<unicode hex="0025"/>
	<advance width="600"/>
	<outline>
		<contour>
			<point x="187" y="338" type="curve" smooth="yes"/>
			<point x="277" y="338"/>
			<point x="338" y="395"/>
			<point x="353" y="511" type="curve" smooth="yes"/>
			<point x="368" y="619"/>
			<point x="326" y="696"/>
			<point x="221" y="696" type="curve" smooth="yes"/>
			<point x="128" y="696"/>
			<point x="68" y="635"/>
			<point x="54" y="523" type="curve" smooth="yes"/>
			<point x="38" y="406"/>
			<point x="88" y="338"/>
		</contour>
		<contour>
			<point x="389" y="410" type="line"/>
			<point x="513" y="410" type="line"/>
			<point x="642" y="684" type="line"/>
			<point x="493" y="684" type="line"/>
		</contour>
		<contour>
			<point x="191" y="419" type="curve" smooth="yes"/>
			<point x="157" y="419"/>
			<point x="152" y="450"/>
			<point x="161" y="518" type="curve" smooth="yes"/>
			<point x="171" y="590"/>
			<point x="184" y="615"/>
			<point x="215" y="615" type="curve" smooth="yes"/>
			<point x="251" y="615"/>
			<point x="254" y="581"/>
			<point x="245" y="515" type="curve" smooth="yes"/>
			<point x="235" y="445"/>
			<point x="224" y="419"/>
		</contour>
		<contour>
			<point x="402" y="-12" type="curve" smooth="yes"/>
			<point x="493" y="-12"/>
			<point x="554" y="45"/>
			<point x="569" y="161" type="curve" smooth="yes"/>
			<point x="584" y="269"/>
			<point x="542" y="346"/>
			<point x="436" y="346" type="curve" smooth="yes"/>
			<point x="343" y="346"/>
			<point x="284" y="285"/>
			<point x="270" y="173" type="curve" smooth="yes"/>
			<point x="254" y="56"/>
			<point x="304" y="-12"/>
		</contour>
		<contour>
			<point x="-18" y="0" type="line"/>
			<point x="131" y="0" type="line"/>
			<point x="236" y="275" type="line"/>
			<point x="111" y="275" type="line"/>
		</contour>
		<contour>
			<point x="406" y="69" type="curve" smooth="yes"/>
			<point x="372" y="69"/>
			<point x="368" y="100"/>
			<point x="377" y="168" type="curve" smooth="yes"/>
			<point x="387" y="240"/>
			<point x="399" y="265"/>
			<point x="431" y="265" type="curve" smooth="yes"/>
			<point x="467" y="265"/>
			<point x="470" y="231"/>
			<point x="461" y="165" type="curve" smooth="yes"/>
			<point x="451" y="95"/>
			<point x="439" y="69"/>
		</contour>
	</outline>
</glyph>
<glyph name="asterisk" format="2">
	<unicode hex="002A"/>
	<advance width="600"/>
	<outline>
		<contour>
			<point x="458" y="129" type="line"/>
			<point x="556" y="265" type="line"/>
			<point x="382" y="321" type="line"/>
			<point x="573" y="377" type="line"/>
			<point x="513" y="514" type="line"/>
			<point x="355" y="385" type="line"/>
			<point x="423" y="570" type="line"/>
			<point x="266" y="570" type="line"/>
			<point x="283" y="383" type="line"/>
			<point x="160" y="514" type="line"/>
			<point x="62" y="378" type="line"/>
			<point x="237" y="321" type="line"/>
			<point x="46" y="266" type="line"/>
			<point x="106" y="129" type="line"/>
			<point x="266" y="260" type="line"/>
			<point x="196" y="72" type="line"/>
			<point x="353" y="72" type="line"/>
			<point x="337" y="258" type="line"/>
		</contour>
	</outline>
</glyph>
<glyph name="hyphen" format="2">
	<unicode hex="002D"/>
	<advance width="600"/>
	<outline>
		<contour>
			<point x="497" y="367" type="line"/>
			<point x="132" y="367" type="line"/>
			<point x="112" y="219" type="line"/>
			<point x="476" y="219" type="line"/>
		</contour>
	</outline>
</glyph>
<glyph name="period" format="2">
	<unicode hex="002E"/>
	<advance width="600"/>
	<outline>
		<contour>
			<point x="268" y="-12" type="curve" smooth="yes"/>
			<point x="341" y="-12"/>
			<point x="378" y="16"/>
			<point x="388" y="83" type="curve" smooth="yes"/>
			<point x="399" y="159"/>
			<point x="362" y="191"/>
			<point x="286" y="191" type="curve" smooth="yes"/>
			<point x="212" y="191"/>
			<point x="174" y="163"/>
			<point x="165" y="96" type="curve" smooth="yes"/>
			<point x="153" y="20"/>
			<point x="190" y="-12"/>
		</contour>
	</outline>
</glyph>
<glyph name="one" format="2">
	<unicode hex="0031"/>
	<advance width="600"/>
	<outline>
		<contour>
			<point x="12" y="0" type="line"/>
			<point x="535" y="0" type="line"/>
			<point x="555" y="148" type="line"/>
			<point x="390" y="148" type="line"/>
			<point x="465" y="684" type="line"/>
			<point x="295" y="684" type="line"/>
			<point x="96" y="540" type="line"/>
			<point x="73" y="375" type="line"/>
			<point x="272" y="515" type="line"/>
			<point x="221" y="148" type="line"/>
			<point x="33" y="148" type="line"/>
		</contour>
	</outline>
</glyph>
<glyph name="three" format="2">
	<unicode hex="0033"/>
	<advance width="600"/>
	<outline>
		<contour>
			<point x="249" y="-13" type="curve" smooth="yes"/>
			<point x="424" y="-13"/>
			<point x="537" y="79"/>
			<point x="537" y="249" type="curve" smooth="yes"/>
			<point x="537" y="337"/>
			<point x="495" y="395"/>
			<point x="396" y="415" type="curve"/>
			<point x="567" y="545" type="line"/>
			<point x="587" y="684" type="line"/>
			<point x="117" y="684" type="line"/>
			<point x="98" y="548" type="line"/>
			<point x="358" y="548" type="line"/>
			<point x="164" y="386" type="line"/>
			<point x="149" y="288" type="line"/>
			<point x="178" y="296"/>
			<point x="215" y="301"/>
			<point x="252" y="301" type="curve" smooth="yes"/>
			<point x="336" y="301"/>
			<point x="367" y="275"/>
			<point x="367" y="224" type="curve" smooth="yes"/>
			<point x="367" y="163"/>
			<point x="319" y="125"/>
			<point x="239" y="125" type="curve" smooth="yes"/>
			<point x="180" y="125"/>
			<point x="111" y="145"/>
			<point x="45" y="193" type="curve"/>
			<point x="25" y="53" type="line"/>
			<point x="84" y="12"/>
			<point x="157" y="-13"/>
		</contour>
	</outline>
</glyph>
<glyph name="four" format="2">
	<unicode hex="0034"/>
	<advance width="600"/>
	<outline>
		<contour>
			<point x="295" y="0" type="line"/>
			<point x="462" y="0" type="line"/>
			<point x="480" y="132" type="line"/>
			<point x="542" y="132" type="line"/>
			<point x="560" y="266" type="line"/>
			<point x="499" y="266" type="line"/>
			<point x="558" y="686" type="line"/>
			<point x="296" y="686" type="line"/>
			<point x="27" y="268" type="line"/>
			<point x="8" y="133" type="line"/>
			<point x="313" y="133" type="line"/>
		</contour>
		<contour>
			<point x="184" y="266" type="line"/>
			<point x="375" y="566" type="line"/>
			<point x="333" y="266" type="line"/>
		</contour>
	</outline>
</glyph>
<glyph name="five" format="2">
	<unicode hex="0035"/>
	<advance width="600"/>
	<outline>
		<contour>
			<point x="254" y="-13" type="curve" smooth="yes"/>
			<point x="433" y="-13"/>
			<point x="537" y="88"/>
			<point x="537" y="250" type="curve" smooth="yes"/>
			<point x="536" y="375"/>
			<point x="471" y="432"/>
			<point x="320" y="432" type="curve" smooth="yes"/>
			<point x="298" y="432"/>
			<point x="279" y="431"/>
			<point x="262" y="428" type="curve"/>
			<point x="279" y="548" type="line"/>
			<point x="567" y="548" type="line"/>
			<point x="586" y="684" type="line"/>
			<point x="143" y="684" type="line"/>
			<point x="87" y="284" type="line"/>
			<point x="133" y="296"/>
			<point x="192" y="306"/>
			<point x="246" y="306" type="curve" smooth="yes"/>
			<point x="331" y="306"/>
			<point x="363" y="283"/>
			<point x="364" y="228" type="curve" smooth="yes"/>
			<point x="364" y="165"/>
			<point x="326" y="126"/>
			<point x="248" y="126" type="curve" smooth="yes"/>
			<point x="192" y="126"/>
			<point x="115" y="146"/>
			<point x="49" y="192" type="curve"/>
			<point x="29" y="53" type="line"/>
			<point x="67" y="22"/>
			<point x="149" y="-13"/>
		</contour>
	</outline>
</glyph>
<glyph name="eight" format="2">
	<unicode hex="0038"/>
	<advance width="600"/>
	<outline>
		<contour>
			<point x="279" y="-14" type="curve" smooth="yes"/>
			<point x="466" y="-14"/>
			<point x="555" y="74"/>
			<point x="555" y="199" type="curve" smooth="yes"/>
			<point x="555" y="278"/>
			<point x="514" y="323"/>
			<point x="432" y="344" type="curve"/>
			<point x="519" y="361"/>
			<point x="590" y="423"/>
			<point x="590" y="528" type="curve" smooth="yes"/>
			<point x="590" y="637"/>
			<point x="502" y="698"/>
			<point x="345" y="698" type="curve" smooth="yes"/>
			<point x="185" y="698"/>
			<point x="83" y="629"/>
			<point x="83" y="495" type="curve" smooth="yes"/>
			<point x="83" y="421"/>
			<point x="122" y="371"/>
			<point x="189" y="353" type="curve"/>
			<point x="91" y="337"/>
			<point x="23" y="274"/>
			<point x="23" y="165" type="curve" smooth="yes"/>
			<point x="23" y="39"/>
			<point x="128" y="-14"/>
		</contour>
		<contour>
			<point x="329" y="402" type="curve" smooth="yes"/>
			<point x="272" y="402"/>
			<point x="241" y="429"/>
			<point x="241" y="478" type="curve" smooth="yes"/>
			<point x="241" y="539"/>
			<point x="274" y="572"/>
			<point x="336" y="572" type="curve" smooth="yes"/>
			<point x="393" y="572"/>
			<point x="425" y="548"/>
			<point x="425" y="497" type="curve" smooth="yes"/>
			<point x="425" y="437"/>
			<point x="391" y="402"/>
		</contour>
		<contour>
			<point x="286" y="114" type="curve" smooth="yes"/>
			<point x="227" y="114"/>
			<point x="192" y="140"/>
			<point x="192" y="195" type="curve" smooth="yes"/>
			<point x="192" y="259"/>
			<point x="228" y="293"/>
			<point x="293" y="293" type="curve" smooth="yes"/>
			<point x="356" y="293"/>
			<point x="387" y="267"/>
			<point x="387" y="216" type="curve" smooth="yes"/>
			<point x="387" y="151"/>
			<point x="350" y="114"/>
		</contour>
	</outline>
</glyph>
<glyph name="nine" format="2">
	<unicode hex="0039"/>
	<advance width="600"/>
	<outline>
		<contour>
			<point x="239" y="-13" type="curve" smooth="yes"/>
			<point x="457" y="-13"/>
			<point x="543" y="113"/>
			<point x="574" y="330" type="curve" smooth="yes"/>
			<point x="576" y="344" type="line" smooth="yes"/>
			<point x="609" y="572"/>
			<point x="554" y="698"/>
			<point x="339" y="698" type="curve" smooth="yes"/>
			<point x="164" y="698"/>
			<point x="63" y="589"/>
			<point x="63" y="411" type="curve" smooth="yes"/>
			<point x="63" y="294"/>
			<point x="124" y="228"/>
			<point x="229" y="228" type="curve" smooth="yes"/>
			<point x="298" y="228"/>
			<point x="352" y="263"/>
			<point x="395" y="327" type="curve"/>
			<point x="371" y="182"/>
			<point x="329" y="126"/>
			<point x="225" y="126" type="curve" smooth="yes"/>
			<point x="154" y="126"/>
			<point x="90" y="152"/>
			<point x="46" y="187" type="curve"/>
			<point x="27" y="47" type="line"/>
			<point x="68" y="14"/>
			<point x="149" y="-13"/>
		</contour>
		<contour>
			<point x="314" y="346" type="curve" smooth="yes"/>
			<point x="263" y="346"/>
			<point x="231" y="373"/>
			<point x="231" y="434" type="curve" smooth="yes"/>
			<point x="231" y="517"/>
			<point x="266" y="567"/>
			<point x="328" y="567" type="curve" smooth="yes"/>
			<point x="381" y="567"/>
			<point x="412" y="537"/>
			<point x="412" y="476" type="curve" smooth="yes"/>
			<point x="412" y="393"/>
			<point x="374" y="346"/>
		</contour>
	</outline>
</glyph>
<glyph name="at" format="2">
	<unicode hex="0040"/>
	<advance width="600"/>
	<outline>
		<contour>
			<point x="329" y="-135" type="curve" smooth="yes"/>
			<point x="415" y="-135"/>
			<point x="474" y="-115"/>
			<point x="507" y="-100" type="curve"/>
			<point x="521" y="15" type="line"/>
			<point x="476" y="-7"/>
			<point x="414" y="-21"/>
			<point x="342" y="-21" type="curve" smooth="yes"/>
			<point x="182" y="-21"/>
			<point x="123" y="82"/>
			<point x="152" y="291" type="curve" smooth="yes"/>
			<point x="153" y="298" type="line" smooth="yes"/>
			<point x="181" y="492"/>
			<point x="235" y="584"/>
			<point x="353" y="584" type="curve" smooth="yes"/>
			<point x="442" y="584"/>
			<point x="470" y="538"/>
			<point x="459" y="448" type="curve" smooth="yes"/>
			<point x="453" y="398" type="line"/>
			<point x="436" y="458"/>
			<point x="404" y="492"/>
			<point x="349" y="492" type="curve" smooth="yes"/>
			<point x="274" y="492"/>
			<point x="216" y="419"/>
			<point x="198" y="294" type="curve" smooth="yes"/>
			<point x="178" y="145"/>
			<point x="213" y="61"/>
			<point x="298" y="61" type="curve" smooth="yes"/>
			<point x="351" y="61"/>
			<point x="391" y="97"/>
			<point x="419" y="156" type="curve"/>
			<point x="406" y="67" type="line"/>
			<point x="530" y="67" type="line"/>
			<point x="584" y="448" type="line" smooth="yes"/>
			<point x="608" y="613"/>
			<point x="535" y="698"/>
			<point x="366" y="698" type="curve" smooth="yes"/>
			<point x="170" y="698"/>
			<point x="68" y="565"/>
			<point x="32" y="312" type="curve" smooth="yes"/>
			<point x="30" y="298" type="line" smooth="yes"/>
			<point x="-13" y="-7"/>
			<point x="111" y="-135"/>
		</contour>
		<contour>
			<point x="369" y="165" type="curve" smooth="yes"/>
			<point x="331" y="165"/>
			<point x="312" y="200"/>
			<point x="323" y="282" type="curve" smooth="yes"/>
			<point x="334" y="354"/>
			<point x="356" y="388"/>
			<point x="392" y="388" type="curve" smooth="yes"/>
			<point x="429" y="388"/>
			<point x="451" y="356"/>
			<point x="439" y="272" type="curve" smooth="yes"/>
			<point x="429" y="199"/>
			<point x="405" y="165"/>
		</contour>
	</outline>
</glyph>
<glyph name="A" format="2">
	<unicode hex="0041"/>
	<advance width="600"/>
	<outline>
		<contour>
			<point x="-31" y="0" type="line"/>
			<point x="145" y="0" type="line"/>
			<point x="191" y="130" type="line"/>
			<point x="375" y="130" type="line"/>
			<point x="385" y="0" type="line"/>
			<point x="557" y="0" type="line"/>
			<point x="481" y="685" type="line"/>
			<point x="238" y="685" type="line"/>
		</contour>
		<contour>
			<point x="239" y="264" type="line"/>
			<point x="343" y="560" type="line"/>
			<point x="365" y="264" type="line"/>
		</contour>
	</outline>
	<anchor name="ogonek" x="557" y="0"/>
	<anchor name="bottom" x="311" y="0"/>
	<anchor name="top" x="359" y="684"/>
</glyph>
<glyph name="B" format="2">
	<unicode hex="0042"/>
	<advance width="600"/>
	<outline>
		<contour>
			<point x="395" y="686" type="curve" smooth="yes"/>
			<point x="113" y="686" type="line"/>
			<point x="17" y="0" type="line"/>
			<point x="329" y="0" type="line" smooth="yes"/>
			<point x="473" y="0"/>
			<point x="565" y="81"/>
			<point x="565" y="208" type="curve" smooth="yes"/>
			<point x="565" y="290"/>
			<point x="517" y="334"/>
			<point x="416" y="352" type="curve"/>
			<point x="531" y="365"/>
			<point x="600" y="427"/>
			<point x="600" y="527" type="curve" smooth="yes"/>
			<point x="600" y="620"/>
			<point x="541" y="686"/>
		</contour>
		<contour>
			<point x="346" y="560" type="line" smooth="yes"/>
			<point x="401" y="560"/>
			<point x="425" y="535"/>
			<point x="425" y="492" type="curve" smooth="yes"/>
			<point x="425" y="438"/>
			<point x="389" y="407"/>
			<point x="331" y="407" type="curve" smooth="yes"/>
			<point x="241" y="407" type="line"/>
			<point x="264" y="560" type="line"/>
		</contour>
		<contour>
			<point x="310" y="284" type="line" smooth="yes"/>
			<point x="366" y="284"/>
			<point x="389" y="259"/>
			<point x="389" y="215" type="curve" smooth="yes"/>
			<point x="389" y="162"/>
			<point x="356" y="131"/>
			<point x="296" y="131" type="curve" smooth="yes"/>
			<point x="203" y="131" type="line"/>
			<point x="224" y="284" type="line"/>
		</contour>
	</outline>
	<anchor name="top" x="356" y="684"/>
	<anchor name="bottom" x="275" y="0"/>
</glyph>
<glyph name="C" format="2">
	<unicode hex="0043"/>
	<advance width="600"/>
	<outline>
		<contour>
			<point x="376" y="-12" type="curve" smooth="yes"/>
			<point x="433" y="-12"/>
			<point x="480" y="-2"/>
			<point x="515" y="11" type="curve"/>
			<point x="535" y="151" type="line"/>
			<point x="493" y="136"/>
			<point x="454" y="129"/>
			<point x="409" y="129" type="curve" smooth="yes"/>
			<point x="263" y="129"/>
			<point x="212" y="229"/>
			<point x="232" y="369" type="curve" smooth="yes"/>
			<point x="233" y="376" type="line" smooth="yes"/>
			<point x="252" y="501"/>
			<point x="322" y="555"/>
			<point x="436" y="555" type="curve" smooth="yes"/>
			<point x="489" y="555"/>
			<point x="541" y="544"/>
			<point x="586" y="519" type="curve"/>
			<point x="606" y="656" type="line"/>
			<point x="568" y="676"/>
			<point x="505" y="695"/>
			<point x="424" y="695" type="curve" smooth="yes"/>
			<point x="211" y="695"/>
			<point x="86" y="572"/>
			<point x="61" y="395" type="curve" smooth="yes"/>
			<point x="59" y="381" type="line" smooth="yes"/>
			<point x="29" y="167"/>
			<point x="118" y="-12"/>
		</contour>
	</outline>
	<anchor name="top" x="431" y="684"/>
	<anchor name="bottom" x="339" y="0"/>
</glyph>
<glyph name="D" format="2">
	<unicode hex="0044"/>
	<advance width="600"/>
	<outline>
		<contour>
			<point x="13" y="0" type="line"/>
			<point x="279" y="0" type="line" smooth="yes"/>
			<point x="469" y="0"/>
			<point x="554" y="108"/>
			<point x="581" y="303" type="curve" smooth="yes"/>
			<point x="583" y="320" type="line" smooth="yes"/>
			<point x="612" y="536"/>
			<point x="543" y="684"/>
			<point x="344" y="684" type="curve" smooth="yes"/>
			<point x="109" y="684" type="line"/>
		</contour>
		<contour>
			<point x="310" y="548" type="line" smooth="yes"/>
			<point x="397" y="548"/>
			<point x="430" y="494"/>
			<point x="412" y="343" type="curve" smooth="yes"/>
			<point x="411" y="333" type="line" smooth="yes"/>
			<point x="395" y="195"/>
			<point x="355" y="137"/>
			<point x="274" y="137" type="curve" smooth="yes"/>
			<point x="201" y="137" type="line"/>
			<point x="259" y="548" type="line"/>
		</contour>
	</outline>
	<anchor name="center" x="169" y="342"/>
	<anchor name="bottom" x="273" y="0"/>
	<anchor name="top" x="333" y="684"/>
</glyph>
<glyph name="G" format="2">
	<unicode hex="0047"/>
	<advance width="600"/>
	<outline>
		<contour>
			<point x="285" y="-14" type="curve" smooth="yes"/>
			<point x="450" y="-14"/>
			<point x="546" y="78"/>
			<point x="574" y="277" type="curve" smooth="yes"/>
			<point x="592" y="406" type="line"/>
			<point x="310" y="406" type="line"/>
			<point x="291" y="273" type="line"/>
			<point x="406" y="273" type="line"/>
			<point x="396" y="176"/>
			<point x="364" y="125"/>
			<point x="293" y="125" type="curve" smooth="yes"/>
			<point x="215" y="125"/>
			<point x="182" y="191"/>
			<point x="205" y="347" type="curve" smooth="yes"/>
			<point x="206" y="354" type="line" smooth="yes"/>
			<point x="225" y="493"/>
			<point x="272" y="561"/>
			<point x="393" y="561" type="curve" smooth="yes"/>
			<point x="456" y="561"/>
			<point x="518" y="540"/>
			<point x="560" y="511" type="curve"/>
			<point x="580" y="648" type="line"/>
			<point x="541" y="674"/>
			<point x="463" y="698"/>
			<point x="381" y="698" type="curve" smooth="yes"/>
			<point x="176" y="698"/>
			<point x="68" y="575"/>
			<point x="40" y="379" type="curve" smooth="yes"/>
			<point x="38" y="365" type="line" smooth="yes"/>
			<point x="4" y="128"/>
			<point x="76" y="-14"/>
		</contour>
	</outline>
	<anchor name="top" x="381" y="684"/>
	<anchor name="bottom" x="278" y="0"/>
</glyph>
<glyph name="J" format="2">
	<unicode hex="004A"/>
	<advance width="600"/>
	<outline>
		<contour>
			<point x="225" y="-12" type="curve" smooth="yes"/>
			<point x="389" y="-12"/>
			<point x="494" y="53"/>
			<point x="517" y="215" type="curve" smooth="yes"/>
			<point x="582" y="684" type="line"/>
			<point x="132" y="684" type="line"/>
			<point x="111" y="539" type="line"/>
			<point x="392" y="539" type="line"/>
			<point x="352" y="258" type="line" smooth="yes"/>
			<point x="338" y="161"/>
			<point x="290" y="128"/>
			<point x="205" y="128" type="curve" smooth="yes"/>
			<point x="149" y="128"/>
			<point x="97" y="142"/>
			<point x="60" y="158" type="curve"/>
			<point x="40" y="26" type="line"/>
			<point x="82" y="4"/>
			<point x="147" y="-12"/>
		</contour>
	</outline>
	<anchor name="top" x="364" y="684"/>
	<anchor name="bottom" x="78" y="0"/>
</glyph>
<glyph name="M" format="2">
	<unicode hex="004D"/>
	<advance width="600"/>
	<outline>
		<contour>
			<point x="-6" y="0" type="line"/>
			<point x="136" y="0" type="line"/>
			<point x="160" y="178" type="line" smooth="yes"/>
			<point x="178" y="302"/>
			<point x="184" y="408"/>
			<point x="185" y="511" type="curve"/>
			<point x="195" y="511" type="line"/>
			<point x="223" y="154" type="line"/>
			<point x="347" y="154" type="line"/>
			<point x="472" y="511" type="line"/>
			<point x="485" y="511" type="line"/>
			<point x="453" y="403"/>
			<point x="432" y="299"/>
			<point x="415" y="179" type="curve" smooth="yes"/>
			<point x="390" y="0" type="line"/>
			<point x="532" y="0" type="line"/>
			<point x="628" y="684" type="line"/>
			<point x="424" y="684" type="line"/>
			<point x="310" y="324" type="line"/>
			<point x="304" y="324" type="line"/>
			<point x="289" y="684" type="line"/>
			<point x="90" y="684" type="line"/>
		</contour>
	</outline>
</glyph>
<glyph name="O" format="2">
	<unicode hex="004F"/>
	<advance width="600"/>
	<outline>
		<contour>
			<point x="280" y="-14" type="curve" smooth="yes"/>
			<point x="456" y="-14"/>
			<point x="540" y="114"/>
			<point x="568" y="309" type="curve" smooth="yes"/>
			<point x="570" y="323" type="line" smooth="yes"/>
			<point x="605" y="567"/>
			<point x="533" y="698"/>
			<point x="346" y="698" type="curve" smooth="yes"/>
			<point x="174" y="698"/>
			<point x="83" y="567"/>
			<point x="55" y="374" type="curve" smooth="yes"/>
			<point x="53" y="360" type="line" smooth="yes"/>
			<point x="18" y="117"/>
			<point x="89" y="-14"/>
		</contour>
		<contour>
			<point x="286" y="123" type="curve" smooth="yes"/>
			<point x="221" y="123"/>
			<point x="197" y="177"/>
			<point x="221" y="347" type="curve" smooth="yes"/>
			<point x="222" y="354" type="line" smooth="yes"/>
			<point x="245" y="512"/>
			<point x="279" y="561"/>
			<point x="338" y="561" type="curve" smooth="yes"/>
			<point x="401" y="561"/>
			<point x="426" y="507"/>
			<point x="401" y="339" type="curve" smooth="yes"/>
			<point x="400" y="332" type="line" smooth="yes"/>
			<point x="378" y="173"/>
			<point x="345" y="123"/>
		</contour>
	</outline>
	<anchor name="center" x="312" y="344"/>
	<anchor name="bottom" x="265" y="0"/>
	<anchor name="top" x="354" y="684"/>
</glyph>
<glyph name="P" format="2">
	<unicode hex="0050"/>
	<advance width="600"/>
	<outline>
		<contour>
			<point x="23" y="0" type="line"/>
			<point x="192" y="0" type="line"/>
			<point x="219" y="194" type="line"/>
			<point x="344" y="194" type="line" smooth="yes"/>
			<point x="495" y="194"/>
			<point x="609" y="294"/>
			<point x="609" y="469" type="curve" smooth="yes"/>
			<point x="609" y="604"/>
			<point x="530" y="684"/>
			<point x="376" y="684" type="curve" smooth="yes"/>
			<point x="119" y="684" type="line"/>
		</contour>
		<contour>
			<point x="342" y="549" type="line" smooth="yes"/>
			<point x="415" y="549"/>
			<point x="438" y="509"/>
			<point x="438" y="453" type="curve" smooth="yes"/>
			<point x="438" y="372"/>
			<point x="398" y="329"/>
			<point x="330" y="329" type="curve" smooth="yes"/>
			<point x="238" y="329" type="line"/>
			<point x="269" y="549" type="line"/>
		</contour>
	</outline>
	<anchor name="top" x="387" y="684"/>
	<anchor name="bottom" x="138" y="0"/>
</glyph>
<glyph name="R" format="2">
	<unicode hex="0052"/>
	<advance width="600"/>
	<outline>
		<contour>
			<point x="16" y="0" type="line"/>
			<point x="185" y="0" type="line"/>
			<point x="217" y="228" type="line"/>
			<point x="269" y="228" type="line" smooth="yes"/>
			<point x="323" y="228"/>
			<point x="338" y="209"/>
			<point x="345" y="162" type="curve" smooth="yes"/>
			<point x="369" y="0" type="line"/>
			<point x="546" y="0" type="line"/>
			<point x="515" y="187" type="line" smooth="yes"/>
			<point x="504" y="253"/>
			<point x="475" y="286"/>
			<point x="420" y="299" type="curve"/>
			<point x="523" y="316"/>
			<point x="596" y="377"/>
			<point x="595" y="500" type="curve" smooth="yes"/>
			<point x="594" y="614"/>
			<point x="518" y="684"/>
			<point x="383" y="684" type="curve" smooth="yes"/>
			<point x="112" y="684" type="line"/>
		</contour>
		<contour>
			<point x="335" y="551" type="line" smooth="yes"/>
			<point x="398" y="551"/>
			<point x="423" y="517"/>
			<point x="423" y="469" type="curve" smooth="yes"/>
			<point x="423" y="395"/>
			<point x="385" y="360"/>
			<point x="325" y="360" type="curve" smooth="yes"/>
			<point x="236" y="360" type="line"/>
			<point x="262" y="551" type="line"/>
		</contour>
	</outline>
	<anchor name="top" x="341" y="684"/>
	<anchor name="bottom" x="279" y="0"/>
</glyph>
<glyph name="T" format="2">
	<unicode hex="0054"/>
	<advance width="600"/>
	<outline>
		<contour>
			<point x="178" y="0" type="line"/>
			<point x="348" y="0" type="line"/>
			<point x="424" y="539" type="line"/>
			<point x="614" y="539" type="line"/>
			<point x="634" y="684" type="line"/>
			<point x="85" y="684" type="line"/>
			<point x="65" y="539" type="line"/>
			<point x="254" y="539" type="line"/>
		</contour>
	</outline>
	<anchor name="center" x="310" y="333"/>
	<anchor name="bottom" x="263" y="0"/>
	<anchor name="top" x="360" y="684"/>
</glyph>
<glyph name="U" format="2">
	<unicode hex="0055"/>
	<advance width="600"/>
	<outline>
		<contour>
			<point x="270" y="-14" type="curve" smooth="yes"/>
			<point x="431" y="-14"/>
			<point x="522" y="64"/>
			<point x="546" y="228" type="curve" smooth="yes"/>
			<point x="610" y="684" type="line"/>
			<point x="441" y="684" type="line"/>
			<point x="377" y="228" type="line" smooth="yes"/>
			<point x="368" y="165"/>
			<point x="339" y="126"/>
			<point x="286" y="126" type="curve" smooth="yes"/>
			<point x="231" y="126"/>
			<point x="205" y="166"/>
			<point x="214" y="231" type="curve" smooth="yes"/>
			<point x="278" y="684" type="line"/>
			<point x="108" y="684" type="line"/>
			<point x="46" y="241" type="line" smooth="yes"/>
			<point x="21" y="68"/>
			<point x="109" y="-14"/>
		</contour>
	</outline>
	<anchor name="ogonek" x="376" y="0"/>
	<anchor name="bottom" x="242" y="0"/>
	<anchor name="top" x="360" y="684"/>
</glyph>
<glyph name="V" format="2">
	<unicode hex="0056"/>
	<advance width="600"/>
	<outline>
		<contour>
			<point x="138" y="-1" type="line"/>
			<point x="385" y="-1" type="line"/>
			<point x="651" y="684" type="line"/>
			<point x="473" y="684" type="line"/>
			<point x="280" y="151" type="line"/>
			<point x="239" y="684" type="line"/>
			<point x="67" y="684" type="line"/>
		</contour>
	</outline>
	<anchor name="overlap" x="371" y="684"/>
	<anchor name="ogonek" x="570" y="0"/>
	<anchor name="top" x="371" y="684"/>
	<anchor name="bottom" x="279" y="0"/>
</glyph>
<glyph name="Y" format="2">
	<unicode hex="0059"/>
	<advance width="600"/>
	<outline>
		<contour>
			<point x="173" y="0" type="line"/>
			<point x="345" y="0" type="line"/>
			<point x="378" y="235" type="line"/>
			<point x="651" y="684" type="line"/>
			<point x="468" y="684" type="line"/>
			<point x="322" y="422" type="line"/>
			<point x="250" y="684" type="line"/>
			<point x="67" y="684" type="line"/>
			<point x="207" y="235" type="line"/>
		</contour>
	</outline>
	<anchor name="top" x="359" y="684"/>
	<anchor name="bottom" x="280" y="0"/>
</glyph>
<glyph name="bracketleft" format="2">
	<unicode hex="005B"/>
	<advance width="600"/>
	<outline>
		<contour>
			<point x="465" y="-44" type="line"/>
			<point x="269" y="-44" type="line"/>
			<point x="369" y="673" type="line"/>
			<point x="566" y="673" type="line"/>
			<point x="583" y="792" type="line"/>
			<point x="232" y="792" type="line"/>
			<point x="97" y="-163" type="line"/>
			<point x="448" y="-163" type="line"/>
		</contour>
	</outline>
</glyph>
<glyph name="bracketright" format="2">
	<unicode hex="005D"/>
	<advance width="600"/>
	<outline>
		<contour>
			<point x="32" y="-163" type="line"/>
			<point x="383" y="-163" type="line"/>
			<point x="518" y="792" type="line"/>
			<point x="167" y="792" type="line"/>
			<point x="150" y="673" type="line"/>
			<point x="346" y="673" type="line"/>
			<point x="246" y="-44" type="line"/>
			<point x="49" y="-44" type="line"/>
		</contour>
	</outline>
</glyph>
<glyph name="asciicircum" format="2">
	<unicode hex="005E"/>
	<advance width="600"/>
	<outline>
		<contour>
			<point x="49" y="233" type="line"/>
			<point x="193" y="233" type="line"/>
			<point x="330" y="463" type="line"/>
			<point x="402" y="233" type="line"/>
			<point x="543" y="233" type="line"/>
			<point x="419" y="587" type="line"/>
			<point x="270" y="587" type="line"/>
		</contour>
	</outline>
</glyph>
<glyph name="underscore" format="2">
	<unicode hex="005F"/>
	<advance width="600"/>
	<outline>
		<contour>
			<point x="-16" y="-66" type="line"/>
			<point x="-32" y="-187" type="line"/>
			<point x="507" y="-187" type="line"/>
			<point x="523" y="-66" type="line"/>
		</contour>
	</outline>
</glyph>
<glyph name="a" format="2">
	<unicode hex="0061"/>
	<advance width="600"/>
	<outline>
		<contour>
			<point x="179" y="-14" type="curve" smooth="yes"/>
			<point x="255" y="-14"/>
			<point x="306" y="28"/>
			<point x="346" y="86" type="curve"/>
			<point x="334" y="0" type="line"/>
			<point x="493" y="0" type="line"/>
			<point x="539" y="325" type="line" smooth="yes"/>
			<point x="560" y="478"/>
			<point x="467" y="537"/>
			<point x="319" y="537" type="curve" smooth="yes"/>
			<point x="243" y="537"/>
			<point x="166" y="521"/>
			<point x="106" y="495" type="curve"/>
			<point x="85" y="356" type="line"/>
			<point x="145" y="389"/>
			<point x="213" y="407"/>
			<point x="283" y="407" type="curve" smooth="yes"/>
			<point x="352" y="407"/>
			<point x="382" y="379"/>
			<point x="374" y="327" type="curve"/>
			<point x="282" y="315" type="line" smooth="yes"/>
			<point x="118" y="292"/>
			<point x="37" y="231"/>
			<point x="37" y="113" type="curve" smooth="yes"/>
			<point x="37" y="39"/>
			<point x="88" y="-14"/>
		</contour>
		<contour>
			<point x="261" y="98" type="curve" smooth="yes"/>
			<point x="221" y="98"/>
			<point x="195" y="118"/>
			<point x="195" y="152" type="curve" smooth="yes"/>
			<point x="195" y="189"/>
			<point x="219" y="215"/>
			<point x="289" y="226" type="curve" smooth="yes"/>
			<point x="361" y="236" type="line"/>
			<point x="352" y="178" type="line" smooth="yes"/>
			<point x="344" y="127"/>
			<point x="310" y="98"/>
		</contour>
	</outline>
	<anchor name="ogonek" x="493" y="0"/>
	<anchor name="bottom" x="266" y="-3"/>
	<anchor name="top" x="338" y="523"/>
</glyph>
<glyph name="c" format="2">
	<unicode hex="0063"/>
	<advance width="600"/>
	<outline>
		<contour>
			<point x="365" y="-12" type="curve" smooth="yes"/>
			<point x="413" y="-12"/>
			<point x="453" y="-5"/>
			<point x="484" y="8" type="curve"/>
			<point x="502" y="137" type="line"/>
			<point x="471" y="125"/>
			<point x="435" y="119"/>
			<point x="399" y="119" type="curve" smooth="yes"/>
			<point x="292" y="119"/>
			<point x="234" y="173"/>
			<point x="249" y="277" type="curve" smooth="yes"/>
			<point x="250" y="284" type="line" smooth="yes"/>
			<point x="261" y="366"/>
			<point x="312" y="403"/>
			<point x="400" y="403" type="curve" smooth="yes"/>
			<point x="461" y="403"/>
			<point x="503" y="391"/>
			<point x="536" y="372" type="curve"/>
			<point x="553" y="498" type="line"/>
			<point x="514" y="520"/>
			<point x="452" y="535"/>
			<point x="377" y="535" type="curve" smooth="yes"/>
			<point x="207" y="535"/>
			<point x="102" y="442"/>
			<point x="82" y="300" type="curve" smooth="yes"/>
			<point x="80" y="286" type="line" smooth="yes"/>
			<point x="53" y="97"/>
			<point x="170" y="-12"/>
		</contour>
	</outline>
	<anchor name="top" x="398" y="523"/>
	<anchor name="bottom" x="318" y="0"/>
</glyph>
<glyph name="g" format="2">
	<unicode hex="0067"/>
	<advance width="600"/>
	<outline>
		<contour>
			<point x="189" y="-210" type="curve" smooth="yes"/>
			<point x="225" y="-210" type="line" smooth="yes"/>
			<point x="405" y="-210"/>
			<point x="543" y="-139"/>
			<point x="543" y="-7" type="curve" smooth="yes"/>
			<point x="543" y="69"/>
			<point x="484" y="108"/>
			<point x="369" y="108" type="curve" smooth="yes"/>
			<point x="237" y="108" type="line" smooth="yes"/>
			<point x="203" y="108"/>
			<point x="180" y="111"/>
			<point x="180" y="129" type="curve" smooth="yes"/>
			<point x="180" y="151"/>
			<point x="207" y="165"/>
			<point x="248" y="165" type="curve" smooth="yes"/>
			<point x="282" y="165" type="line" smooth="yes"/>
			<point x="413" y="165"/>
			<point x="527" y="227"/>
			<point x="527" y="354" type="curve" smooth="yes"/>
			<point x="527" y="366"/>
			<point x="523" y="382"/>
			<point x="516" y="394" type="curve"/>
			<point x="603" y="394" type="line"/>
			<point x="621" y="523" type="line"/>
			<point x="306" y="523" type="line" smooth="yes"/>
			<point x="168" y="523"/>
			<point x="59" y="454"/>
			<point x="59" y="328" type="curve" smooth="yes"/>
			<point x="59" y="258"/>
			<point x="98" y="206"/>
			<point x="163" y="181" type="curve"/>
			<point x="67" y="158"/>
			<point x="23" y="123"/>
			<point x="23" y="69" type="curve" smooth="yes"/>
			<point x="23" y="28"/>
			<point x="58" y="0"/>
			<point x="122" y="-8" type="curve"/>
			<point x="19" y="-25"/>
			<point x="-33" y="-63"/>
			<point x="-33" y="-112" type="curve" smooth="yes"/>
			<point x="-33" y="-170"/>
			<point x="31" y="-210"/>
		</contour>
		<contour>
			<point x="373" y="350" type="curve" smooth="yes"/>
			<point x="373" y="297"/>
			<point x="343" y="259"/>
			<point x="290" y="259" type="curve" smooth="yes"/>
			<point x="245" y="259"/>
			<point x="217" y="284"/>
			<point x="217" y="332" type="curve" smooth="yes"/>
			<point x="217" y="387"/>
			<point x="247" y="423"/>
			<point x="301" y="423" type="curve" smooth="yes"/>
			<point x="345" y="423"/>
			<point x="373" y="402"/>
		</contour>
		<contour>
			<point x="270" y="-108" type="curve" smooth="yes"/>
			<point x="219" y="-108" type="line"/>
			<point x="158" y="-108"/>
			<point x="128" y="-95"/>
			<point x="128" y="-68" type="curve" smooth="yes"/>
			<point x="128" y="-38"/>
			<point x="174" y="-18"/>
			<point x="229" y="-18" type="curve" smooth="yes"/>
			<point x="307" y="-18" type="line" smooth="yes"/>
			<point x="355" y="-18"/>
			<point x="378" y="-30"/>
			<point x="378" y="-54" type="curve" smooth="yes"/>
			<point x="378" y="-89"/>
			<point x="337" y="-108"/>
		</contour>
	</outline>
	<anchor name="top" x="328" y="523"/>
	<anchor name="bottom" x="250" y="-183"/>
</glyph>
<glyph name="h" format="2">
	<unicode hex="0068"/>
	<advance width="600"/>
	<outline>
		<contour>
			<point x="425" y="537" type="curve" smooth="yes"/>
			<point x="356" y="537"/>
			<point x="300" y="496"/>
			<point x="252" y="426" type="curve"/>
			<point x="297" y="750" type="line"/>
			<point x="130" y="750" type="line"/>
			<point x="25" y="0" type="line"/>
			<point x="192" y="0" type="line"/>
			<point x="237" y="318" type="line" smooth="yes"/>
			<point x="240" y="338"/>
			<point x="247" y="355"/>
			<point x="258" y="368" type="curve" smooth="yes"/>
			<point x="272" y="387"/>
			<point x="293" y="400"/>
			<point x="322" y="400" type="curve" smooth="yes"/>
			<point x="374" y="400"/>
			<point x="393" y="369"/>
			<point x="384" y="306" type="curve" smooth="yes"/>
			<point x="340" y="0" type="line"/>
			<point x="507" y="0" type="line"/>
			<point x="555" y="335" type="line" smooth="yes"/>
			<point x="573" y="461"/>
			<point x="527" y="537"/>
		</contour>
	</outline>
	<anchor name="center" x="239" y="632"/>
	<anchor name="caron" x="348" y="748"/>
	<anchor name="top" x="211" y="733"/>
	<anchor name="bottom" x="265" y="0"/>
</glyph>
<glyph name="j" format="2">
	<unicode hex="006A"/>
	<advance width="600"/>
	<outline>
		<contour>
			<point x="455" y="596" type="curve" smooth="yes"/>
			<point x="523" y="596"/>
			<point x="554" y="620"/>
			<point x="560" y="673" type="curve" smooth="yes"/>
			<point x="566" y="730"/>
			<point x="539" y="756"/>
			<point x="467" y="756" type="curve" smooth="yes"/>
			<point x="399" y="756"/>
			<point x="368" y="732"/>
			<point x="362" y="679" type="curve" smooth="yes"/>
			<point x="356" y="622"/>
			<point x="383" y="596"/>
		</contour>
		<contour>
			<point x="180" y="-204" type="curve" smooth="yes"/>
			<point x="329" y="-204"/>
			<point x="429" y="-147"/>
			<point x="450" y="3" type="curve" smooth="yes"/>
			<point x="523" y="523" type="line"/>
			<point x="110" y="523" type="line"/>
			<point x="91" y="394" type="line"/>
			<point x="338" y="394" type="line"/>
			<point x="288" y="38" type="line" smooth="yes"/>
			<point x="276" y="-44"/>
			<point x="232" y="-69"/>
			<point x="149" y="-69" type="curve" smooth="yes"/>
			<point x="101" y="-69"/>
			<point x="59" y="-58"/>
			<point x="28" y="-45" type="curve"/>
			<point x="10" y="-171" type="line"/>
			<point x="48" y="-190"/>
			<point x="109" y="-204"/>
		</contour>
	</outline>
</glyph>
<glyph name="k" format="2">
	<unicode hex="006B"/>
	<advance width="600"/>
	<outline>
		<contour>
			<point x="24" y="0" type="line"/>
			<point x="191" y="0" type="line"/>
			<point x="220" y="204" type="line"/>
			<point x="354" y="0" type="line"/>
			<point x="548" y="0" type="line"/>
			<point x="411" y="195" type="line"/>
			<point x="503" y="217"/>
			<point x="573" y="289"/>
			<point x="573" y="392" type="curve" smooth="yes"/>
			<point x="573" y="474"/>
			<point x="522" y="537"/>
			<point x="430" y="537" type="curve" smooth="yes"/>
			<point x="360" y="537"/>
			<point x="302" y="503"/>
			<point x="253" y="432" type="curve"/>
			<point x="297" y="750" type="line"/>
			<point x="130" y="750" type="line"/>
		</contour>
		<contour>
			<point x="333" y="412" type="curve" smooth="yes"/>
			<point x="381" y="412"/>
			<point x="404" y="384"/>
			<point x="404" y="346" type="curve" smooth="yes"/>
			<point x="404" y="292"/>
			<point x="364" y="250"/>
			<point x="288" y="250" type="curve" smooth="yes"/>
			<point x="226" y="250" type="line"/>
			<point x="236" y="318" type="line" smooth="yes"/>
			<point x="244" y="373"/>
			<point x="274" y="412"/>
		</contour>
	</outline>
	<anchor name="bottom" x="271" y="0"/>
</glyph>
<glyph name="m" format="2">
	<unicode hex="006D"/>
	<advance width="600"/>
	<outline>
		<contour>
			<point x="-4" y="0" type="line"/>
			<point x="127" y="0" type="line"/>
			<point x="175" y="350" type="line" smooth="yes"/>
			<point x="178" y="366"/>
			<point x="183" y="382"/>
			<point x="193" y="392" type="curve" smooth="yes"/>
			<point x="200" y="401"/>
			<point x="211" y="406"/>
			<point x="223" y="406" type="curve" smooth="yes"/>
			<point x="250" y="406"/>
			<point x="259" y="385"/>
			<point x="254" y="347" type="curve" smooth="yes"/>
			<point x="206" y="0" type="line"/>
			<point x="321" y="0" type="line"/>
			<point x="370" y="350" type="line"/>
			<point x="373" y="367"/>
			<point x="378" y="382"/>
			<point x="388" y="393" type="curve" smooth="yes"/>
			<point x="396" y="401"/>
			<point x="405" y="406"/>
			<point x="419" y="406" type="curve" smooth="yes"/>
			<point x="446" y="406"/>
			<point x="454" y="385"/>
			<point x="449" y="347" type="curve" smooth="yes"/>
			<point x="400" y="0" type="line"/>
			<point x="531" y="0" type="line"/>
			<point x="584" y="384" type="line" smooth="yes"/>
			<point x="598" y="487"/>
			<point x="571" y="537"/>
			<point x="507" y="537" type="curve" smooth="yes"/>
			<point x="453" y="537"/>
			<point x="412" y="496"/>
			<point x="379" y="433" type="curve"/>
			<point x="380" y="499"/>
			<point x="353" y="537"/>
			<point x="304" y="537" type="curve" smooth="yes"/>
			<point x="249" y="537"/>
			<point x="212" y="495"/>
			<point x="181" y="430" type="curve"/>
			<point x="194" y="523" type="line"/>
			<point x="69" y="523" type="line"/>
		</contour>
	</outline>
	<anchor name="top" x="386" y="523"/>
	<anchor name="bottom" x="265" y="0"/>
</glyph>
<glyph name="n" format="2">
	<unicode hex="006E"/>
	<advance width="600"/>
	<outline>
		<contour>
			<point x="25" y="0" type="line"/>
			<point x="192" y="0" type="line"/>
			<point x="236" y="311" type="line" smooth="yes"/>
			<point x="239" y="333"/>
			<point x="246" y="353"/>
			<point x="259" y="369" type="curve" smooth="yes"/>
			<point x="272" y="386"/>
			<point x="292" y="400"/>
			<point x="322" y="400" type="curve" smooth="yes"/>
			<point x="374" y="400"/>
			<point x="393" y="369"/>
			<point x="384" y="306" type="curve" smooth="yes"/>
			<point x="340" y="0" type="line"/>
			<point x="507" y="0" type="line"/>
			<point x="555" y="335" type="line" smooth="yes"/>
			<point x="573" y="461"/>
			<point x="528" y="537"/>
			<point x="425" y="537" type="curve" smooth="yes"/>
			<point x="350" y="537"/>
			<point x="291" y="492"/>
			<point x="242" y="415" type="curve"/>
			<point x="257" y="523" type="line"/>
			<point x="98" y="523" type="line"/>
		</contour>
	</outline>
	<anchor name="top" x="337" y="523"/>
	<anchor name="bottom" x="265" y="0"/>
</glyph>
<glyph name="o" format="2">
	<unicode hex="006F"/>
	<advance width="600"/>
	<outline>
		<contour>
			<point x="278" y="-14" type="curve" smooth="yes"/>
			<point x="437" y="-14"/>
			<point x="534" y="80"/>
			<point x="556" y="231" type="curve" smooth="yes"/>
			<point x="558" y="245" type="line" smooth="yes"/>
			<point x="583" y="421"/>
			<point x="490" y="537"/>
			<point x="324" y="537" type="curve" smooth="yes"/>
			<point x="170" y="537"/>
			<point x="65" y="441"/>
			<point x="44" y="292" type="curve" smooth="yes"/>
			<point x="42" y="278" type="line" smooth="yes"/>
			<point x="16" y="99"/>
			<point x="109" y="-14"/>
		</contour>
		<contour>
			<point x="286" y="115" type="curve" smooth="yes"/>
			<point x="227" y="115"/>
			<point x="197" y="163"/>
			<point x="212" y="267" type="curve" smooth="yes"/>
			<point x="213" y="274" type="line" smooth="yes"/>
			<point x="226" y="367"/>
			<point x="261" y="409"/>
			<point x="314" y="409" type="curve" smooth="yes"/>
			<point x="372" y="409"/>
			<point x="403" y="363"/>
			<point x="388" y="258" type="curve" smooth="yes"/>
			<point x="387" y="251" type="line" smooth="yes"/>
			<point x="374" y="157"/>
			<point x="338" y="115"/>
		</contour>
	</outline>
	<anchor name="center" x="299" y="264"/>
	<anchor name="bottom" x="257" y="-12"/>
	<anchor name="top" x="330" y="523"/>
</glyph>
<glyph name="p" format="2">
	<unicode hex="0070"/>
	<advance width="600"/>
	<outline>
		<contour>
			<point x="407" y="537" type="curve" smooth="yes"/>
			<point x="341" y="537"/>
			<point x="284" y="499"/>
			<point x="239" y="420" type="curve"/>
			<point x="253" y="523" type="line"/>
			<point x="94" y="523" type="line"/>
			<point x="-6" y="-194" type="line"/>
			<point x="161" y="-194" type="line"/>
			<point x="188" y="0" type="line"/>
			<point x="246" y="0" type="line" smooth="yes"/>
			<point x="422" y="0"/>
			<point x="533" y="95"/>
			<point x="557" y="259" type="curve" smooth="yes"/>
			<point x="559" y="273" type="line" smooth="yes"/>
			<point x="582" y="434"/>
			<point x="524" y="537"/>
		</contour>
		<contour>
			<point x="390" y="271" type="curve" smooth="yes"/>
			<point x="389" y="264" type="line"/>
			<point x="375" y="168"/>
			<point x="333" y="127"/>
			<point x="248" y="127" type="curve" smooth="yes"/>
			<point x="206" y="127" type="line"/>
			<point x="231" y="308" type="line" smooth="yes"/>
			<point x="239" y="373"/>
			<point x="272" y="407"/>
			<point x="322" y="407" type="curve" smooth="yes"/>
			<point x="378" y="407"/>
			<point x="402" y="357"/>
		</contour>
	</outline>
	<anchor name="ogonek" x="113" y="550"/>
	<anchor name="bottom" x="248" y="0"/>
</glyph>
<glyph name="r" format="2">
	<unicode hex="0072"/>
	<advance width="600"/>
	<outline>
		<contour>
			<point x="21" y="0" type="line"/>
			<point x="477" y="0" type="line"/>
			<point x="495" y="129" type="line"/>
			<point x="332" y="129" type="line"/>
			<point x="350" y="257" type="line" smooth="yes"/>
			<point x="359" y="322"/>
			<point x="399" y="370"/>
			<point x="480" y="370" type="curve" smooth="yes"/>
			<point x="517" y="370"/>
			<point x="549" y="363"/>
			<point x="567" y="356" type="curve"/>
			<point x="591" y="523" type="line"/>
			<point x="581" y="528"/>
			<point x="563" y="532"/>
			<point x="543" y="532" type="curve" smooth="yes"/>
			<point x="464" y="532"/>
			<point x="411" y="489"/>
			<point x="359" y="380" type="curve"/>
			<point x="380" y="523" type="line"/>
			<point x="98" y="523" type="line"/>
			<point x="80" y="394" type="line"/>
			<point x="202" y="394" type="line"/>
			<point x="165" y="129" type="line"/>
			<point x="39" y="129" type="line"/>
		</contour>
	</outline>
	<anchor name="top" x="371" y="523"/>
	<anchor name="bottom" x="230" y="0"/>
</glyph>
<glyph name="s" format="2">
	<unicode hex="0073"/>
	<advance width="600"/>
	<outline>
		<contour>
			<point x="269" y="-14" type="curve" smooth="yes"/>
			<point x="429" y="-14"/>
			<point x="515" y="56"/>
			<point x="515" y="187" type="curve" smooth="yes"/>
			<point x="515" y="288"/>
			<point x="432" y="311"/>
			<point x="327" y="332" type="curve" smooth="yes"/>
			<point x="266" y="345"/>
			<point x="245" y="354"/>
			<point x="245" y="380" type="curve" smooth="yes"/>
			<point x="245" y="408"/>
			<point x="272" y="421"/>
			<point x="317" y="421" type="curve" smooth="yes"/>
			<point x="390" y="421"/>
			<point x="476" y="399"/>
			<point x="536" y="363" type="curve"/>
			<point x="554" y="490" type="line"/>
			<point x="498" y="517"/>
			<point x="414" y="537"/>
			<point x="327" y="537" type="curve" smooth="yes"/>
			<point x="162" y="537"/>
			<point x="86" y="456"/>
			<point x="86" y="342" type="curve" smooth="yes"/>
			<point x="86" y="234"/>
			<point x="172" y="207"/>
			<point x="274" y="190" type="curve" smooth="yes"/>
			<point x="339" y="181"/>
			<point x="358" y="172"/>
			<point x="358" y="147" type="curve" smooth="yes"/>
			<point x="358" y="115"/>
			<point x="326" y="103"/>
			<point x="278" y="103" type="curve" smooth="yes"/>
			<point x="210" y="103"/>
			<point x="125" y="126"/>
			<point x="65" y="167" type="curve"/>
			<point x="48" y="42" type="line"/>
			<point x="89" y="12"/>
			<point x="173" y="-14"/>
		</contour>
	</outline>
	<anchor name="top" x="349" y="523"/>
	<anchor name="bottom" x="273" y="0"/>
</glyph>
<glyph name="x" format="2">
	<unicode hex="0078"/>
	<advance width="600"/>
	<outline>
		<contour>
			<point x="-15" y="0" type="line"/>
			<point x="172" y="0" type="line"/>
			<point x="285" y="161" type="line"/>
			<point x="364" y="0" type="line"/>
			<point x="541" y="0" type="line"/>
			<point x="409" y="275" type="line"/>
			<point x="606" y="523" type="line"/>
			<point x="422" y="523" type="line"/>
			<point x="314" y="382" type="line"/>
			<point x="250" y="523" type="line"/>
			<point x="70" y="523" type="line"/>
			<point x="199" y="271" type="line"/>
		</contour>
	</outline>
	<anchor name="top" x="361" y="523"/>
	<anchor name="bottom" x="293" y="0"/>
</glyph>
<glyph name="y" format="2">
	<unicode hex="0079"/>
	<advance width="600"/>
	<outline>
		<contour>
			<point x="209" y="-204" type="curve" smooth="yes"/>
			<point x="349" y="-204"/>
			<point x="483" y="-147"/>
			<point x="510" y="48" type="curve" smooth="yes"/>
			<point x="575" y="523" type="line"/>
			<point x="409" y="523" type="line"/>
			<point x="370" y="239" type="line" smooth="yes"/>
			<point x="369" y="231"/>
			<point x="367" y="223"/>
			<point x="365" y="216" type="curve"/>
			<point x="361" y="201"/>
			<point x="354" y="188"/>
			<point x="346" y="178" type="curve" smooth="yes"/>
			<point x="331" y="160"/>
			<point x="310" y="150"/>
			<point x="284" y="150" type="curve" smooth="yes"/>
			<point x="231" y="150"/>
			<point x="213" y="181"/>
			<point x="222" y="243" type="curve" smooth="yes"/>
			<point x="262" y="523" type="line"/>
			<point x="94" y="523" type="line"/>
			<point x="49" y="204" type="line" smooth="yes"/>
			<point x="32" y="81"/>
			<point x="93" y="18"/>
			<point x="183" y="18" type="curve" smooth="yes"/>
			<point x="258" y="18"/>
			<point x="306" y="53"/>
			<point x="354" y="121" type="curve"/>
			<point x="347" y="65" type="line" smooth="yes"/>
			<point x="335" y="-31"/>
			<point x="282" y="-74"/>
			<point x="194" y="-74" type="curve" smooth="yes"/>
			<point x="121" y="-74"/>
			<point x="64" y="-48"/>
			<point x="24" y="-20" type="curve"/>
			<point x="6" y="-151" type="line"/>
			<point x="50" y="-180"/>
			<point x="122" y="-204"/>
		</contour>
	</outline>
	<anchor name="top" x="336" y="523"/>
</glyph>
<glyph name="z" format="2">
	<unicode hex="007A"/>
	<advance width="600"/>
	<outline>
		<contour>
			<point x="34" y="0" type="line"/>
			<point x="492" y="0" type="line"/>
			<point x="510" y="130" type="line"/>
			<point x="268" y="130" type="line"/>
			<point x="544" y="394" type="line"/>
			<point x="562" y="523" type="line"/>
			<point x="113" y="523" type="line"/>
			<point x="95" y="394" type="line"/>
			<point x="326" y="394" type="line"/>
			<point x="53" y="131" type="line"/>
		</contour>
	</outline>
	<anchor name="top" x="337" y="523"/>
	<anchor name="bottom" x="263" y="0"/>
</glyph>
<glyph name="braceleft" format="2">
	<unicode hex="007B"/>
	<advance width="600"/>
	<outline>
		<contour>
			<point x="85" y="244" type="line"/>
			<point x="174" y="244" type="line" smooth="yes"/>
			<point x="213" y="244"/>
			<point x="227" y="219"/>
			<point x="227" y="195" type="curve" smooth="yes"/>
			<point x="227" y="122"/>
			<point x="103" y="86"/>
			<point x="103" y="-33" type="curve" smooth="yes"/>
			<point x="103" y="-107"/>
			<point x="158" y="-163"/>
			<point x="261" y="-163" type="curve" smooth="yes"/>
			<point x="451" y="-163" type="line"/>
			<point x="468" y="-44" type="line"/>
			<point x="345" y="-44" type="line" smooth="yes"/>
			<point x="302" y="-44"/>
			<point x="280" y="-29"/>
			<point x="280" y="2" type="curve" smooth="yes"/>
			<point x="280" y="71"/>
			<point x="399" y="106"/>
			<point x="399" y="208" type="curve" smooth="yes"/>
			<point x="399" y="254"/>
			<point x="360" y="297"/>
			<point x="293" y="312" type="curve"/>
			<point x="358" y="321"/>
			<point x="434" y="358"/>
			<point x="434" y="437" type="curve" smooth="yes"/>
			<point x="434" y="508"/>
			<point x="362" y="564"/>
			<point x="362" y="619" type="curve" smooth="yes"/>
			<point x="362" y="658"/>
			<point x="389" y="673"/>
			<point x="438" y="673" type="curve" smooth="yes"/>
			<point x="569" y="673" type="line"/>
			<point x="586" y="792" type="line"/>
			<point x="368" y="792" type="line" smooth="yes"/>
			<point x="269" y="792"/>
			<point x="198" y="731"/>
			<point x="198" y="645" type="curve" smooth="yes"/>
			<point x="198" y="560"/>
			<point x="268" y="497"/>
			<point x="268" y="443" type="curve" smooth="yes"/>
			<point x="268" y="410"/>
			<point x="243" y="382"/>
			<point x="211" y="382" type="curve" smooth="yes"/>
			<point x="104" y="382" type="line"/>
		</contour>
	</outline>
</glyph>
<glyph name="braceright" format="2">
	<unicode hex="007D"/>
	<advance width="600"/>
	<outline>
		<contour>
			<point x="30" y="-163" type="line"/>
			<point x="247" y="-163" type="line" smooth="yes"/>
			<point x="347" y="-163"/>
			<point x="417" y="-102"/>
			<point x="417" y="-16" type="curve" smooth="yes"/>
			<point x="417" y="69"/>
			<point x="347" y="132"/>
			<point x="347" y="185" type="curve" smooth="yes"/>
			<point x="347" y="218"/>
			<point x="372" y="247"/>
			<point x="405" y="247" type="curve" smooth="yes"/>
			<point x="511" y="247" type="line"/>
			<point x="531" y="385" type="line"/>
			<point x="442" y="385" type="line" smooth="yes"/>
			<point x="403" y="385"/>
			<point x="388" y="410"/>
			<point x="388" y="433" type="curve" smooth="yes"/>
			<point x="388" y="507"/>
			<point x="513" y="542"/>
			<point x="513" y="662" type="curve" smooth="yes"/>
			<point x="513" y="735"/>
			<point x="459" y="792"/>
			<point x="355" y="792" type="curve" smooth="yes"/>
			<point x="165" y="792" type="line"/>
			<point x="147" y="673" type="line"/>
			<point x="271" y="673" type="line" smooth="yes"/>
			<point x="314" y="673"/>
			<point x="336" y="658"/>
			<point x="336" y="627" type="curve" smooth="yes"/>
			<point x="336" y="558"/>
			<point x="216" y="523"/>
			<point x="216" y="420" type="curve" smooth="yes"/>
			<point x="216" y="376"/>
			<point x="254" y="334"/>
			<point x="321" y="317" type="curve"/>
			<point x="256" y="307"/>
			<point x="182" y="270"/>
			<point x="182" y="192" type="curve" smooth="yes"/>
			<point x="182" y="121"/>
			<point x="254" y="65"/>
			<point x="254" y="10" type="curve" smooth="yes"/>
			<point x="254" y="-29"/>
			<point x="227" y="-44"/>
			<point x="178" y="-44" type="curve" smooth="yes"/>
			<point x="46" y="-44" type="line"/>
		</contour>
	</outline>
</glyph>
<glyph name="cent" format="2">
	<unicode hex="00A2"/>
	<advance width="600"/>
	<outline>
		<contour>
			<point x="268" y="-93" type="line"/>
			<point x="376" y="-93" type="line"/>
			<point x="391" y="-11" type="line"/>
			<point x="428" y="-9"/>
			<point x="459" y="-3"/>
			<point x="484" y="8" type="curve"/>
			<point x="502" y="137" type="line"/>
			<point x="473" y="126"/>
			<point x="441" y="120"/>
			<point x="408" y="119" type="curve"/>
			<point x="461" y="398" type="line"/>
			<point x="491" y="393"/>
			<point x="515" y="384"/>
			<point x="536" y="372" type="curve"/>
			<point x="553" y="498" type="line"/>
			<point x="537" y="507"/>
			<point x="516" y="515"/>
			<point x="493" y="521" type="curve"/>
			<point x="510" y="616" type="line"/>
			<point x="401" y="616" type="line"/>
			<point x="387" y="535" type="line"/>
			<point x="377" y="535" type="line" smooth="yes"/>
			<point x="207" y="535"/>
			<point x="102" y="442"/>
			<point x="82" y="300" type="curve" smooth="yes"/>
			<point x="80" y="286" type="line" smooth="yes"/>
			<point x="57" y="125"/>
			<point x="139" y="22"/>
			<point x="285" y="-5" type="curve"/>
		</contour>
		<contour>
			<point x="249" y="277" type="curve" smooth="yes"/>
			<point x="250" y="284" type="line" smooth="yes"/>
			<point x="260" y="356"/>
			<point x="301" y="394"/>
			<point x="370" y="401" type="curve"/>
			<point x="319" y="132" type="line"/>
			<point x="265" y="154"/>
			<point x="238" y="203"/>
		</contour>
	</outline>
</glyph>
<glyph name="sterling" format="2">
	<unicode hex="00A3"/>
	<advance width="600"/>
	<outline>
		<contour>
			<point x="35" y="132" type="curve"/>
			<point x="17" y="0" type="line"/>
			<point x="514" y="0" type="line"/>
			<point x="534" y="138" type="line"/>
			<point x="224" y="138" type="line"/>
			<point x="259" y="162"/>
			<point x="289" y="203"/>
			<point x="295" y="270" type="curve"/>
			<point x="466" y="270" type="line"/>
			<point x="484" y="393" type="line"/>
			<point x="299" y="393" type="line"/>
			<point x="296" y="414"/>
			<point x="292" y="433"/>
			<point x="292" y="453" type="curve" smooth="yes"/>
			<point x="292" y="520"/>
			<point x="331" y="557"/>
			<point x="401" y="557" type="curve" smooth="yes"/>
			<point x="473" y="557"/>
			<point x="537" y="535"/>
			<point x="585" y="502" type="curve"/>
			<point x="605" y="642" type="line"/>
			<point x="556" y="672"/>
			<point x="483" y="698"/>
			<point x="378" y="698" type="curve" smooth="yes"/>
			<point x="235" y="698"/>
			<point x="128" y="622"/>
			<point x="128" y="486" type="curve" smooth="yes"/>
			<point x="128" y="455"/>
			<point x="135" y="421"/>
			<point x="142" y="393" type="curve"/>
			<point x="61" y="393" type="line"/>
			<point x="44" y="270" type="line"/>
			<point x="133" y="270" type="line"/>
			<point x="124" y="213"/>
			<point x="82" y="162"/>
		</contour>
	</outline>
</glyph>
<glyph name="currency" format="2">
	<unicode hex="00A4"/>
	<advance width="600"/>
	<outline>
		<contour>
			<point x="73" y="29" type="line"/>
			<point x="175" y="126" type="line"/>
			<point x="204" y="109"/>
			<point x="240" y="100"/>
			<point x="280" y="100" type="curve" smooth="yes"/>
			<point x="321" y="100"/>
			<point x="359" y="109"/>
			<point x="393" y="127" type="curve"/>
			<point x="469" y="29" type="line"/>
			<point x="570" y="115" type="line"/>
			<point x="487" y="217" type="line"/>
			<point x="509" y="253"/>
			<point x="524" y="296"/>
			<point x="530" y="345" type="curve" smooth="yes"/>
			<point x="536" y="391"/>
			<point x="532" y="431"/>
			<point x="519" y="464" type="curve"/>
			<point x="628" y="565" type="line"/>
			<point x="546" y="652" type="line"/>
			<point x="443" y="556" type="line"/>
			<point x="415" y="572"/>
			<point x="380" y="580"/>
			<point x="342" y="580" type="curve" smooth="yes"/>
			<point x="303" y="580"/>
			<point x="266" y="571"/>
			<point x="233" y="555" type="curve"/>
			<point x="156" y="651" type="line"/>
			<point x="56" y="563" type="line"/>
			<point x="135" y="467" type="line"/>
			<point x="112" y="430"/>
			<point x="97" y="386"/>
			<point x="91" y="335" type="curve" smooth="yes"/>
			<point x="86" y="291"/>
			<point x="89" y="252"/>
			<point x="100" y="219" type="curve"/>
			<point x="-9" y="118" type="line"/>
		</contour>
		<contour>
			<point x="296" y="223" type="curve" smooth="yes"/>
			<point x="239" y="223"/>
			<point x="212" y="263"/>
			<point x="219" y="336" type="curve" smooth="yes"/>
			<point x="227" y="414"/>
			<point x="264" y="457"/>
			<point x="325" y="457" type="curve" smooth="yes"/>
			<point x="382" y="457"/>
			<point x="409" y="417"/>
			<point x="401" y="344" type="curve" smooth="yes"/>
			<point x="394" y="266"/>
			<point x="357" y="223"/>
		</contour>
	</outline>
</glyph>
<glyph name="brokenbar" format="2">
	<unicode hex="00A6"/>
	<advance width="600"/>
	<outline>
		<contour>
			<point x="297" y="792" type="line"/>
			<point x="245" y="418" type="line"/>
			<point x="400" y="418" type="line"/>
			<point x="452" y="792" type="line"/>
		</contour>
		<contour>
			<point x="220" y="244" type="line"/>
			<point x="163" y="-163" type="line"/>
			<point x="318" y="-163" type="line"/>
			<point x="375" y="244" type="line"/>
		</contour>
	</outline>
</glyph>
<glyph name="section" format="2">
	<unicode hex="00A7"/>
	<advance width="600"/>
	<outline>
		<contour>
			<point x="270" y="-85" type="curve" smooth="yes"/>
			<point x="402" y="-85"/>
			<point x="492" y="-9"/>
			<point x="492" y="114" type="curve" smooth="yes"/>
			<point x="492" y="157"/>
			<point x="475" y="198"/>
			<point x="434" y="224" type="curve"/>
			<point x="496" y="243"/>
			<point x="547" y="283"/>
			<point x="547" y="352" type="curve" smooth="yes"/>
			<point x="547" y="431"/>
			<point x="473" y="460"/>
			<point x="359" y="480" type="curve" smooth="yes"/>
			<point x="297" y="490"/>
			<point x="267" y="498"/>
			<point x="267" y="536" type="curve" smooth="yes"/>
			<point x="267" y="569"/>
			<point x="295" y="588"/>
			<point x="346" y="588" type="curve" smooth="yes"/>
			<point x="407" y="588"/>
			<point x="488" y="568"/>
			<point x="539" y="538" type="curve"/>
			<point x="556" y="650" type="line"/>
			<point x="511" y="675"/>
			<point x="439" y="698"/>
			<point x="346" y="698" type="curve" smooth="yes"/>
			<point x="213" y="698"/>
			<point x="119" y="624"/>
			<point x="119" y="504" type="curve" smooth="yes"/>
			<point x="119" y="448"/>
			<point x="141" y="409"/>
			<point x="181" y="384" type="curve"/>
			<point x="118" y="364"/>
			<point x="66" y="328"/>
			<point x="66" y="256" type="curve" smooth="yes"/>
			<point x="66" y="170"/>
			<point x="144" y="150"/>
			<point x="256" y="133" type="curve" smooth="yes"/>
			<point x="315" y="125"/>
			<point x="345" y="112"/>
			<point x="345" y="81" type="curve" smooth="yes"/>
			<point x="345" y="46"/>
			<point x="316" y="27"/>
			<point x="264" y="27" type="curve" smooth="yes"/>
			<point x="203" y="27"/>
			<point x="124" y="50"/>
			<point x="66" y="84" type="curve"/>
			<point x="52" y="-27" type="line"/>
			<point x="103" y="-60"/>
			<point x="182" y="-85"/>
		</contour>
		<contour>
			<point x="344" y="252" type="curve" smooth="yes"/>
			<point x="296" y="256"/>
			<point x="192" y="268"/>
			<point x="192" y="317" type="curve" smooth="yes"/>
			<point x="192" y="347"/>
			<point x="218" y="364"/>
			<point x="267" y="360" type="curve" smooth="yes"/>
			<point x="322" y="357"/>
			<point x="421" y="343"/>
			<point x="423" y="297" type="curve" smooth="yes"/>
			<point x="424" y="266"/>
			<point x="398" y="248"/>
		</contour>
	</outline>
</glyph>
<glyph name="dieresis" format="2">
	<unicode hex="00A8"/>
	<advance width="600"/>
	<outline>
		<contour>
			<point x="463" y="601" type="curve" smooth="yes"/>
			<point x="530" y="601"/>
			<point x="551" y="624"/>
			<point x="556" y="677" type="curve" smooth="yes"/>
			<point x="562" y="725"/>
			<point x="539" y="749"/>
			<point x="476" y="749" type="curve" smooth="yes"/>
			<point x="410" y="749"/>
			<point x="389" y="724"/>
			<point x="383" y="674" type="curve" smooth="yes"/>
			<point x="378" y="623"/>
			<point x="401" y="601"/>
		</contour>
		<contour>
			<point x="240" y="601" type="curve" smooth="yes"/>
			<point x="307" y="601"/>
			<point x="328" y="624"/>
			<point x="333" y="677" type="curve" smooth="yes"/>
			<point x="338" y="725"/>
			<point x="316" y="749"/>
			<point x="253" y="749" type="curve" smooth="yes"/>
			<point x="187" y="749"/>
			<point x="166" y="724"/>
			<point x="160" y="674" type="curve" smooth="yes"/>
			<point x="155" y="623"/>
			<point x="178" y="601"/>
		</contour>
	</outline>
	<anchor name="_top" x="338" y="523"/>
</glyph>
<glyph name="copyright" format="2">
	<unicode hex="00A9"/>
	<advance width="600"/>
	<outline>
		<contour>
			<point x="302" y="102" type="curve" smooth="yes"/>
			<point x="440" y="102"/>
			<point x="554" y="184"/>
			<point x="576" y="338" type="curve" smooth="yes"/>
			<point x="578" y="352" type="line" smooth="yes"/>
			<point x="605" y="541"/>
			<point x="492" y="657"/>
			<point x="331" y="657" type="curve" smooth="yes"/>
			<point x="193" y="657"/>
			<point x="79" y="576"/>
			<point x="57" y="423" type="curve" smooth="yes"/>
			<point x="55" y="409" type="line" smooth="yes"/>
			<point x="28" y="219"/>
			<point x="142" y="102"/>
		</contour>
		<contour>
			<point x="307" y="170" type="curve" smooth="yes"/>
			<point x="180" y="170"/>
			<point x="105" y="259"/>
			<point x="126" y="408" type="curve" smooth="yes"/>
			<point x="127" y="415" type="line" smooth="yes"/>
			<point x="143" y="528"/>
			<point x="215" y="589"/>
			<point x="326" y="589" type="curve" smooth="yes"/>
			<point x="454" y="589"/>
			<point x="528" y="501"/>
			<point x="507" y="353" type="curve" smooth="yes"/>
			<point x="506" y="346" type="line" smooth="yes"/>
			<point x="490" y="232"/>
			<point x="418" y="170"/>
		</contour>
		<contour>
			<point x="329" y="245" type="curve" smooth="yes"/>
			<point x="348" y="245"/>
			<point x="369" y="248"/>
			<point x="379" y="252" type="curve"/>
			<point x="387" y="311" type="line"/>
			<point x="377" y="308"/>
			<point x="365" y="305"/>
			<point x="350" y="305" type="curve" smooth="yes"/>
			<point x="310" y="305"/>
			<point x="274" y="328"/>
			<point x="283" y="388" type="curve" smooth="yes"/>
			<point x="289" y="435"/>
			<point x="318" y="458"/>
			<point x="358" y="458" type="curve" smooth="yes"/>
			<point x="376" y="458"/>
			<point x="393" y="453"/>
			<point x="406" y="448" type="curve"/>
			<point x="414" y="504" type="line"/>
			<point x="402" y="511"/>
			<point x="375" y="518"/>
			<point x="345" y="518" type="curve" smooth="yes"/>
			<point x="269" y="518"/>
			<point x="218" y="476"/>
			<point x="205" y="397" type="curve" smooth="yes"/>
			<point x="190" y="303"/>
			<point x="247" y="245"/>
		</contour>
	</outline>
</glyph>
<glyph name="ordfeminine" format="2">
	<unicode hex="00AA"/>
	<advance width="600"/>
	<outline>
		<contour>
			<point x="222" y="224" type="curve" smooth="yes"/>
			<point x="288" y="224"/>
			<point x="337" y="255"/>
			<point x="371" y="313" type="curve"/>
			<point x="359" y="235" type="line"/>
			<point x="491" y="235" type="line"/>
			<point x="530" y="513" type="line" smooth="yes"/>
			<point x="549" y="641"/>
			<point x="475" y="696"/>
			<point x="345" y="696" type="curve" smooth="yes"/>
			<point x="254" y="696"/>
			<point x="192" y="674"/>
			<point x="160" y="659" type="curve"/>
			<point x="144" y="545" type="line"/>
			<point x="195" y="574"/>
			<point x="255" y="591"/>
			<point x="310" y="591" type="curve" smooth="yes"/>
			<point x="367" y="591"/>
			<point x="399" y="570"/>
			<point x="391" y="516" type="curve" smooth="yes"/>
			<point x="391" y="513" type="line"/>
			<point x="313" y="503" type="line" smooth="yes"/>
			<point x="168" y="483"/>
			<point x="101" y="428"/>
			<point x="101" y="338" type="curve" smooth="yes"/>
			<point x="101" y="268"/>
			<point x="146" y="224"/>
		</contour>
		<contour>
			<point x="292" y="317" type="curve" smooth="yes"/>
			<point x="259" y="317"/>
			<point x="237" y="335"/>
			<point x="237" y="365" type="curve" smooth="yes"/>
			<point x="237" y="405"/>
			<point x="265" y="424"/>
			<point x="327" y="433" type="curve" smooth="yes"/>
			<point x="382" y="441" type="line"/>
			<point x="376" y="394" type="line" smooth="yes"/>
			<point x="368" y="341"/>
			<point x="335" y="317"/>
		</contour>
	</outline>
	<anchor name="ogonek" x="404" y="235"/>
	<anchor name="top" x="274" y="685"/>
	<anchor name="right" x="408" y="235"/>
	<anchor name="bottom" x="214" y="233"/>
</glyph>
<glyph name="guillemetleft" format="2">
	<unicode hex="00AB"/>
	<advance width="600"/>
	<outline>
		<contour>
			<point x="309" y="77" type="line"/>
			<point x="193" y="287" type="line"/>
			<point x="369" y="497" type="line"/>
			<point x="200" y="497" type="line"/>
			<point x="27" y="287" type="line"/>
			<point x="140" y="77" type="line"/>
		</contour>
		<contour>
			<point x="549" y="77" type="line"/>
			<point x="432" y="285" type="line"/>
			<point x="609" y="497" type="line"/>
			<point x="439" y="497" type="line"/>
			<point x="268" y="287" type="line"/>
			<point x="380" y="77" type="line"/>
		</contour>
	</outline>
</glyph>
<glyph name="logicalnot" format="2">
	<unicode hex="00AC"/>
	<advance width="600"/>
	<outline>
		<contour>
			<point x="506" y="42" type="line"/>
			<point x="550" y="362" type="line"/>
			<point x="76" y="362" type="line"/>
			<point x="57" y="224" type="line"/>
			<point x="380" y="224" type="line"/>
			<point x="356" y="42" type="line"/>
		</contour>
	</outline>
</glyph>
<glyph name="degree" format="2">
	<unicode hex="00B0"/>
	<advance width="600"/>
	<outline>
		<contour>
			<point x="324" y="284" type="curve" smooth="yes"/>
			<point x="446" y="284"/>
			<point x="536" y="383"/>
			<point x="536" y="507" type="curve" smooth="yes"/>
			<point x="536" y="617"/>
			<point x="458" y="697"/>
			<point x="343" y="697" type="curve" smooth="yes"/>
			<point x="219" y="697"/>
			<point x="129" y="604"/>
			<point x="129" y="478" type="curve" smooth="yes"/>
			<point x="129" y="366"/>
			<point x="204" y="284"/>
		</contour>
		<contour>
			<point x="326" y="387" type="curve" smooth="yes"/>
			<point x="271" y="387"/>
			<point x="236" y="429"/>
			<point x="236" y="484" type="curve" smooth="yes"/>
			<point x="236" y="545"/>
			<point x="281" y="593"/>
			<point x="339" y="593" type="curve" smooth="yes"/>
			<point x="396" y="593"/>
			<point x="430" y="553"/>
			<point x="430" y="499" type="curve" smooth="yes"/>
			<point x="430" y="437"/>
			<point x="386" y="387"/>
		</contour>
	</outline>
</glyph>
<glyph name="ordmasculine" format="2">
	<unicode hex="00BA"/>
	<advance width="600"/>
	<outline>
		<contour>
			<point x="311" y="224" type="curve" smooth="yes"/>
			<point x="449" y="224"/>
			<point x="537" y="311"/>
			<point x="555" y="446" type="curve" smooth="yes"/>
			<point x="574" y="597"/>
			<point x="496" y="696"/>
			<point x="346" y="696" type="curve" smooth="yes"/>
			<point x="206" y="696"/>
			<point x="118" y="611"/>
			<point x="100" y="472" type="curve" smooth="yes"/>
			<point x="82" y="325"/>
			<point x="160" y="224"/>
		</contour>
		<contour>
			<point x="315" y="327" type="curve" smooth="yes"/>
			<point x="246" y="327"/>
			<point x="228" y="385"/>
			<point x="242" y="471" type="curve" smooth="yes"/>
			<point x="254" y="551"/>
			<point x="284" y="593"/>
			<point x="341" y="593" type="curve" smooth="yes"/>
			<point x="409" y="593"/>
			<point x="427" y="537"/>
			<point x="414" y="449" type="curve" smooth="yes"/>
			<point x="401" y="371"/>
			<point x="371" y="327"/>
		</contour>
	</outline>
</glyph>
<glyph name="questiondown" format="2">
	<unicode hex="00BF"/>
	<advance width="600"/>
	<outline>
		<contour>
			<point x="358" y="534" type="curve" smooth="yes"/>
			<point x="291" y="534"/>
			<point x="257" y="509"/>
			<point x="248" y="452" type="curve" smooth="yes"/>
			<point x="237" y="379"/>
			<point x="274" y="350"/>
			<point x="343" y="350" type="curve" smooth="yes"/>
			<point x="410" y="350"/>
			<point x="444" y="375"/>
			<point x="452" y="433" type="curve" smooth="yes"/>
			<point x="464" y="505"/>
			<point x="427" y="534"/>
		</contour>
		<contour>
			<point x="402" y="282" type="curve"/>
			<point x="254" y="282" type="line"/>
			<point x="252" y="262" type="line" smooth="yes"/>
			<point x="242" y="180"/>
			<point x="43" y="179"/>
			<point x="43" y="-4" type="curve" smooth="yes"/>
			<point x="43" y="-110"/>
			<point x="123" y="-175"/>
			<point x="262" y="-175" type="curve" smooth="yes"/>
			<point x="347" y="-175"/>
			<point x="407" y="-154"/>
			<point x="454" y="-128" type="curve"/>
			<point x="474" y="18" type="line"/>
			<point x="424" y="-13"/>
			<point x="365" y="-32"/>
			<point x="305" y="-32" type="curve" smooth="yes"/>
			<point x="244" y="-32"/>
			<point x="212" y="-11"/>
			<point x="212" y="26" type="curve" smooth="yes"/>
			<point x="212" y="106"/>
			<point x="401" y="117"/>
			<point x="406" y="249" type="curve" smooth="yes"/>
			<point x="407" y="262"/>
			<point x="405" y="271"/>
		</contour>
	</outline>
</glyph>
<glyph name="multiply" format="2">
	<unicode hex="00D7"/>
	<advance width="600"/>
	<outline>
		<contour>
			<point x="136" y="59" type="line"/>
			<point x="295" y="200" type="line"/>
			<point x="411" y="60" type="line"/>
			<point x="517" y="153" type="line"/>
			<point x="401" y="294" type="line"/>
			<point x="562" y="437" type="line"/>
			<point x="474" y="539" type="line"/>
			<point x="315" y="398" type="line"/>
			<point x="199" y="538" type="line"/>
			<point x="93" y="445" type="line"/>
			<point x="209" y="305" type="line"/>
			<point x="48" y="162" type="line"/>
		</contour>
	</outline>
</glyph>
<glyph name="Oslash" format="2">
	<unicode hex="00D8"/>
	<advance width="600"/>
	<outline>
		<contour>
			<point x="280" y="-14" type="curve" smooth="yes"/>
			<point x="456" y="-14"/>
			<point x="540" y="114"/>
			<point x="568" y="309" type="curve" smooth="yes"/>
			<point x="570" y="323" type="line" smooth="yes"/>
			<point x="585" y="431"/>
			<point x="580" y="517"/>
			<point x="553" y="579" type="curve"/>
			<point x="651" y="708" type="line"/>
			<point x="519" y="708" type="line"/>
			<point x="484" y="663" type="line"/>
			<point x="449" y="686"/>
			<point x="403" y="698"/>
			<point x="346" y="698" type="curve" smooth="yes"/>
			<point x="174" y="698"/>
			<point x="83" y="567"/>
			<point x="55" y="374" type="curve" smooth="yes"/>
			<point x="53" y="360" type="line" smooth="yes"/>
			<point x="38" y="254"/>
			<point x="43" y="170"/>
			<point x="69" y="108" type="curve"/>
			<point x="-31" y="-24" type="line"/>
			<point x="101" y="-24" type="line"/>
			<point x="137" y="23" type="line"/>
			<point x="173" y="-1"/>
			<point x="221" y="-14"/>
		</contour>
		<contour>
			<point x="221" y="347" type="curve" smooth="yes"/>
			<point x="222" y="354" type="line" smooth="yes"/>
			<point x="245" y="512"/>
			<point x="279" y="561"/>
			<point x="338" y="561" type="curve" smooth="yes"/>
			<point x="365" y="561"/>
			<point x="385" y="551"/>
			<point x="397" y="527" type="curve"/>
			<point x="213" y="277" type="line"/>
			<point x="215" y="298"/>
			<point x="217" y="321"/>
		</contour>
		<contour>
			<point x="286" y="123" type="curve" smooth="yes"/>
			<point x="258" y="123"/>
			<point x="237" y="133"/>
			<point x="225" y="159" type="curve"/>
			<point x="409" y="410" type="line"/>
			<point x="408" y="389"/>
			<point x="405" y="365"/>
			<point x="401" y="339" type="curve" smooth="yes"/>
			<point x="400" y="332" type="line" smooth="yes"/>
			<point x="378" y="173"/>
			<point x="345" y="123"/>
		</contour>
	</outline>
</glyph>
<glyph name="Thorn" format="2">
	<unicode hex="00DE"/>
	<advance width="600"/>
	<outline>
		<contour>
			<point x="119" y="688" type="line"/>
			<point x="23" y="0" type="line"/>
			<point x="192" y="0" type="line"/>
			<point x="208" y="109" type="line"/>
			<point x="332" y="109" type="line" smooth="yes"/>
			<point x="483" y="109"/>
			<point x="597" y="209"/>
			<point x="597" y="384" type="curve" smooth="yes"/>
			<point x="597" y="519"/>
			<point x="518" y="599"/>
			<point x="365" y="599" type="curve" smooth="yes"/>
			<point x="276" y="599" type="line"/>
			<point x="289" y="688" type="line"/>
		</contour>
		<contour>
			<point x="331" y="464" type="line" smooth="yes"/>
			<point x="403" y="464"/>
			<point x="427" y="424"/>
			<point x="427" y="368" type="curve" smooth="yes"/>
			<point x="427" y="287"/>
			<point x="386" y="244"/>
			<point x="318" y="244" type="curve" smooth="yes"/>
			<point x="227" y="244" type="line"/>
			<point x="257" y="464" type="line"/>
		</contour>
	</outline>
</glyph>
<glyph name="germandbls" format="2">
	<unicode hex="00DF"/>
	<advance width="600"/>
	<outline>
		<contour>
			<point x="342" y="-9" type="curve" smooth="yes"/>
			<point x="476" y="-9"/>
			<point x="561" y="76"/>
			<point x="561" y="211" type="curve" smooth="yes"/>
			<point x="561" y="302"/>
			<point x="506" y="354"/>
			<point x="415" y="372" type="curve"/>
			<point x="521" y="394"/>
			<point x="584" y="466"/>
			<point x="584" y="579" type="curve" smooth="yes"/>
			<point x="584" y="695"/>
			<point x="500" y="760"/>
			<point x="358" y="760" type="curve" smooth="yes"/>
			<point x="172" y="760"/>
			<point x="99" y="653"/>
			<point x="81" y="527" type="curve" smooth="yes"/>
			<point x="7" y="0" type="line"/>
			<point x="174" y="0" type="line"/>
			<point x="251" y="536" type="line" smooth="yes"/>
			<point x="260" y="599"/>
			<point x="289" y="630"/>
			<point x="346" y="630" type="curve" smooth="yes"/>
			<point x="396" y="630"/>
			<point x="422" y="605"/>
			<point x="422" y="553" type="curve" smooth="yes"/>
			<point x="422" y="485"/>
			<point x="386" y="436"/>
			<point x="331" y="436" type="curve" smooth="yes"/>
			<point x="285" y="436" type="line"/>
			<point x="267" y="302" type="line"/>
			<point x="304" y="302" type="line" smooth="yes"/>
			<point x="367" y="302"/>
			<point x="393" y="272"/>
			<point x="393" y="212" type="curve" smooth="yes"/>
			<point x="393" y="150"/>
			<point x="361" y="112"/>
			<point x="303" y="112" type="curve" smooth="yes"/>
			<point x="281" y="112"/>
			<point x="263" y="117"/>
			<point x="247" y="124" type="curve"/>
			<point x="232" y="11" type="line"/>
			<point x="253" y="0"/>
			<point x="293" y="-9"/>
		</contour>
	</outline>
</glyph>
<glyph name="divide" format="2">
	<unicode hex="00F7"/>
	<advance width="600"/>
	<outline>
		<contour>
			<point x="323" y="426" type="curve" smooth="yes"/>
			<point x="392" y="426"/>
			<point x="431" y="447"/>
			<point x="439" y="502" type="curve" smooth="yes"/>
			<point x="447" y="557"/>
			<point x="413" y="578"/>
			<point x="344" y="578" type="curve" smooth="yes"/>
			<point x="275" y="578"/>
			<point x="237" y="557"/>
			<point x="229" y="502" type="curve" smooth="yes"/>
			<point x="221" y="447"/>
			<point x="253" y="426"/>
		</contour>
		<contour>
			<point x="57" y="224" type="line"/>
			<point x="532" y="224" type="line"/>
			<point x="551" y="362" type="line"/>
			<point x="76" y="362" type="line"/>
		</contour>
		<contour>
			<point x="263" y="7" type="curve" smooth="yes"/>
			<point x="332" y="7"/>
			<point x="371" y="28"/>
			<point x="379" y="84" type="curve" smooth="yes"/>
			<point x="386" y="139"/>
			<point x="354" y="159"/>
			<point x="285" y="159" type="curve" smooth="yes"/>
			<point x="215" y="159"/>
			<point x="176" y="139"/>
			<point x="169" y="84" type="curve" smooth="yes"/>
			<point x="161" y="28"/>
			<point x="194" y="7"/>
		</contour>
	</outline>
</glyph>
<glyph name="dcroat" format="2">
	<unicode hex="0111"/>
	<advance width="600"/>
	<outline>
		<contour>
			<point x="193" y="-14" type="curve" smooth="yes"/>
			<point x="259" y="-14"/>
			<point x="316" y="25"/>
			<point x="361" y="105" type="curve"/>
			<point x="346" y="0" type="line"/>
			<point x="506" y="0" type="line"/>
			<point x="588" y="585" type="line"/>
			<point x="639" y="585" type="line"/>
			<point x="651" y="674" type="line"/>
			<point x="600" y="674" type="line"/>
			<point x="611" y="750" type="line"/>
			<point x="444" y="750" type="line"/>
			<point x="433" y="674" type="line"/>
			<point x="290" y="674" type="line"/>
			<point x="277" y="585" type="line"/>
			<point x="421" y="585" type="line"/>
			<point x="412" y="523" type="line"/>
			<point x="364" y="523" type="line" smooth="yes"/>
			<point x="179" y="523"/>
			<point x="67" y="423"/>
			<point x="43" y="259" type="curve" smooth="yes"/>
			<point x="41" y="245" type="line" smooth="yes"/>
			<point x="18" y="85"/>
			<point x="75" y="-14"/>
		</contour>
		<contour>
			<point x="210" y="252" type="curve" smooth="yes"/>
			<point x="211" y="259" type="line"/>
			<point x="225" y="355"/>
			<point x="270" y="395"/>
			<point x="352" y="395" type="curve" smooth="yes"/>
			<point x="394" y="395" type="line"/>
			<point x="369" y="214" type="line" smooth="yes"/>
			<point x="361" y="150"/>
			<point x="328" y="116"/>
			<point x="279" y="116" type="curve" smooth="yes"/>
			<point x="222" y="116"/>
			<point x="198" y="166"/>
		</contour>
	</outline>
</glyph>
<glyph name="eogonek" format="2">
	<unicode hex="0119"/>
	<advance width="600"/>
	<outline>
		<contour>
			<point x="348" y="-203" type="curve" smooth="yes"/>
			<point x="376" y="-203"/>
			<point x="403" y="-198"/>
			<point x="417" y="-194" type="curve"/>
			<point x="432" y="-93" type="line"/>
			<point x="429" y="-94"/>
			<point x="417" y="-95"/>
			<point x="405" y="-95" type="curve" smooth="yes"/>
			<point x="376" y="-95"/>
			<point x="359" y="-86"/>
			<point x="359" y="-64" type="curve" smooth="yes"/>
			<point x="359" y="-38"/>
			<point x="381" y="-17"/>
			<point x="436" y="0" type="curve"/>
			<point x="435" y="0" type="line"/>
			<point x="459" y="6"/>
			<point x="479" y="13"/>
			<point x="495" y="21" type="curve"/>
			<point x="512" y="146" type="line"/>
			<point x="475" y="132"/>
			<point x="418" y="118"/>
			<point x="362" y="118" type="curve" smooth="yes"/>
			<point x="261" y="118"/>
			<point x="216" y="153"/>
			<point x="210" y="219" type="curve"/>
			<point x="548" y="219" type="line"/>
			<point x="554" y="265" type="line" smooth="yes"/>
			<point x="576" y="432"/>
			<point x="493" y="537"/>
			<point x="328" y="537" type="curve" smooth="yes"/>
			<point x="185" y="537"/>
			<point x="74" y="447"/>
			<point x="52" y="297" type="curve" smooth="yes"/>
			<point x="50" y="283" type="line" smooth="yes"/>
			<point x="27" y="113"/>
			<point x="107" y="-8"/>
			<point x="300" y="-14" type="curve"/>
			<point x="250" y="-38"/>
			<point x="221" y="-71"/>
			<point x="221" y="-119" type="curve" smooth="yes"/>
			<point x="221" y="-174"/>
			<point x="265" y="-203"/>
		</contour>
		<contour>
			<point x="320" y="422" type="curve" smooth="yes"/>
			<point x="375" y="422"/>
			<point x="406" y="387"/>
			<point x="399" y="313" type="curve"/>
			<point x="214" y="313" type="line"/>
			<point x="227" y="381"/>
			<point x="261" y="422"/>
		</contour>
	</outline>
</glyph>
<glyph name="Hbar" format="2">
	<unicode hex="0126"/>
	<advance width="600"/>
	<outline>
		<contour>
			<point x="14" y="0" type="line"/>
			<point x="183" y="0" type="line"/>
			<point x="219" y="254" type="line"/>
			<point x="379" y="254" type="line"/>
			<point x="343" y="0" type="line"/>
			<point x="512" y="0" type="line"/>
			<point x="580" y="484" type="line"/>
			<point x="631" y="484" type="line"/>
			<point x="645" y="580" type="line"/>
			<point x="593" y="580" type="line"/>
			<point x="608" y="684" type="line"/>
			<point x="439" y="684" type="line"/>
			<point x="424" y="580" type="line"/>
			<point x="264" y="580" type="line"/>
			<point x="279" y="684" type="line"/>
			<point x="110" y="684" type="line"/>
			<point x="95" y="580" type="line"/>
			<point x="45" y="580" type="line"/>
			<point x="31" y="484" type="line"/>
			<point x="82" y="484" type="line"/>
		</contour>
		<contour>
			<point x="238" y="394" type="line"/>
			<point x="251" y="484" type="line"/>
			<point x="411" y="484" type="line"/>
			<point x="398" y="394" type="line"/>
		</contour>
	</outline>
	<anchor name="center" x="338" y="539"/>
	<anchor name="bottom" x="303" y="0"/>
	<anchor name="top" x="359" y="684"/>
</glyph>
<glyph name="dotlessi" format="2">
	<unicode hex="0131"/>
	<advance width="600"/>
	<outline>
		<contour>
			<point x="31" y="0" type="line"/>
			<point x="524" y="0" type="line"/>
			<point x="542" y="129" type="line"/>
			<point x="385" y="129" type="line"/>
			<point x="441" y="523" type="line"/>
			<point x="107" y="523" type="line"/>
			<point x="88" y="394" type="line"/>
			<point x="256" y="394" type="line"/>
			<point x="218" y="129" type="line"/>
			<point x="50" y="129" type="line"/>
		</contour>
	</outline>
	<anchor name="ogonek" x="524" y="0"/>
	<anchor name="top" x="357" y="523"/>
</glyph>
<glyph name="IJ" format="2">
	<unicode hex="0132"/>
	<advance width="600"/>
	<outline>
		<contour>
			<point x="233" y="-11" type="curve" smooth="yes"/>
			<point x="397" y="-11"/>
			<point x="501" y="59"/>
			<point x="525" y="226" type="curve" smooth="yes"/>
			<point x="589" y="684" type="line"/>
			<point x="422" y="684" type="line"/>
			<point x="363" y="260" type="line" smooth="yes"/>
			<point x="349" y="160"/>
			<point x="299" y="128"/>
			<point x="211" y="128" type="curve" smooth="yes"/>
			<point x="156" y="128"/>
			<point x="99" y="141"/>
			<point x="57" y="164" type="curve"/>
			<point x="38" y="27" type="line"/>
			<point x="82" y="4"/>
			<point x="148" y="-11"/>
		</contour>
		<contour>
			<point x="68" y="229" type="line"/>
			<point x="232" y="229" type="line"/>
			<point x="295" y="684" type="line"/>
			<point x="131" y="684" type="line"/>
		</contour>
	</outline>
</glyph>
<glyph name="kgreenlandic" format="2">
	<unicode hex="0138"/>
	<advance width="600"/>
	<outline>
		<contour>
			<point x="27" y="0" type="line"/>
			<point x="193" y="0" type="line"/>
			<point x="210" y="119" type="line"/>
			<point x="287" y="209" type="line"/>
			<point x="368" y="0" type="line"/>
			<point x="548" y="0" type="line"/>
			<point x="428" y="305" type="line"/>
			<point x="613" y="525" type="line"/>
			<point x="425" y="525" type="line"/>
			<point x="234" y="288" type="line"/>
			<point x="267" y="524" type="line"/>
			<point x="101" y="524" type="line"/>
		</contour>
	</outline>
</glyph>
<glyph name="lslash" format="2">
	<unicode hex="0142"/>
	<advance width="600"/>
	<outline>
		<contour>
			<point x="23" y="0" type="line"/>
			<point x="515" y="0" type="line"/>
			<point x="533" y="129" type="line"/>
			<point x="377" y="129" type="line"/>
			<point x="408" y="349" type="line"/>
			<point x="554" y="401" type="line"/>
			<point x="569" y="517" type="line"/>
			<point x="425" y="466" type="line"/>
			<point x="465" y="750" type="line"/>
			<point x="131" y="750" type="line"/>
			<point x="112" y="621" type="line"/>
			<point x="280" y="621" type="line"/>
			<point x="249" y="403" type="line"/>
			<point x="99" y="350" type="line"/>
			<point x="83" y="234" type="line"/>
			<point x="232" y="287" type="line"/>
			<point x="209" y="129" type="line"/>
			<point x="42" y="129" type="line"/>
		</contour>
	</outline>
</glyph>
<glyph name="Eng" format="2">
	<unicode hex="014A"/>
	<advance width="600"/>
	<outline>
		<contour>
			<point x="287" y="-206" type="curve" smooth="yes"/>
			<point x="412" y="-206"/>
			<point x="492" y="-151"/>
			<point x="513" y="-5" type="curve" smooth="yes"/>
			<point x="609" y="684" type="line"/>
			<point x="466" y="684" type="line"/>
			<point x="435" y="460" type="line" smooth="yes"/>
			<point x="421" y="358"/>
			<point x="419" y="291"/>
			<point x="418" y="192" type="curve"/>
			<point x="408" y="192" type="line"/>
			<point x="298" y="684" type="line"/>
			<point x="109" y="684" type="line"/>
			<point x="13" y="0" type="line"/>
			<point x="156" y="0" type="line"/>
			<point x="188" y="224" type="line" smooth="yes"/>
			<point x="199" y="309"/>
			<point x="200" y="393"/>
			<point x="202" y="492" type="curve"/>
			<point x="213" y="492" type="line"/>
			<point x="324" y="0" type="line"/>
			<point x="359" y="0" type="line"/>
			<point x="350" y="-71"/>
			<point x="318" y="-85"/>
			<point x="257" y="-85" type="curve" smooth="yes"/>
			<point x="229" y="-85"/>
			<point x="199" y="-79"/>
			<point x="180" y="-73" type="curve"/>
			<point x="163" y="-186" type="line"/>
			<point x="192" y="-197"/>
			<point x="237" y="-206"/>
		</contour>
	</outline>
	<anchor name="top" x="414" y="720"/>
	<anchor name="bottom" x="261" y="0"/>
</glyph>
<glyph name="OE" format="2">
	<unicode hex="0152"/>
	<advance width="600"/>
	<outline>
		<contour>
			<point x="142" y="-13" type="curve" smooth="yes"/>
			<point x="196" y="-13"/>
			<point x="239" y="24"/>
			<point x="275" y="97" type="curve"/>
			<point x="261" y="0" type="line"/>
			<point x="543" y="0" type="line"/>
			<point x="562" y="134" type="line"/>
			<point x="416" y="134" type="line"/>
			<point x="436" y="276" type="line"/>
			<point x="551" y="276" type="line"/>
			<point x="570" y="408" type="line"/>
			<point x="454" y="408" type="line"/>
			<point x="474" y="551" type="line"/>
			<point x="619" y="551" type="line"/>
			<point x="638" y="684" type="line"/>
			<point x="320" y="684" type="line"/>
			<point x="158" y="684"/>
			<point x="74" y="573"/>
			<point x="41" y="339" type="curve" smooth="yes"/>
			<point x="39" y="325" type="line" smooth="yes"/>
			<point x="7" y="106"/>
			<point x="42" y="-13"/>
		</contour>
		<contour>
			<point x="225" y="125" type="curve" smooth="yes"/>
			<point x="178" y="125"/>
			<point x="162" y="184"/>
			<point x="182" y="323" type="curve" smooth="yes"/>
			<point x="183" y="330" type="line" smooth="yes"/>
			<point x="203" y="471"/>
			<point x="227" y="551"/>
			<point x="312" y="551" type="curve" smooth="yes"/>
			<point x="334" y="551" type="line"/>
			<point x="286" y="203" type="line" smooth="yes"/>
			<point x="279" y="153"/>
			<point x="256" y="125"/>
		</contour>
	</outline>
</glyph>
<glyph name="Scedilla" format="2">
	<unicode hex="015E"/>
	<advance width="600"/>
	<outline>
		<contour>
			<point x="232" y="-234" type="curve" smooth="yes"/>
			<point x="321" y="-234"/>
			<point x="369" y="-190"/>
			<point x="370" y="-122" type="curve" smooth="yes"/>
			<point x="370" y="-75"/>
			<point x="343" y="-50"/>
			<point x="293" y="-45" type="curve"/>
			<point x="314" y="-12" type="line"/>
			<point x="465" y="-1"/>
			<point x="553" y="92"/>
			<point x="553" y="232" type="curve" smooth="yes"/>
			<point x="553" y="355"/>
			<point x="482" y="389"/>
			<point x="345" y="422" type="curve" smooth="yes"/>
			<point x="269" y="440"/>
			<point x="242" y="453"/>
			<point x="242" y="493" type="curve" smooth="yes"/>
			<point x="242" y="538"/>
			<point x="274" y="563"/>
			<point x="340" y="563" type="curve" smooth="yes"/>
			<point x="413" y="563"/>
			<point x="514" y="535"/>
			<point x="571" y="493" type="curve"/>
			<point x="592" y="635" type="line"/>
			<point x="545" y="665"/>
			<point x="448" y="698"/>
			<point x="341" y="698" type="curve" smooth="yes"/>
			<point x="166" y="698"/>
			<point x="73" y="602"/>
			<point x="73" y="461" type="curve" smooth="yes"/>
			<point x="73" y="324"/>
			<point x="163" y="292"/>
			<point x="285" y="264" type="curve" smooth="yes"/>
			<point x="349" y="250"/>
			<point x="384" y="243"/>
			<point x="384" y="197" type="curve" smooth="yes"/>
			<point x="384" y="150"/>
			<point x="348" y="124"/>
			<point x="285" y="124" type="curve" smooth="yes"/>
			<point x="206" y="124"/>
			<point x="114" y="157"/>
			<point x="51" y="208" type="curve"/>
			<point x="30" y="63" type="line"/>
			<point x="80" y="26"/>
			<point x="153" y="-2"/>
			<point x="233" y="-10" type="curve"/>
			<point x="184" y="-95" type="line"/>
			<point x="200" y="-93"/>
			<point x="209" y="-92"/>
			<point x="214" y="-92" type="curve" smooth="yes"/>
			<point x="251" y="-92"/>
			<point x="267" y="-102"/>
			<point x="267" y="-123" type="curve" smooth="yes"/>
			<point x="267" y="-146"/>
			<point x="250" y="-158"/>
			<point x="215" y="-158" type="curve" smooth="yes"/>
			<point x="186" y="-158"/>
			<point x="163" y="-150"/>
			<point x="144" y="-141" type="curve"/>
			<point x="135" y="-213" type="line"/>
			<point x="156" y="-224"/>
			<point x="193" y="-234"/>
		</contour>
	</outline>
</glyph>
<glyph name="scedilla" format="2">
	<unicode hex="015F"/>
	<advance width="600"/>
	<outline>
		<contour>
			<point x="227" y="-234" type="curve" smooth="yes"/>
			<point x="316" y="-234"/>
			<point x="364" y="-190"/>
			<point x="365" y="-122" type="curve" smooth="yes"/>
			<point x="365" y="-75"/>
			<point x="338" y="-50"/>
			<point x="288" y="-45" type="curve"/>
			<point x="308" y="-12" type="line"/>
			<point x="443" y="-2"/>
			<point x="515" y="67"/>
			<point x="515" y="187" type="curve" smooth="yes"/>
			<point x="515" y="288"/>
			<point x="432" y="311"/>
			<point x="327" y="332" type="curve" smooth="yes"/>
			<point x="266" y="345"/>
			<point x="245" y="354"/>
			<point x="245" y="380" type="curve" smooth="yes"/>
			<point x="245" y="408"/>
			<point x="272" y="421"/>
			<point x="317" y="421" type="curve" smooth="yes"/>
			<point x="390" y="421"/>
			<point x="476" y="399"/>
			<point x="536" y="363" type="curve"/>
			<point x="554" y="490" type="line"/>
			<point x="498" y="517"/>
			<point x="414" y="537"/>
			<point x="327" y="537" type="curve" smooth="yes"/>
			<point x="162" y="537"/>
			<point x="86" y="456"/>
			<point x="86" y="342" type="curve" smooth="yes"/>
			<point x="86" y="234"/>
			<point x="172" y="207"/>
			<point x="274" y="190" type="curve" smooth="yes"/>
			<point x="339" y="181"/>
			<point x="358" y="172"/>
			<point x="358" y="147" type="curve" smooth="yes"/>
			<point x="358" y="115"/>
			<point x="326" y="103"/>
			<point x="278" y="103" type="curve" smooth="yes"/>
			<point x="210" y="103"/>
			<point x="125" y="126"/>
			<point x="65" y="167" type="curve"/>
			<point x="48" y="42" type="line"/>
			<point x="83" y="16"/>
			<point x="149" y="-6"/>
			<point x="227" y="-12" type="curve"/>
			<point x="179" y="-95" type="line"/>
			<point x="195" y="-93"/>
			<point x="204" y="-92"/>
			<point x="209" y="-92" type="curve" smooth="yes"/>
			<point x="246" y="-92"/>
			<point x="262" y="-102"/>
			<point x="262" y="-123" type="curve" smooth="yes"/>
			<point x="262" y="-146"/>
			<point x="245" y="-158"/>
			<point x="210" y="-158" type="curve" smooth="yes"/>
			<point x="181" y="-158"/>
			<point x="158" y="-150"/>
			<point x="139" y="-141" type="curve"/>
			<point x="130" y="-213" type="line"/>
			<point x="151" y="-224"/>
			<point x="188" y="-234"/>
		</contour>
	</outline>
</glyph>
<glyph name="Uogonek" format="2">
	<unicode hex="0172"/>
	<advance width="600"/>
	<outline>
		<contour>
			<point x="288" y="-203" type="curve" smooth="yes"/>
			<point x="316" y="-203"/>
			<point x="343" y="-198"/>
			<point x="357" y="-194" type="curve"/>
			<point x="372" y="-93" type="line"/>
			<point x="369" y="-94"/>
			<point x="357" y="-95"/>
			<point x="345" y="-95" type="curve" smooth="yes"/>
			<point x="316" y="-95"/>
			<point x="299" y="-86"/>
			<point x="299" y="-64" type="curve" smooth="yes"/>
			<point x="299" y="-38"/>
			<point x="321" y="-17"/>
			<point x="376" y="0" type="curve"/>
			<point x="375" y="0" type="line"/>
			<point x="471" y="29"/>
			<point x="528" y="104"/>
			<point x="546" y="228" type="curve" smooth="yes"/>
			<point x="610" y="684" type="line"/>
			<point x="441" y="684" type="line"/>
			<point x="377" y="228" type="line" smooth="yes"/>
			<point x="368" y="165"/>
			<point x="339" y="126"/>
			<point x="286" y="126" type="curve" smooth="yes"/>
			<point x="231" y="126"/>
			<point x="205" y="166"/>
			<point x="214" y="231" type="curve" smooth="yes"/>
			<point x="278" y="684" type="line"/>
			<point x="108" y="684" type="line"/>
			<point x="46" y="241" type="line" smooth="yes"/>
			<point x="23" y="78"/>
			<point x="99" y="-4"/>
			<point x="242" y="-13" type="curve"/>
			<point x="190" y="-38"/>
			<point x="161" y="-71"/>
			<point x="161" y="-119" type="curve" smooth="yes"/>
			<point x="161" y="-174"/>
			<point x="205" y="-203"/>
		</contour>
	</outline>
</glyph>
<glyph name="caron" format="2">
	<unicode hex="02C7"/>
	<advance width="600"/>
	<outline>
		<contour>
			<point x="568" y="750" type="line"/>
			<point x="421" y="750" type="line"/>
			<point x="354" y="664" type="line"/>
			<point x="310" y="750" type="line"/>
			<point x="170" y="750" type="line"/>
			<point x="259" y="599" type="line"/>
			<point x="439" y="599" type="line"/>
		</contour>
	</outline>
	<anchor name="_top" x="338" y="523"/>
</glyph>
<glyph name="tilde" format="2">
	<unicode hex="02DC"/>
	<advance width="600"/>
	<outline>
		<contour>
			<point x="153" y="603" type="curve"/>
			<point x="262" y="603" type="line"/>
			<point x="267" y="635"/>
			<point x="277" y="655"/>
			<point x="301" y="655" type="curve"/>
			<point x="341" y="655"/>
			<point x="360" y="599"/>
			<point x="433" y="599" type="curve" smooth="yes"/>
			<point x="491" y="599"/>
			<point x="544" y="636"/>
			<point x="563" y="749" type="curve"/>
			<point x="453" y="749" type="line"/>
			<point x="447" y="717"/>
			<point x="437" y="700"/>
			<point x="416" y="700" type="curve" smooth="yes"/>
			<point x="374" y="700"/>
			<point x="344" y="753"/>
			<point x="278" y="753" type="curve" smooth="yes"/>
			<point x="215" y="753"/>
			<point x="170" y="710"/>
		</contour>
	</outline>
	<anchor name="_top" x="337" y="523"/>
</glyph>
<glyph name="quoteleft" format="2">
	<unicode hex="2018"/>
	<advance width="600"/>
	<outline>
		<contour>
			<point x="389" y="438" type="line"/>
			<point x="474" y="750" type="line"/>
			<point x="365" y="750" type="line"/>
			<point x="203" y="438" type="line"/>
		</contour>
	</outline>
</glyph>
<glyph name="quoteright" format="2">
	<unicode hex="2019"/>
	<advance width="600"/>
	<outline>
		<contour>
			<point x="305" y="750" type="line"/>
			<point x="219" y="438" type="line"/>
			<point x="329" y="438" type="line"/>
			<point x="490" y="750" type="line"/>
		</contour>
	</outline>
</glyph>
<glyph name="bullet" format="2">
	<unicode hex="2022"/>
	<advance width="600"/>
	<outline>
		<contour>
			<point x="294" y="123" type="curve" smooth="yes"/>
			<point x="399" y="123"/>
			<point x="445" y="171"/>
			<point x="457" y="282" type="curve" smooth="yes"/>
			<point x="470" y="386"/>
			<point x="432" y="448"/>
			<point x="314" y="448" type="curve" smooth="yes"/>
			<point x="209" y="448"/>
			<point x="161" y="400"/>
			<point x="149" y="290" type="curve" smooth="yes"/>
			<point x="137" y="184"/>
			<point x="176" y="123"/>
		</contour>
	</outline>
</glyph>
<glyph name="perthousand" format="2">
	<unicode hex="2030"/>
	<advance width="600"/>
	<outline>
		<contour>
			<point x="180" y="393" type="curve" smooth="yes"/>
			<point x="267" y="393"/>
			<point x="321" y="445"/>
			<point x="334" y="530" type="curve" smooth="yes"/>
			<point x="350" y="644"/>
			<point x="288" y="691"/>
			<point x="202" y="691" type="curve" smooth="yes"/>
			<point x="115" y="691"/>
			<point x="62" y="639"/>
			<point x="50" y="555" type="curve" smooth="yes"/>
			<point x="33" y="440"/>
			<point x="94" y="393"/>
		</contour>
		<contour>
			<point x="185" y="472" type="curve" smooth="yes"/>
			<point x="150" y="472"/>
			<point x="140" y="497"/>
			<point x="147" y="544" type="curve" smooth="yes"/>
			<point x="153" y="590"/>
			<point x="168" y="613"/>
			<point x="198" y="613" type="curve" smooth="yes"/>
			<point x="232" y="613"/>
			<point x="242" y="587"/>
			<point x="235" y="540" type="curve" smooth="yes"/>
			<point x="229" y="494"/>
			<point x="214" y="472"/>
		</contour>
		<contour>
			<point x="15" y="259" type="line"/>
			<point x="592" y="397" type="line"/>
			<point x="603" y="470" type="line"/>
			<point x="25" y="331" type="line"/>
		</contour>
		<contour>
			<point x="227" y="-7" type="curve" smooth="yes"/>
			<point x="267" y="-7"/>
			<point x="299" y="5"/>
			<point x="325" y="26" type="curve"/>
			<point x="349" y="4"/>
			<point x="382" y="-7"/>
			<point x="420" y="-7" type="curve" smooth="yes"/>
			<point x="506" y="-7"/>
			<point x="560" y="45"/>
			<point x="572" y="130" type="curve" smooth="yes"/>
			<point x="589" y="244"/>
			<point x="529" y="291"/>
			<point x="446" y="291" type="curve" smooth="yes"/>
			<point x="406" y="291"/>
			<point x="373" y="279"/>
			<point x="347" y="258" type="curve"/>
			<point x="324" y="281"/>
			<point x="291" y="291"/>
			<point x="252" y="291" type="curve" smooth="yes"/>
			<point x="166" y="291"/>
			<point x="112" y="239"/>
			<point x="100" y="155" type="curve" smooth="yes"/>
			<point x="83" y="40"/>
			<point x="143" y="-7"/>
		</contour>
		<contour>
			<point x="235" y="72" type="curve" smooth="yes"/>
			<point x="200" y="72"/>
			<point x="190" y="97"/>
			<point x="197" y="144" type="curve" smooth="yes"/>
			<point x="204" y="190"/>
			<point x="218" y="213"/>
			<point x="248" y="213" type="curve" smooth="yes"/>
			<point x="283" y="213"/>
			<point x="292" y="187"/>
			<point x="285" y="140" type="curve" smooth="yes"/>
			<point x="279" y="94"/>
			<point x="265" y="72"/>
		</contour>
		<contour>
			<point x="423" y="72" type="curve" smooth="yes"/>
			<point x="389" y="72"/>
			<point x="379" y="97"/>
			<point x="386" y="144" type="curve" smooth="yes"/>
			<point x="393" y="190"/>
			<point x="407" y="213"/>
			<point x="436" y="213" type="curve" smooth="yes"/>
			<point x="471" y="213"/>
			<point x="481" y="187"/>
			<point x="474" y="140" type="curve" smooth="yes"/>
			<point x="468" y="94"/>
			<point x="453" y="72"/>
		</contour>
	</outline>
</glyph>
<glyph name="fraction" format="2">
	<unicode hex="2044"/>
	<advance width="600"/>
	<outline>
		<contour>
			<point x="389" y="410" type="line"/>
			<point x="513" y="410" type="line"/>
			<point x="642" y="684" type="line"/>
			<point x="493" y="684" type="line"/>
		</contour>
		<contour>
			<point x="-18" y="0" type="line"/>
			<point x="131" y="0" type="line"/>
			<point x="236" y="275" type="line"/>
			<point x="111" y="275" type="line"/>
		</contour>
	</outline>
</glyph>
<glyph name="published" format="2">
	<unicode hex="2117"/>
	<advance width="600"/>
	<outline>
		<contour>
			<point x="302" y="102" type="curve" smooth="yes"/>
			<point x="440" y="102"/>
			<point x="554" y="184"/>
			<point x="576" y="338" type="curve" smooth="yes"/>
			<point x="578" y="352" type="line" smooth="yes"/>
			<point x="605" y="541"/>
			<point x="496" y="657"/>
			<point x="331" y="657" type="curve" smooth="yes"/>
			<point x="193" y="657"/>
			<point x="79" y="576"/>
			<point x="57" y="423" type="curve" smooth="yes"/>
			<point x="55" y="409" type="line" smooth="yes"/>
			<point x="28" y="219"/>
			<point x="139" y="102"/>
		</contour>
		<contour>
			<point x="307" y="170" type="curve" smooth="yes"/>
			<point x="176" y="170"/>
			<point x="105" y="259"/>
			<point x="126" y="408" type="curve" smooth="yes"/>
			<point x="127" y="415" type="line" smooth="yes"/>
			<point x="143" y="528"/>
			<point x="215" y="589"/>
			<point x="326" y="589" type="curve" smooth="yes"/>
			<point x="458" y="589"/>
			<point x="528" y="501"/>
			<point x="507" y="353" type="curve" smooth="yes"/>
			<point x="506" y="346" type="line" smooth="yes"/>
			<point x="490" y="232"/>
			<point x="418" y="170"/>
		</contour>
		<contour>
			<point x="200" y="251" type="line"/>
			<point x="273" y="251" type="line"/>
			<point x="284" y="324" type="line"/>
			<point x="329" y="324" type="line" smooth="yes"/>
			<point x="396" y="324"/>
			<point x="446" y="360"/>
			<point x="446" y="426" type="curve" smooth="yes"/>
			<point x="446" y="479"/>
			<point x="412" y="512"/>
			<point x="340" y="512" type="curve" smooth="yes"/>
			<point x="237" y="512" type="line"/>
		</contour>
		<contour>
			<point x="330" y="457" type="line" smooth="yes"/>
			<point x="359" y="457"/>
			<point x="371" y="443"/>
			<point x="371" y="421" type="curve" smooth="yes"/>
			<point x="371" y="396"/>
			<point x="355" y="379"/>
			<point x="326" y="379" type="curve" smooth="yes"/>
			<point x="292" y="379" type="line"/>
			<point x="303" y="457" type="line"/>
		</contour>
	</outline>
</glyph>
<glyph name="trademark" format="2">
	<unicode hex="2122"/>
	<advance width="600"/>
	<outline>
		<contour>
			<point x="301" y="342" type="line"/>
			<point x="373" y="342" type="line"/>
			<point x="386" y="439" type="line" smooth="yes"/>
			<point x="394" y="498"/>
			<point x="398" y="550"/>
			<point x="399" y="601" type="curve"/>
			<point x="404" y="601" type="line"/>
			<point x="422" y="428" type="line"/>
			<point x="486" y="428" type="line"/>
			<point x="554" y="601" type="line"/>
			<point x="558" y="601" type="line"/>
			<point x="545" y="548"/>
			<point x="535" y="501"/>
			<point x="527" y="440" type="curve" smooth="yes"/>
			<point x="513" y="342" type="line"/>
			<point x="585" y="342" type="line"/>
			<point x="633" y="684" type="line"/>
			<point x="526" y="684" type="line"/>
			<point x="466" y="511" type="line"/>
			<point x="464" y="511" type="line"/>
			<point x="452" y="684" type="line"/>
			<point x="349" y="684" type="line"/>
		</contour>
		<contour>
			<point x="104" y="342" type="line"/>
			<point x="190" y="342" type="line"/>
			<point x="228" y="612" type="line"/>
			<point x="310" y="612" type="line"/>
			<point x="320" y="684" type="line"/>
			<point x="69" y="684" type="line"/>
			<point x="59" y="612" type="line"/>
			<point x="142" y="612" type="line"/>
		</contour>
	</outline>
</glyph>
<glyph name="ohm" format="2">
	<unicode hex="2126"/>
	<advance width="600"/>
	<outline>
		<contour>
			<point x="-3" y="0" type="line"/>
			<point x="244" y="0" type="line"/>
			<point x="262" y="140" type="line"/>
			<point x="226" y="215"/>
			<point x="217" y="310"/>
			<point x="230" y="402" type="curve" smooth="yes"/>
			<point x="231" y="409" type="line" smooth="yes"/>
			<point x="246" y="516"/>
			<point x="280" y="561"/>
			<point x="338" y="561" type="curve" smooth="yes"/>
			<point x="409" y="561"/>
			<point x="427" y="503"/>
			<point x="412" y="393" type="curve" smooth="yes"/>
			<point x="411" y="386" type="line" smooth="yes"/>
			<point x="395" y="274"/>
			<point x="355" y="204"/>
			<point x="303" y="140" type="curve"/>
			<point x="283" y="0" type="line"/>
			<point x="530" y="0" type="line"/>
			<point x="549" y="138" type="line"/>
			<point x="457" y="138" type="line"/>
			<point x="514" y="193"/>
			<point x="566" y="271"/>
			<point x="581" y="382" type="curve" smooth="yes"/>
			<point x="583" y="396" type="line" smooth="yes"/>
			<point x="608" y="573"/>
			<point x="545" y="698"/>
			<point x="347" y="698" type="curve" smooth="yes"/>
			<point x="186" y="698"/>
			<point x="87" y="608"/>
			<point x="62" y="431" type="curve" smooth="yes"/>
			<point x="60" y="417" type="line" smooth="yes"/>
			<point x="42" y="297"/>
			<point x="68" y="201"/>
			<point x="113" y="138" type="curve"/>
			<point x="16" y="138" type="line"/>
		</contour>
	</outline>
</glyph>
<glyph name="arrowleft" format="2">
	<unicode hex="2190"/>
	<advance width="600"/>
	<outline>
		<contour>
			<point x="378" y="118" type="line"/>
			<point x="238" y="278" type="line"/>
			<point x="577" y="278" type="line"/>
			<point x="596" y="410" type="line"/>
			<point x="255" y="410" type="line"/>
			<point x="440" y="569" type="line"/>
			<point x="276" y="569" type="line"/>
			<point x="20" y="344" type="line"/>
			<point x="215" y="118" type="line"/>
		</contour>
	</outline>
</glyph>
<glyph name="arrowup" format="2">
	<unicode hex="2191"/>
	<advance width="600"/>
	<outline>
		<contour>
			<point x="197" y="0" type="line"/>
			<point x="329" y="0" type="line"/>
			<point x="396" y="476" type="line"/>
			<point x="532" y="315" type="line"/>
			<point x="555" y="479" type="line"/>
			<point x="362" y="703" type="line"/>
			<point x="105" y="477" type="line"/>
			<point x="82" y="315" type="line"/>
			<point x="264" y="477" type="line"/>
		</contour>
	</outline>
</glyph>
<glyph name="arrowright" format="2">
	<unicode hex="2192"/>
	<advance width="600"/>
	<outline>
		<contour>
			<point x="245" y="569" type="line"/>
			<point x="386" y="409" type="line"/>
			<point x="47" y="409" type="line"/>
			<point x="28" y="277" type="line"/>
			<point x="367" y="277" type="line"/>
			<point x="184" y="118" type="line"/>
			<point x="347" y="118" type="line"/>
			<point x="604" y="343" type="line"/>
			<point x="409" y="569" type="line"/>
		</contour>
	</outline>
</glyph>
<glyph name="uni2196" format="2">
	<unicode hex="2196"/>
	<advance width="600"/>
	<outline>
		<contour>
			<point x="467" y="62" type="line"/>
			<point x="566" y="149" type="line"/>
			<point x="266" y="495" type="line"/>
			<point x="504" y="494" type="line"/>
			<point x="405" y="610" type="line"/>
			<point x="83" y="610" type="line"/>
			<point x="37" y="285" type="line"/>
			<point x="135" y="170" type="line"/>
			<point x="166" y="411" type="line"/>
		</contour>
	</outline>
</glyph>
<glyph name="uni2197" format="2">
	<unicode hex="2197"/>
	<advance width="600"/>
	<outline>
		<contour>
			<point x="90" y="62" type="line"/>
			<point x="470" y="398" type="line"/>
			<point x="437" y="172" type="line"/>
			<point x="570" y="287" type="line"/>
			<point x="615" y="610" type="line"/>
			<point x="290" y="610" type="line"/>
			<point x="159" y="495" type="line"/>
			<point x="387" y="498" type="line"/>
			<point x="5" y="161" type="line"/>
		</contour>
	</outline>
</glyph>
<glyph name="uni2198" format="2">
	<unicode hex="2198"/>
	<advance width="600"/>
	<outline>
		<contour>
			<point x="216" y="63" type="line"/>
			<point x="539" y="63" type="line"/>
			<point x="585" y="388" type="line"/>
			<point x="487" y="503" type="line"/>
			<point x="455" y="263" type="line"/>
			<point x="154" y="612" type="line"/>
			<point x="56" y="524" type="line"/>
			<point x="355" y="178" type="line"/>
			<point x="117" y="179" type="line"/>
		</contour>
	</outline>
</glyph>
<glyph name="minus" format="2">
	<unicode hex="2212"/>
	<advance width="600"/>
	<outline>
		<contour>
			<point x="57" y="224" type="line"/>
			<point x="532" y="224" type="line"/>
			<point x="551" y="362" type="line"/>
			<point x="77" y="362" type="line"/>
		</contour>
	</outline>
</glyph>
<glyph name="lessequal" format="2">
	<unicode hex="2264"/>
	<advance width="600"/>
	<outline>
		<contour>
			<point x="524" y="174" type="line"/>
			<point x="545" y="318" type="line"/>
			<point x="218" y="434" type="line"/>
			<point x="578" y="547" type="line"/>
			<point x="598" y="697" type="line"/>
			<point x="100" y="528" type="line"/>
			<point x="74" y="345" type="line"/>
		</contour>
		<contour>
			<point x="25" y="0" type="line"/>
			<point x="500" y="0" type="line"/>
			<point x="519" y="138" type="line"/>
			<point x="45" y="138" type="line"/>
		</contour>
	</outline>
</glyph>
<glyph name="greaterequal" format="2">
	<unicode hex="2265"/>
	<advance width="600"/>
	<outline>
		<contour>
			<point x="50" y="174" type="line"/>
			<point x="549" y="345" type="line"/>
			<point x="575" y="528" type="line"/>
			<point x="125" y="698" type="line"/>
			<point x="104" y="553" type="line"/>
			<point x="429" y="440" type="line"/>
			<point x="71" y="324" type="line"/>
		</contour>
		<contour>
			<point x="25" y="0" type="line"/>
			<point x="500" y="0" type="line"/>
			<point x="519" y="138" type="line"/>
			<point x="45" y="138" type="line"/>
		</contour>
	</outline>
</glyph>
<glyph name="anglebracketright" format="2">
	<unicode hex="3009"/>
	<advance width="600"/>
	<outline>
		<contour>
			<point x="-19" y="-163" type="line"/>
			<point x="164" y="-163" type="line"/>
			<point x="497" y="314" type="line"/>
			<point x="290" y="792" type="line"/>
			<point x="123" y="792" type="line"/>
			<point x="324" y="328" type="line"/>
		</contour>
	</outline>
</glyph>
<glyph name="a.ss01" format="2">
	<advance width="600"/>
	<outline>
		<contour>
			<point x="193" y="-14" type="curve" smooth="yes"/>
			<point x="259" y="-14"/>
			<point x="316" y="25"/>
			<point x="361" y="105" type="curve"/>
			<point x="346" y="0" type="line"/>
			<point x="506" y="0" type="line"/>
			<point x="579" y="523" type="line"/>
			<point x="364" y="523" type="line" smooth="yes"/>
			<point x="179" y="523"/>
			<point x="67" y="423"/>
			<point x="43" y="259" type="curve" smooth="yes"/>
			<point x="41" y="245" type="line" smooth="yes"/>
			<point x="18" y="85"/>
			<point x="75" y="-14"/>
		</contour>
		<contour>
			<point x="210" y="252" type="curve" smooth="yes"/>
			<point x="211" y="259" type="line"/>
			<point x="225" y="355"/>
			<point x="270" y="395"/>
			<point x="352" y="395" type="curve" smooth="yes"/>
			<point x="394" y="395" type="line"/>
			<point x="369" y="214" type="line" smooth="yes"/>
			<point x="361" y="150"/>
			<point x="328" y="116"/>
			<point x="279" y="116" type="curve" smooth="yes"/>
			<point x="222" y="116"/>
			<point x="198" y="166"/>
		</contour>
	</outline>
	<anchor name="ogonek" x="506" y="0"/>
	<anchor name="bottom" x="266" y="-3"/>
	<anchor name="top" x="365" y="523"/>
</glyph>
<glyph name="acute.cap" format="2">
	<advance width="600"/>
	<outline>
		<contour>
			<point x="253" y="743" type="line"/>
			<point x="376" y="743" type="line"/>
			<point x="502" y="884" type="line"/>
			<point x="322" y="884" type="line"/>
		</contour>
	</outline>
	<anchor name="_top" x="307" y="684"/>
</glyph>
<glyph name="ampersand_ampersand.cLig" format="2">
	<advance width="600"/>
	<outline>
		<contour>
			<point x="-327" y="-14" type="curve" smooth="yes"/>
			<point x="-247" y="-14"/>
			<point x="-173" y="18"/>
			<point x="-118" y="71" type="curve"/>
			<point x="-84" y="19"/>
			<point x="-22" y="-14"/>
			<point x="60" y="-14" type="curve" smooth="yes"/>
			<point x="140" y="-14"/>
			<point x="209" y="12"/>
			<point x="266" y="56" type="curve"/>
			<point x="309" y="0" type="line"/>
			<point x="491" y="0" type="line"/>
			<point x="366" y="165" type="line"/>
			<point x="412" y="234"/>
			<point x="447" y="318"/>
			<point x="472" y="409" type="curve"/>
			<point x="335" y="409" type="line"/>
			<point x="321" y="358"/>
			<point x="305" y="311"/>
			<point x="285" y="271" type="curve"/>
			<point x="189" y="397" type="line" smooth="yes"/>
			<point x="160" y="435"/>
			<point x="152" y="464"/>
			<point x="155" y="493" type="curve" smooth="yes"/>
			<point x="160" y="537"/>
			<point x="191" y="565"/>
			<point x="242" y="565" type="curve" smooth="yes"/>
			<point x="285" y="565"/>
			<point x="323" y="543"/>
			<point x="354" y="520" type="curve"/>
			<point x="373" y="659" type="line"/>
			<point x="344" y="681"/>
			<point x="294" y="698"/>
			<point x="237" y="698" type="curve" smooth="yes"/>
			<point x="94" y="698"/>
			<point x="15" y="616"/>
			<point x="3" y="510" type="curve" smooth="yes"/>
			<point x="-1" y="473"/>
			<point x="2" y="440"/>
			<point x="12" y="408" type="curve"/>
			<point x="-45" y="379"/>
			<point x="-90" y="339"/>
			<point x="-118" y="286" type="curve"/>
			<point x="-206" y="397" type="line" smooth="yes"/>
			<point x="-235" y="434"/>
			<point x="-243" y="464"/>
			<point x="-239" y="493" type="curve" smooth="yes"/>
			<point x="-235" y="537"/>
			<point x="-204" y="565"/>
			<point x="-156" y="565" type="curve" smooth="yes"/>
			<point x="-111" y="565"/>
			<point x="-74" y="543"/>
			<point x="-44" y="521" type="curve"/>
			<point x="-25" y="660" type="line"/>
			<point x="-53" y="681"/>
			<point x="-101" y="698"/>
			<point x="-162" y="698" type="curve" smooth="yes"/>
			<point x="-301" y="698"/>
			<point x="-380" y="616"/>
			<point x="-392" y="510" type="curve" smooth="yes"/>
			<point x="-396" y="472"/>
			<point x="-393" y="436"/>
			<point x="-382" y="403" type="curve"/>
			<point x="-465" y="362"/>
			<point x="-523" y="294"/>
			<point x="-534" y="195" type="curve" smooth="yes"/>
			<point x="-547" y="76"/>
			<point x="-467" y="-14"/>
		</contour>
		<contour>
			<point x="-1" y="207" type="curve" smooth="yes"/>
			<point x="3" y="252"/>
			<point x="30" y="288"/>
			<point x="70" y="307" type="curve"/>
			<point x="194" y="148" type="line"/>
			<point x="165" y="125"/>
			<point x="132" y="112"/>
			<point x="96" y="112" type="curve" smooth="yes"/>
			<point x="27" y="112"/>
			<point x="-7" y="151"/>
		</contour>
		<contour>
			<point x="-390" y="207" type="curve" smooth="yes"/>
			<point x="-387" y="251"/>
			<point x="-360" y="286"/>
			<point x="-322" y="305" type="curve"/>
			<point x="-195" y="156" type="line"/>
			<point x="-226" y="127"/>
			<point x="-261" y="112"/>
			<point x="-298" y="112" type="curve" smooth="yes"/>
			<point x="-365" y="112"/>
			<point x="-396" y="151"/>
		</contour>
	</outline>
</glyph>
<glyph name="ampersand_ampersand_ampersand.rem" format="2">
	<advance width="600"/>
	<outline>
		<contour>
			<point x="-845" y="-14" type="curve" smooth="yes"/>
			<point x="-761" y="-14"/>
			<point x="-683" y="20"/>
			<point x="-626" y="76" type="curve"/>
			<point x="-592" y="21"/>
			<point x="-526" y="-14"/>
			<point x="-435" y="-14" type="curve" smooth="yes"/>
			<point x="-351" y="-14"/>
			<point x="-273" y="18"/>
			<point x="-216" y="73" type="curve"/>
			<point x="-181" y="20"/>
			<point x="-116" y="-14"/>
			<point x="-29" y="-14" type="curve" smooth="yes"/>
			<point x="56" y="-14"/>
			<point x="128" y="13"/>
			<point x="189" y="58" type="curve"/>
			<point x="237" y="0" type="line"/>
			<point x="419" y="0" type="line"/>
			<point x="289" y="163" type="line"/>
			<point x="338" y="232"/>
			<point x="374" y="317"/>
			<point x="400" y="409" type="curve"/>
			<point x="263" y="409" type="line"/>
			<point x="248" y="355"/>
			<point x="229" y="306"/>
			<point x="207" y="264" type="curve"/>
			<point x="101" y="397" type="line" smooth="yes"/>
			<point x="69" y="437"/>
			<point x="61" y="463"/>
			<point x="64" y="492" type="curve" smooth="yes"/>
			<point x="68" y="536"/>
			<point x="102" y="565"/>
			<point x="154" y="565" type="curve" smooth="yes"/>
			<point x="197" y="565"/>
			<point x="235" y="543"/>
			<point x="266" y="520" type="curve"/>
			<point x="285" y="659" type="line"/>
			<point x="256" y="681"/>
			<point x="205" y="698"/>
			<point x="148" y="698" type="curve" smooth="yes"/>
			<point x="5" y="698"/>
			<point x="-76" y="615"/>
			<point x="-88" y="509" type="curve" smooth="yes"/>
			<point x="-92" y="474"/>
			<point x="-89" y="441"/>
			<point x="-79" y="410" type="curve"/>
			<point x="-138" y="383"/>
			<point x="-187" y="339"/>
			<point x="-215" y="283" type="curve"/>
			<point x="-314" y="397" type="line" smooth="yes"/>
			<point x="-343" y="431"/>
			<point x="-350" y="463"/>
			<point x="-347" y="492" type="curve" smooth="yes"/>
			<point x="-343" y="536"/>
			<point x="-309" y="565"/>
			<point x="-262" y="565" type="curve" smooth="yes"/>
			<point x="-216" y="565"/>
			<point x="-180" y="543"/>
			<point x="-150" y="521" type="curve"/>
			<point x="-130" y="660" type="line"/>
			<point x="-158" y="681"/>
			<point x="-206" y="698"/>
			<point x="-268" y="698" type="curve" smooth="yes"/>
			<point x="-406" y="698"/>
			<point x="-488" y="615"/>
			<point x="-500" y="509" type="curve" smooth="yes"/>
			<point x="-504" y="473"/>
			<point x="-501" y="438"/>
			<point x="-491" y="406" type="curve"/>
			<point x="-551" y="378"/>
			<point x="-599" y="334"/>
			<point x="-627" y="276" type="curve"/>
			<point x="-730" y="397" type="line" smooth="yes"/>
			<point x="-760" y="433"/>
			<point x="-768" y="464"/>
			<point x="-764" y="493" type="curve" smooth="yes"/>
			<point x="-760" y="537"/>
			<point x="-727" y="565"/>
			<point x="-680" y="565" type="curve" smooth="yes"/>
			<point x="-634" y="565"/>
			<point x="-598" y="543"/>
			<point x="-568" y="521" type="curve"/>
			<point x="-540" y="660" type="line"/>
			<point x="-568" y="681"/>
			<point x="-624" y="698"/>
			<point x="-686" y="698" type="curve" smooth="yes"/>
			<point x="-824" y="698"/>
			<point x="-905" y="616"/>
			<point x="-917" y="510" type="curve" smooth="yes"/>
			<point x="-921" y="472"/>
			<point x="-918" y="436"/>
			<point x="-907" y="403" type="curve"/>
			<point x="-991" y="361"/>
			<point x="-1049" y="293"/>
			<point x="-1060" y="194" type="curve" smooth="yes"/>
			<point x="-1073" y="76"/>
			<point x="-985" y="-14"/>
		</contour>
		<contour>
			<point x="-99" y="205" type="curve" smooth="yes"/>
			<point x="-95" y="251"/>
			<point x="-66" y="288"/>
			<point x="-17" y="307" type="curve"/>
			<point x="114" y="149" type="line"/>
			<point x="82" y="125"/>
			<point x="46" y="112"/>
			<point x="7" y="112" type="curve" smooth="yes"/>
			<point x="-68" y="112"/>
			<point x="-104" y="150"/>
		</contour>
		<contour>
			<point x="-917" y="206" type="curve" smooth="yes"/>
			<point x="-913" y="250"/>
			<point x="-885" y="287"/>
			<point x="-845" y="305" type="curve"/>
			<point x="-708" y="155" type="line"/>
			<point x="-740" y="127"/>
			<point x="-777" y="112"/>
			<point x="-817" y="112" type="curve" smooth="yes"/>
			<point x="-883" y="112"/>
			<point x="-922" y="151"/>
		</contour>
		<contour>
			<point x="-507" y="206" type="curve" smooth="yes"/>
			<point x="-503" y="250"/>
			<point x="-476" y="286"/>
			<point x="-429" y="305" type="curve"/>
			<point x="-295" y="156" type="line"/>
			<point x="-328" y="127"/>
			<point x="-366" y="112"/>
			<point x="-407" y="112" type="curve" smooth="yes"/>
			<point x="-478" y="112"/>
			<point x="-512" y="151"/>
		</contour>
	</outline>
</glyph>
<glyph name="asciitilde_asciitilde_asciitilde.rem" format="2">
	<advance width="600"/>
	<outline>
		<contour>
			<point x="-581" y="178" type="curve"/>
			<point x="-477" y="178"/>
			<point x="-443" y="298"/>
			<point x="-373" y="298" type="curve" smooth="yes"/>
			<point x="-298" y="298"/>
			<point x="-284" y="178"/>
			<point x="-170" y="178" type="curve" smooth="yes"/>
			<point x="-62" y="178"/>
			<point x="-29" y="298"/>
			<point x="39" y="298" type="curve"/>
			<point x="116" y="298"/>
			<point x="132" y="178"/>
			<point x="255" y="178" type="curve"/>
			<point x="351" y="178"/>
			<point x="449" y="263"/>
			<point x="484" y="443" type="curve"/>
			<point x="353" y="443" type="line"/>
			<point x="334" y="378"/>
			<point x="301" y="334"/>
			<point x="249" y="334" type="curve"/>
			<point x="175" y="334"/>
			<point x="177" y="451"/>
			<point x="54" y="451" type="curve"/>
			<point x="-60" y="451"/>
			<point x="-93" y="335"/>
			<point x="-157" y="335" type="curve" smooth="yes"/>
			<point x="-234" y="335"/>
			<point x="-228" y="451"/>
			<point x="-358" y="451" type="curve" smooth="yes"/>
			<point x="-474" y="451"/>
			<point x="-504" y="335"/>
			<point x="-566" y="335" type="curve"/>
			<point x="-644" y="335"/>
			<point x="-658" y="451"/>
			<point x="-775" y="451" type="curve"/>
			<point x="-881" y="451"/>
			<point x="-975" y="370"/>
			<point x="-1010" y="187" type="curve"/>
			<point x="-876" y="187" type="line"/>
			<point x="-858" y="258"/>
			<point x="-832" y="298"/>
			<point x="-781" y="298" type="curve"/>
			<point x="-702" y="298"/>
			<point x="-698" y="178"/>
		</contour>
	</outline>
</glyph>
<glyph name="asciitilde_equal.cLig.x" format="2">
	<advance width="600"/>
	<outline>
		<contour>
			<point x="-315" y="301" type="line"/>
			<point x="-266" y="357"/>
			<point x="-201" y="383"/>
			<point x="-138" y="383" type="curve" smooth="yes"/>
			<point x="-33" y="383"/>
			<point x="26" y="299"/>
			<point x="167" y="299" type="curve" smooth="yes"/>
			<point x="240" y="299"/>
			<point x="299" y="328"/>
			<point x="335" y="372" type="curve"/>
			<point x="356" y="522" type="line"/>
			<point x="295" y="455"/>
			<point x="247" y="439"/>
			<point x="178" y="440" type="curve" smooth="yes"/>
			<point x="81" y="442"/>
			<point x="4" y="524"/>
			<point x="-120" y="524" type="curve" smooth="yes"/>
			<point x="-187" y="524"/>
			<point x="-258" y="495"/>
			<point x="-294" y="452" type="curve"/>
		</contour>
		<contour>
			<point x="-343" y="101" type="line"/>
			<point x="297" y="101" type="line"/>
			<point x="317" y="241" type="line"/>
			<point x="-323" y="241" type="line"/>
		</contour>
	</outline>
</glyph>
<glyph name="asterisk_asterisk.cLig" format="2">
	<advance width="600"/>
	<outline>
		<contour>
			<point x="-116" y="129" type="line"/>
			<point x="-18" y="265" type="line"/>
			<point x="-192" y="321" type="line"/>
			<point x="-1" y="377" type="line"/>
			<point x="-61" y="514" type="line"/>
			<point x="-219" y="385" type="line"/>
			<point x="-151" y="570" type="line"/>
			<point x="-308" y="570" type="line"/>
			<point x="-291" y="383" type="line"/>
			<point x="-414" y="514" type="line"/>
			<point x="-512" y="378" type="line"/>
			<point x="-337" y="321" type="line"/>
			<point x="-528" y="266" type="line"/>
			<point x="-468" y="129" type="line"/>
			<point x="-308" y="260" type="line"/>
			<point x="-378" y="72" type="line"/>
			<point x="-221" y="72" type="line"/>
			<point x="-237" y="258" type="line"/>
		</contour>
		<contour>
			<point x="431" y="128" type="line"/>
			<point x="529" y="264" type="line"/>
			<point x="355" y="320" type="line"/>
			<point x="546" y="376" type="line"/>
			<point x="486" y="513" type="line"/>
			<point x="328" y="384" type="line"/>
			<point x="396" y="569" type="line"/>
			<point x="239" y="569" type="line"/>
			<point x="256" y="382" type="line"/>
			<point x="133" y="513" type="line"/>
			<point x="35" y="377" type="line"/>
			<point x="210" y="320" type="line"/>
			<point x="19" y="265" type="line"/>
			<point x="79" y="128" type="line"/>
			<point x="239" y="259" type="line"/>
			<point x="169" y="71" type="line"/>
			<point x="326" y="71" type="line"/>
			<point x="310" y="257" type="line"/>
		</contour>
	</outline>
</glyph>
<glyph name="asterisk_asterisk_asterisk.cLig" format="2">
	<advance width="600"/>
	<outline>
		<contour>
			<point x="-696" y="57" type="line"/>
			<point x="-598" y="193" type="line"/>
			<point x="-772" y="249" type="line"/>
			<point x="-581" y="305" type="line"/>
			<point x="-641" y="442" type="line"/>
			<point x="-799" y="313" type="line"/>
			<point x="-731" y="498" type="line"/>
			<point x="-888" y="498" type="line"/>
			<point x="-871" y="311" type="line"/>
			<point x="-994" y="442" type="line"/>
			<point x="-1092" y="306" type="line"/>
			<point x="-917" y="249" type="line"/>
			<point x="-1108" y="194" type="line"/>
			<point x="-1048" y="57" type="line"/>
			<point x="-888" y="188" type="line"/>
			<point x="-958" y="0" type="line"/>
			<point x="-801" y="0" type="line"/>
			<point x="-817" y="186" type="line"/>
		</contour>
		<contour>
			<point x="-139" y="242" type="line"/>
			<point x="-41" y="378" type="line"/>
			<point x="-215" y="434" type="line"/>
			<point x="-24" y="490" type="line"/>
			<point x="-84" y="627" type="line"/>
			<point x="-242" y="498" type="line"/>
			<point x="-174" y="683" type="line"/>
			<point x="-331" y="683" type="line"/>
			<point x="-314" y="496" type="line"/>
			<point x="-437" y="627" type="line"/>
			<point x="-535" y="491" type="line"/>
			<point x="-360" y="434" type="line"/>
			<point x="-551" y="379" type="line"/>
			<point x="-491" y="242" type="line"/>
			<point x="-331" y="373" type="line"/>
			<point x="-401" y="185" type="line"/>
			<point x="-244" y="185" type="line"/>
			<point x="-260" y="371" type="line"/>
		</contour>
		<contour>
			<point x="407" y="56" type="line"/>
			<point x="505" y="192" type="line"/>
			<point x="331" y="248" type="line"/>
			<point x="522" y="304" type="line"/>
			<point x="462" y="441" type="line"/>
			<point x="304" y="312" type="line"/>
			<point x="372" y="497" type="line"/>
			<point x="215" y="497" type="line"/>
			<point x="232" y="310" type="line"/>
			<point x="109" y="441" type="line"/>
			<point x="11" y="305" type="line"/>
			<point x="186" y="248" type="line"/>
			<point x="-5" y="193" type="line"/>
			<point x="55" y="56" type="line"/>
			<point x="215" y="187" type="line"/>
			<point x="145" y="-1" type="line"/>
			<point x="302" y="-1" type="line"/>
			<point x="286" y="185" type="line"/>
		</contour>
	</outline>
</glyph>
<glyph name="asterisk_greater.cLig" format="2">
	<advance width="600"/>
	<outline>
		<contour>
			<point x="101" y="642" type="line"/>
			<point x="78" y="487" type="line"/>
			<point x="388" y="319" type="line"/>
			<point x="32" y="157" type="line"/>
			<point x="8" y="-12" type="line"/>
			<point x="492" y="223" type="line"/>
			<point x="518" y="408" type="line"/>
		</contour>
		<contour>
			<point x="-394" y="502" type="line"/>
			<point x="-492" y="366" type="line"/>
			<point x="-319" y="310" type="line"/>
			<point x="-509" y="254" type="line"/>
			<point x="-449" y="117" type="line"/>
			<point x="-292" y="246" type="line"/>
			<point x="-359" y="61" type="line"/>
			<point x="-202" y="61" type="line"/>
			<point x="-219" y="248" type="line"/>
			<point x="-96" y="117" type="line"/>
			<point x="2" y="253" type="line"/>
			<point x="-173" y="310" type="line"/>
			<point x="18" y="365" type="line"/>
			<point x="-42" y="502" type="line"/>
			<point x="-202" y="371" type="line"/>
			<point x="-132" y="559" type="line"/>
			<point x="-289" y="559" type="line"/>
			<point x="-274" y="373" type="line"/>
		</contour>
	</outline>
</glyph>
<glyph name="backslash_backslash_backslash.rem" format="2">
	<advance width="600"/>
	<outline>
		<contour>
			<point x="-768" y="-163" type="line"/>
			<point x="-610" y="-163" type="line"/>
			<point x="-817" y="792" type="line"/>
			<point x="-975" y="792" type="line"/>
		</contour>
		<contour>
			<point x="-268" y="-163" type="line"/>
			<point x="-110" y="-163" type="line"/>
			<point x="-317" y="792" type="line"/>
			<point x="-475" y="792" type="line"/>
		</contour>
		<contour>
			<point x="232" y="-163" type="line"/>
			<point x="390" y="-163" type="line"/>
			<point x="183" y="792" type="line"/>
			<point x="25" y="792" type="line"/>
		</contour>
	</outline>
</glyph>
<glyph name="bar_bar.cLig" format="2">
	<advance width="600"/>
	<outline>
		<contour>
			<point x="-243" y="793" type="line"/>
			<point x="-377" y="-162" type="line"/>
			<point x="-222" y="-162" type="line"/>
			<point x="-88" y="793" type="line"/>
		</contour>
		<contour>
			<point x="237" y="793" type="line"/>
			<point x="103" y="-162" type="line"/>
			<point x="258" y="-162" type="line"/>
			<point x="392" y="793" type="line"/>
		</contour>
	</outline>
</glyph>
<glyph name="bar_bar_bar.cLig" format="2">
	<advance width="600"/>
	<outline>
		<contour>
			<point x="197" y="792" type="line"/>
			<point x="63" y="-163" type="line"/>
			<point x="218" y="-163" type="line"/>
			<point x="352" y="792" type="line"/>
		</contour>
		<contour>
			<point x="-803" y="792" type="line"/>
			<point x="-937" y="-163" type="line"/>
			<point x="-782" y="-163" type="line"/>
			<point x="-648" y="792" type="line"/>
		</contour>
		<contour>
			<point x="-303" y="792" type="line"/>
			<point x="-437" y="-163" type="line"/>
			<point x="-282" y="-163" type="line"/>
			<point x="-148" y="792" type="line"/>
		</contour>
	</outline>
</glyph>
<glyph name="bar_bar_equal.init" format="2">
	<advance width="600"/>
	<outline>
		<contour>
			<point x="-328" y="684" type="line"/>
			<point x="-432" y="-55" type="line"/>
			<point x="-276" y="-55" type="line"/>
			<point x="-172" y="684" type="line"/>
		</contour>
		<contour>
			<point x="52" y="684" type="line"/>
			<point x="-52" y="-55" type="line"/>
			<point x="104" y="-55" type="line"/>
			<point x="130" y="131" type="line"/>
			<point x="582" y="131" type="line"/>
			<point x="602" y="270" type="line"/>
			<point x="150" y="270" type="line"/>
			<point x="162" y="359" type="line"/>
			<point x="614" y="359" type="line"/>
			<point x="634" y="498" type="line"/>
			<point x="182" y="498" type="line"/>
			<point x="208" y="684" type="line"/>
		</contour>
	</outline>
</glyph>
<glyph name="bar_bar_greater.cLig" format="2">
	<advance width="600"/>
	<outline>
		<contour>
			<point x="-820" y="708" type="line"/>
			<point x="-930" y="-79" type="line"/>
			<point x="-773" y="-79" type="line"/>
			<point x="-663" y="708" type="line"/>
		</contour>
		<contour>
			<point x="-370" y="-79" type="line"/>
			<point x="-213" y="-79" type="line"/>
			<point x="343" y="222" type="line"/>
			<point x="368" y="407" type="line"/>
			<point x="-103" y="708" type="line"/>
			<point x="-260" y="708" type="line"/>
		</contour>
		<contour>
			<point x="-130" y="542" type="line"/>
			<point x="223" y="323" type="line"/>
			<point x="-191" y="104" type="line"/>
		</contour>
	</outline>
</glyph>
<glyph name="bar_bar_hyphen.fina" format="2">
	<advance width="600"/>
	<outline>
		<contour>
			<point x="187" y="-55" type="line"/>
			<point x="343" y="-55" type="line"/>
			<point x="447" y="684" type="line"/>
			<point x="291" y="684" type="line"/>
		</contour>
		<contour>
			<point x="-603" y="239" type="line"/>
			<point x="-152" y="239" type="line"/>
			<point x="-193" y="-55" type="line"/>
			<point x="-37" y="-55" type="line"/>
			<point x="67" y="684" type="line"/>
			<point x="-89" y="684" type="line"/>
			<point x="-131" y="389" type="line"/>
			<point x="-582" y="389" type="line"/>
		</contour>
	</outline>
</glyph>
<glyph name="bar_bar_hyphen.init" format="2">
	<advance width="600"/>
	<outline>
		<contour>
			<point x="-53" y="-55" type="line"/>
			<point x="103" y="-55" type="line"/>
			<point x="145" y="239" type="line"/>
			<point x="597" y="239" type="line"/>
			<point x="618" y="389" type="line"/>
			<point x="166" y="389" type="line"/>
			<point x="207" y="684" type="line"/>
			<point x="51" y="684" type="line"/>
		</contour>
		<contour>
			<point x="-433" y="-55" type="line"/>
			<point x="-277" y="-55" type="line"/>
			<point x="-173" y="684" type="line"/>
			<point x="-329" y="684" type="line"/>
		</contour>
	</outline>
</glyph>
<glyph name="bar_bar_hyphen.rem" format="2">
	<advance width="600"/>
	<outline>
		<contour>
			<point x="-653" y="-55" type="line"/>
			<point x="-497" y="-55" type="line"/>
			<point x="-455" y="239" type="line"/>
			<point x="441" y="239" type="line"/>
			<point x="462" y="389" type="line"/>
			<point x="-434" y="389" type="line"/>
			<point x="-393" y="684" type="line"/>
			<point x="-549" y="684" type="line"/>
		</contour>
		<contour>
			<point x="-1034" y="-55" type="line"/>
			<point x="-878" y="-55" type="line"/>
			<point x="-774" y="684" type="line"/>
			<point x="-930" y="684" type="line"/>
		</contour>
	</outline>
</glyph>
<glyph name="bar_bracketright.cLig" format="2">
	<advance width="600"/>
	<outline>
		<contour>
			<point x="-134" y="-163" type="line"/>
			<point x="330" y="-163" type="line"/>
			<point x="464" y="792" type="line"/>
			<point x="0" y="792" type="line"/>
			<point x="-17" y="672" type="line"/>
			<point x="290" y="672" type="line"/>
			<point x="189" y="-44" type="line"/>
			<point x="-118" y="-44" type="line"/>
		</contour>
		<contour>
			<point x="-287" y="-163" type="line"/>
			<point x="-153" y="792" type="line"/>
			<point x="-308" y="792" type="line"/>
			<point x="-442" y="-163" type="line"/>
		</contour>
	</outline>
</glyph>
<glyph name="bar_equal.init" format="2">
	<advance width="600"/>
	<outline>
		<contour>
			<point x="165" y="684" type="line"/>
			<point x="61" y="-55" type="line"/>
			<point x="218" y="-55" type="line"/>
			<point x="244" y="131" type="line"/>
			<point x="581" y="131" type="line"/>
			<point x="601" y="270" type="line"/>
			<point x="263" y="270" type="line"/>
			<point x="276" y="359" type="line"/>
			<point x="613" y="359" type="line"/>
			<point x="633" y="498" type="line"/>
			<point x="295" y="498" type="line"/>
			<point x="322" y="684" type="line"/>
		</contour>
	</outline>
</glyph>
<glyph name="bar_equal.rem" format="2">
	<advance width="600"/>
	<outline>
		<contour>
			<point x="-330" y="684" type="line"/>
			<point x="-434" y="-55" type="line"/>
			<point x="-278" y="-55" type="line"/>
			<point x="-251" y="131" type="line"/>
			<point x="425" y="131" type="line"/>
			<point x="445" y="270" type="line"/>
			<point x="-232" y="270" type="line"/>
			<point x="-219" y="359" type="line"/>
			<point x="458" y="359" type="line"/>
			<point x="478" y="498" type="line"/>
			<point x="-200" y="498" type="line"/>
			<point x="-174" y="684" type="line"/>
		</contour>
	</outline>
</glyph>
<glyph name="bar_equal_greater.rem" format="2">
	<advance width="600"/>
	<outline>
		<contour>
			<point x="-993" y="629" type="line"/>
			<point x="-1081" y="0" type="line"/>
			<point x="-925" y="0" type="line"/>
			<point x="-907" y="131" type="line"/>
			<point x="122" y="131" type="line"/>
			<point x="-4" y="0" type="line"/>
			<point x="193" y="0" type="line"/>
			<point x="487" y="311" type="line"/>
			<point x="267" y="629" type="line"/>
			<point x="85" y="629" type="line"/>
			<point x="176" y="498" type="line"/>
			<point x="-855" y="498" type="line"/>
			<point x="-837" y="629" type="line"/>
		</contour>
		<contour>
			<point x="302" y="317" type="line"/>
			<point x="257" y="270" type="line"/>
			<point x="-887" y="270" type="line"/>
			<point x="-875" y="359" type="line"/>
			<point x="273" y="359" type="line"/>
		</contour>
	</outline>
</glyph>
<glyph name="bar_greater.cLig" format="2">
	<advance width="600"/>
	<outline>
		<contour>
			<point x="-354" y="-79" type="line"/>
			<point x="-198" y="-79" type="line"/>
			<point x="358" y="222" type="line"/>
			<point x="384" y="407" type="line"/>
			<point x="-88" y="708" type="line"/>
			<point x="-244" y="708" type="line"/>
		</contour>
		<contour>
			<point x="-115" y="542" type="line"/>
			<point x="239" y="323" type="line"/>
			<point x="-175" y="104" type="line"/>
		</contour>
	</outline>
</glyph>
<glyph name="bar_hyphen.fina" format="2">
	<advance width="600"/>
	<outline>
		<contour>
			<point x="-3" y="239" type="line"/>
			<point x="328" y="239" type="line"/>
			<point x="287" y="-55" type="line"/>
			<point x="443" y="-55" type="line"/>
			<point x="547" y="684" type="line"/>
			<point x="391" y="684" type="line"/>
			<point x="349" y="389" type="line"/>
			<point x="18" y="389" type="line"/>
		</contour>
	</outline>
</glyph>
<glyph name="bar_hyphen.init" format="2">
	<advance width="600"/>
	<outline>
		<contour>
			<point x="67" y="-55" type="line"/>
			<point x="223" y="-55" type="line"/>
			<point x="265" y="239" type="line"/>
			<point x="597" y="239" type="line"/>
			<point x="618" y="389" type="line"/>
			<point x="286" y="389" type="line"/>
			<point x="327" y="684" type="line"/>
			<point x="171" y="684" type="line"/>
		</contour>
	</outline>
</glyph>
<glyph name="bar_hyphen.rem" format="2">
	<advance width="600"/>
	<outline>
		<contour>
			<point x="-278" y="-55" type="line"/>
			<point x="-236" y="240" type="line"/>
			<point x="441" y="240" type="line"/>
			<point x="462" y="390" type="line"/>
			<point x="-215" y="390" type="line"/>
			<point x="-174" y="684" type="line"/>
			<point x="-330" y="684" type="line"/>
			<point x="-434" y="-55" type="line"/>
		</contour>
	</outline>
</glyph>
<glyph name="braceleft_braceleft.cLig" format="2">
	<advance width="600"/>
	<outline>
		<contour>
			<point x="-93" y="-163" type="line"/>
			<point x="-77" y="-43" type="line"/>
			<point x="-199" y="-43" type="line" smooth="yes"/>
			<point x="-242" y="-43"/>
			<point x="-264" y="-29"/>
			<point x="-264" y="2" type="curve" smooth="yes"/>
			<point x="-264" y="71"/>
			<point x="-145" y="106"/>
			<point x="-145" y="208" type="curve" smooth="yes"/>
			<point x="-145" y="254"/>
			<point x="-184" y="296"/>
			<point x="-252" y="312" type="curve"/>
			<point x="-186" y="321"/>
			<point x="-110" y="358"/>
			<point x="-110" y="437" type="curve" smooth="yes"/>
			<point x="-110" y="508"/>
			<point x="-182" y="564"/>
			<point x="-182" y="618" type="curve" smooth="yes"/>
			<point x="-182" y="657"/>
			<point x="-156" y="672"/>
			<point x="-107" y="672" type="curve" smooth="yes"/>
			<point x="228" y="672" type="line"/>
			<point x="166" y="660"/>
			<point x="132" y="634"/>
			<point x="132" y="585" type="curve" smooth="yes"/>
			<point x="132" y="527"/>
			<point x="204" y="483"/>
			<point x="204" y="434" type="curve" smooth="yes"/>
			<point x="204" y="402"/>
			<point x="180" y="382"/>
			<point x="131" y="382" type="curve" smooth="yes"/>
			<point x="16" y="382" type="line"/>
			<point x="-3" y="243" type="line"/>
			<point x="94" y="243" type="line" smooth="yes"/>
			<point x="147" y="243"/>
			<point x="163" y="226"/>
			<point x="163" y="201" type="curve"/>
			<point x="163" y="124"/>
			<point x="38" y="86"/>
			<point x="38" y="-33" type="curve" smooth="yes"/>
			<point x="38" y="-107"/>
			<point x="93" y="-163"/>
			<point x="195" y="-163" type="curve" smooth="yes"/>
			<point x="408" y="-163" type="line"/>
			<point x="425" y="-43" type="line"/>
			<point x="281" y="-43" type="line" smooth="yes"/>
			<point x="238" y="-43"/>
			<point x="216" y="-29"/>
			<point x="216" y="2" type="curve" smooth="yes"/>
			<point x="216" y="68"/>
			<point x="337" y="111"/>
			<point x="337" y="212" type="curve"/>
			<point x="337" y="258"/>
			<point x="298" y="297"/>
			<point x="230" y="312" type="curve"/>
			<point x="296" y="320"/>
			<point x="372" y="349"/>
			<point x="372" y="432" type="curve" smooth="yes"/>
			<point x="372" y="502"/>
			<point x="299" y="552"/>
			<point x="299" y="612" type="curve" smooth="yes"/>
			<point x="299" y="648"/>
			<point x="326" y="672"/>
			<point x="383" y="672" type="curve" smooth="yes"/>
			<point x="525" y="672" type="line"/>
			<point x="542" y="792" type="line"/>
			<point x="-178" y="792" type="line" smooth="yes"/>
			<point x="-276" y="792"/>
			<point x="-348" y="731"/>
			<point x="-348" y="645" type="curve" smooth="yes"/>
			<point x="-348" y="560"/>
			<point x="-278" y="497"/>
			<point x="-278" y="444" type="curve" smooth="yes"/>
			<point x="-278" y="411"/>
			<point x="-302" y="382"/>
			<point x="-335" y="382" type="curve" smooth="yes"/>
			<point x="-450" y="382" type="line"/>
			<point x="-469" y="243" type="line"/>
			<point x="-372" y="243" type="line" smooth="yes"/>
			<point x="-333" y="243"/>
			<point x="-319" y="218"/>
			<point x="-319" y="195" type="curve" smooth="yes"/>
			<point x="-319" y="122"/>
			<point x="-443" y="86"/>
			<point x="-443" y="-33" type="curve" smooth="yes"/>
			<point x="-443" y="-107"/>
			<point x="-387" y="-163"/>
			<point x="-285" y="-163" type="curve" smooth="yes"/>
		</contour>
	</outline>
</glyph>
<glyph name="braceleft_hyphen.rem" format="2">
	<advance width="600"/>
	<outline>
		<contour>
			<point x="82" y="792" type="line"/>
			<point x="-137" y="792" type="line" smooth="yes"/>
			<point x="-234" y="792"/>
			<point x="-303" y="729"/>
			<point x="-303" y="643" type="curve" smooth="yes"/>
			<point x="-303" y="560"/>
			<point x="-235" y="504"/>
			<point x="-235" y="448" type="curve" smooth="yes"/>
			<point x="-235" y="410"/>
			<point x="-261" y="382"/>
			<point x="-331" y="382" type="curve" smooth="yes"/>
			<point x="-417" y="382" type="line"/>
			<point x="-436" y="243" type="line"/>
			<point x="-368" y="243" type="line" smooth="yes"/>
			<point x="-296" y="243"/>
			<point x="-277" y="210"/>
			<point x="-277" y="182" type="curve" smooth="yes"/>
			<point x="-277" y="108"/>
			<point x="-399" y="78"/>
			<point x="-399" y="-33" type="curve" smooth="yes"/>
			<point x="-399" y="-106"/>
			<point x="-346" y="-163"/>
			<point x="-244" y="-163" type="curve" smooth="yes"/>
			<point x="-53" y="-163" type="line"/>
			<point x="-35" y="-43" type="line"/>
			<point x="-159" y="-43" type="line" smooth="yes"/>
			<point x="-202" y="-43"/>
			<point x="-223" y="-29"/>
			<point x="-223" y="2" type="curve" smooth="yes"/>
			<point x="-223" y="63"/>
			<point x="-106" y="91"/>
			<point x="-106" y="171" type="curve" smooth="yes"/>
			<point x="-106" y="212"/>
			<point x="-140" y="235"/>
			<point x="-189" y="244" type="curve"/>
			<point x="428" y="244" type="line"/>
			<point x="450" y="386" type="line"/>
			<point x="-167" y="386" type="line"/>
			<point x="-115" y="396"/>
			<point x="-68" y="419"/>
			<point x="-68" y="469" type="curve" smooth="yes"/>
			<point x="-68" y="524"/>
			<point x="-142" y="566"/>
			<point x="-142" y="618" type="curve" smooth="yes"/>
			<point x="-142" y="657"/>
			<point x="-115" y="672"/>
			<point x="-67" y="672" type="curve" smooth="yes"/>
			<point x="65" y="672" type="line"/>
		</contour>
	</outline>
</glyph>
<glyph name="braceright_numbersign.cLig" format="2">
	<advance width="600"/>
	<outline>
		<contour>
			<point x="-580" y="-164" type="line"/>
			<point x="-361" y="-164" type="line" smooth="yes"/>
			<point x="-262" y="-164"/>
			<point x="-192" y="-103"/>
			<point x="-192" y="-16" type="curve" smooth="yes"/>
			<point x="-192" y="69"/>
			<point x="-262" y="132"/>
			<point x="-262" y="185" type="curve" smooth="yes"/>
			<point x="-262" y="218"/>
			<point x="-237" y="247"/>
			<point x="-204" y="247" type="curve" smooth="yes"/>
			<point x="-154" y="247" type="line"/>
			<point x="-135" y="386" type="line"/>
			<point x="-167" y="386" type="line" smooth="yes"/>
			<point x="-206" y="386"/>
			<point x="-221" y="411"/>
			<point x="-221" y="434" type="curve" smooth="yes"/>
			<point x="-221" y="507"/>
			<point x="-97" y="542"/>
			<point x="-97" y="662" type="curve" smooth="yes"/>
			<point x="-97" y="736"/>
			<point x="-153" y="792"/>
			<point x="-255" y="792" type="curve" smooth="yes"/>
			<point x="-446" y="792" type="line"/>
			<point x="-463" y="672" type="line"/>
			<point x="-340" y="672" type="line" smooth="yes"/>
			<point x="-297" y="672"/>
			<point x="-275" y="658"/>
			<point x="-275" y="627" type="curve" smooth="yes"/>
			<point x="-274" y="558"/>
			<point x="-394" y="523"/>
			<point x="-394" y="421" type="curve" smooth="yes"/>
			<point x="-393" y="374"/>
			<point x="-356" y="332"/>
			<point x="-288" y="316" type="curve"/>
			<point x="-354" y="308"/>
			<point x="-430" y="271"/>
			<point x="-430" y="191" type="curve" smooth="yes"/>
			<point x="-429" y="120"/>
			<point x="-357" y="65"/>
			<point x="-357" y="11" type="curve" smooth="yes"/>
			<point x="-358" y="-28"/>
			<point x="-383" y="-43"/>
			<point x="-432" y="-43" type="curve" smooth="yes"/>
			<point x="-564" y="-43" type="line"/>
		</contour>
		<contour>
			<point x="-63" y="276" type="line"/>
			<point x="-80" y="153" type="line"/>
			<point x="24" y="153" type="line"/>
			<point x="-12" y="0" type="line"/>
			<point x="114" y="0" type="line"/>
			<point x="150" y="153" type="line"/>
			<point x="252" y="153" type="line"/>
			<point x="216" y="0" type="line"/>
			<point x="341" y="0" type="line"/>
			<point x="377" y="153" type="line"/>
			<point x="478" y="153" type="line"/>
			<point x="495" y="276" type="line"/>
			<point x="406" y="276" type="line"/>
			<point x="438" y="413" type="line"/>
			<point x="537" y="413" type="line"/>
			<point x="555" y="537" type="line"/>
			<point x="468" y="537" type="line"/>
			<point x="502" y="684" type="line"/>
			<point x="377" y="684" type="line"/>
			<point x="343" y="537" type="line"/>
			<point x="240" y="537" type="line"/>
			<point x="274" y="684" type="line"/>
			<point x="149" y="684" type="line"/>
			<point x="114" y="537" type="line"/>
			<point x="-26" y="537" type="line"/>
			<point x="-44" y="413" type="line"/>
			<point x="85" y="413" type="line"/>
			<point x="53" y="276" type="line"/>
		</contour>
		<contour>
			<point x="179" y="276" type="line"/>
			<point x="211" y="413" type="line"/>
			<point x="313" y="413" type="line"/>
			<point x="281" y="276" type="line"/>
		</contour>
	</outline>
</glyph>
<glyph name="bracketleft_bar.cLig" format="2">
	<advance width="600"/>
	<outline>
		<contour>
			<point x="46" y="-43" type="line"/>
			<point x="-278" y="-43" type="line"/>
			<point x="-177" y="672" type="line"/>
			<point x="147" y="672" type="line"/>
			<point x="163" y="792" type="line"/>
			<point x="-317" y="792" type="line"/>
			<point x="-452" y="-163" type="line"/>
			<point x="29" y="-163" type="line"/>
		</contour>
		<contour>
			<point x="299" y="792" type="line"/>
			<point x="165" y="-163" type="line"/>
			<point x="320" y="-163" type="line"/>
			<point x="454" y="792" type="line"/>
		</contour>
	</outline>
</glyph>
<glyph name="bracketleft_bracketleft_numbersign.cLig" format="2">
	<advance width="600"/>
	<outline>
		<contour>
			<point x="-122" y="276" type="line"/>
			<point x="-139" y="153" type="line"/>
			<point x="-35" y="153" type="line"/>
			<point x="-71" y="0" type="line"/>
			<point x="55" y="0" type="line"/>
			<point x="91" y="153" type="line"/>
			<point x="193" y="153" type="line"/>
			<point x="157" y="0" type="line"/>
			<point x="282" y="0" type="line"/>
			<point x="318" y="153" type="line"/>
			<point x="419" y="153" type="line"/>
			<point x="436" y="276" type="line"/>
			<point x="347" y="276" type="line"/>
			<point x="379" y="413" type="line"/>
			<point x="478" y="413" type="line"/>
			<point x="496" y="537" type="line"/>
			<point x="408" y="537" type="line"/>
			<point x="443" y="684" type="line"/>
			<point x="318" y="684" type="line"/>
			<point x="283" y="537" type="line"/>
			<point x="181" y="537" type="line"/>
			<point x="215" y="684" type="line"/>
			<point x="90" y="684" type="line"/>
			<point x="55" y="537" type="line"/>
			<point x="-85" y="537" type="line"/>
			<point x="-103" y="413" type="line"/>
			<point x="26" y="413" type="line"/>
			<point x="-6" y="276" type="line"/>
		</contour>
		<contour>
			<point x="120" y="276" type="line"/>
			<point x="152" y="413" type="line"/>
			<point x="254" y="413" type="line"/>
			<point x="222" y="276" type="line"/>
		</contour>
		<contour>
			<point x="-215" y="-43" type="line"/>
			<point x="-418" y="-43" type="line"/>
			<point x="-317" y="672" type="line"/>
			<point x="-114" y="672" type="line"/>
			<point x="-97" y="792" type="line"/>
			<point x="-456" y="792" type="line"/>
			<point x="-591" y="-163" type="line"/>
			<point x="-232" y="-163" type="line"/>
		</contour>
		<contour>
			<point x="-651" y="-43" type="line"/>
			<point x="-906" y="-43" type="line"/>
			<point x="-806" y="672" type="line"/>
			<point x="-550" y="672" type="line"/>
			<point x="-533" y="792" type="line"/>
			<point x="-945" y="792" type="line"/>
			<point x="-1080" y="-163" type="line"/>
			<point x="-668" y="-163" type="line"/>
		</contour>
	</outline>
</glyph>
<glyph name="bracketright_bracketright.cLig" format="2">
	<advance width="600"/>
	<outline>
		<contour>
			<point x="-389" y="672" type="line"/>
			<point x="-186" y="672" type="line"/>
			<point x="-287" y="-43" type="line"/>
			<point x="-490" y="-43" type="line"/>
			<point x="-507" y="-163" type="line"/>
			<point x="-148" y="-163" type="line"/>
			<point x="-13" y="792" type="line"/>
			<point x="-372" y="792" type="line"/>
		</contour>
		<contour>
			<point x="47" y="672" type="line"/>
			<point x="302" y="672" type="line"/>
			<point x="202" y="-43" type="line"/>
			<point x="-54" y="-43" type="line"/>
			<point x="-71" y="-163" type="line"/>
			<point x="341" y="-163" type="line"/>
			<point x="476" y="792" type="line"/>
			<point x="64" y="792" type="line"/>
		</contour>
	</outline>
</glyph>
<glyph name="bracketright_numbersign.cLig" format="2">
	<advance width="600"/>
	<outline>
		<contour>
			<point x="-565" y="-163" type="line"/>
			<point x="-214" y="-163" type="line"/>
			<point x="-169" y="153" type="line"/>
			<point x="2" y="153" type="line"/>
			<point x="-34" y="0" type="line"/>
			<point x="92" y="0" type="line"/>
			<point x="128" y="153" type="line"/>
			<point x="230" y="153" type="line"/>
			<point x="194" y="0" type="line"/>
			<point x="319" y="0" type="line"/>
			<point x="355" y="153" type="line"/>
			<point x="456" y="153" type="line"/>
			<point x="473" y="276" type="line"/>
			<point x="384" y="276" type="line"/>
			<point x="417" y="413" type="line"/>
			<point x="515" y="413" type="line"/>
			<point x="533" y="537" type="line"/>
			<point x="446" y="537" type="line"/>
			<point x="480" y="684" type="line"/>
			<point x="355" y="684" type="line"/>
			<point x="321" y="537" type="line"/>
			<point x="218" y="537" type="line"/>
			<point x="252" y="684" type="line"/>
			<point x="127" y="684" type="line"/>
			<point x="93" y="537" type="line"/>
			<point x="-115" y="537" type="line"/>
			<point x="-79" y="792" type="line"/>
			<point x="-430" y="792" type="line"/>
			<point x="-447" y="673" type="line"/>
			<point x="-250" y="673" type="line"/>
			<point x="-351" y="-44" type="line"/>
			<point x="-548" y="-44" type="line"/>
		</contour>
		<contour>
			<point x="-152" y="276" type="line"/>
			<point x="-132" y="413" type="line"/>
			<point x="63" y="413" type="line"/>
			<point x="31" y="276" type="line"/>
		</contour>
		<contour>
			<point x="157" y="276" type="line"/>
			<point x="189" y="413" type="line"/>
			<point x="292" y="413" type="line"/>
			<point x="259" y="276" type="line"/>
		</contour>
	</outline>
</glyph>
<glyph name="breve.cap" format="2">
	<advance width="600"/>
	<outline>
		<contour>
			<point x="369" y="735" type="curve" smooth="yes"/>
			<point x="491" y="735"/>
			<point x="544" y="777"/>
			<point x="560" y="884" type="curve"/>
			<point x="446" y="884" type="line"/>
			<point x="438" y="831"/>
			<point x="423" y="814"/>
			<point x="379" y="814" type="curve" smooth="yes"/>
			<point x="335" y="814"/>
			<point x="323" y="839"/>
			<point x="329" y="884" type="curve"/>
			<point x="215" y="884" type="line"/>
			<point x="198" y="782"/>
			<point x="256" y="735"/>
		</contour>
	</outline>
	<anchor name="_top" x="361" y="684"/>
</glyph>
<glyph name="caron.cap" format="2">
	<advance width="600"/>
	<outline>
		<contour>
			<point x="592" y="884" type="line"/>
			<point x="446" y="884" type="line"/>
			<point x="371" y="803" type="line"/>
			<point x="320" y="884" type="line"/>
			<point x="181" y="884" type="line"/>
			<point x="277" y="743" type="line"/>
			<point x="455" y="743" type="line"/>
		</contour>
	</outline>
	<anchor name="_top" x="358" y="684"/>
</glyph>
<glyph name="colon_colon.cLig" format="2">
	<advance width="600"/>
	<outline>
		<contour>
			<point x="-250" y="-12" type="curve" smooth="yes"/>
			<point x="-177" y="-12"/>
			<point x="-140" y="16"/>
			<point x="-130" y="83" type="curve" smooth="yes"/>
			<point x="-119" y="159"/>
			<point x="-156" y="191"/>
			<point x="-232" y="191" type="curve" smooth="yes"/>
			<point x="-306" y="191"/>
			<point x="-344" y="163"/>
			<point x="-353" y="96" type="curve" smooth="yes"/>
			<point x="-365" y="20"/>
			<point x="-328" y="-12"/>
		</contour>
		<contour>
			<point x="-202" y="328" type="curve" smooth="yes"/>
			<point x="-129" y="328"/>
			<point x="-92" y="356"/>
			<point x="-82" y="423" type="curve" smooth="yes"/>
			<point x="-71" y="499"/>
			<point x="-108" y="531"/>
			<point x="-184" y="531" type="curve" smooth="yes"/>
			<point x="-258" y="531"/>
			<point x="-296" y="503"/>
			<point x="-305" y="436" type="curve" smooth="yes"/>
			<point x="-317" y="360"/>
			<point x="-280" y="328"/>
		</contour>
		<contour>
			<point x="186" y="-12" type="curve" smooth="yes"/>
			<point x="259" y="-12"/>
			<point x="296" y="16"/>
			<point x="306" y="83" type="curve" smooth="yes"/>
			<point x="317" y="159"/>
			<point x="280" y="191"/>
			<point x="204" y="191" type="curve" smooth="yes"/>
			<point x="130" y="191"/>
			<point x="92" y="163"/>
			<point x="83" y="96" type="curve" smooth="yes"/>
			<point x="71" y="20"/>
			<point x="108" y="-12"/>
		</contour>
		<contour>
			<point x="234" y="328" type="curve" smooth="yes"/>
			<point x="307" y="328"/>
			<point x="344" y="356"/>
			<point x="354" y="423" type="curve" smooth="yes"/>
			<point x="365" y="499"/>
			<point x="328" y="531"/>
			<point x="252" y="531" type="curve" smooth="yes"/>
			<point x="178" y="531"/>
			<point x="140" y="503"/>
			<point x="131" y="436" type="curve" smooth="yes"/>
			<point x="119" y="360"/>
			<point x="156" y="328"/>
		</contour>
	</outline>
</glyph>
<glyph name="colon_equal.cLig" format="2">
	<advance width="600"/>
	<outline>
		<contour>
			<point x="-312" y="326" type="curve" smooth="yes"/>
			<point x="-239" y="326"/>
			<point x="-202" y="354"/>
			<point x="-192" y="421" type="curve" smooth="yes"/>
			<point x="-181" y="497"/>
			<point x="-218" y="529"/>
			<point x="-294" y="529" type="curve" smooth="yes"/>
			<point x="-368" y="529"/>
			<point x="-406" y="501"/>
			<point x="-415" y="434" type="curve" smooth="yes"/>
			<point x="-427" y="358"/>
			<point x="-390" y="326"/>
		</contour>
		<contour>
			<point x="-43" y="329" type="line"/>
			<point x="445" y="329" type="line"/>
			<point x="465" y="468" type="line"/>
			<point x="-23" y="468" type="line"/>
		</contour>
		<contour>
			<point x="-74" y="101" type="line"/>
			<point x="414" y="101" type="line"/>
			<point x="434" y="241" type="line"/>
			<point x="-54" y="241" type="line"/>
		</contour>
		<contour>
			<point x="-353" y="30" type="curve" smooth="yes"/>
			<point x="-280" y="30"/>
			<point x="-243" y="58"/>
			<point x="-233" y="125" type="curve" smooth="yes"/>
			<point x="-222" y="201"/>
			<point x="-259" y="233"/>
			<point x="-335" y="233" type="curve" smooth="yes"/>
			<point x="-409" y="233"/>
			<point x="-447" y="205"/>
			<point x="-456" y="138" type="curve" smooth="yes"/>
			<point x="-468" y="62"/>
			<point x="-431" y="30"/>
		</contour>
	</outline>
</glyph>
<glyph name="colon_equal.med" format="2">
	<advance width="600"/>
	<outline>
		<contour>
			<point x="316" y="326" type="curve" smooth="yes"/>
			<point x="389" y="326"/>
			<point x="426" y="354"/>
			<point x="436" y="421" type="curve" smooth="yes"/>
			<point x="447" y="497"/>
			<point x="410" y="529"/>
			<point x="334" y="529" type="curve" smooth="yes"/>
			<point x="260" y="529"/>
			<point x="222" y="501"/>
			<point x="213" y="434" type="curve" smooth="yes"/>
			<point x="201" y="358"/>
			<point x="238" y="326"/>
		</contour>
		<contour>
			<point x="520" y="361" type="line"/>
			<point x="614" y="361" type="line"/>
			<point x="634" y="501" type="line"/>
			<point x="540" y="501" type="line"/>
		</contour>
		<contour>
			<point x="14" y="361" type="line"/>
			<point x="108" y="361" type="line"/>
			<point x="128" y="501" type="line"/>
			<point x="34" y="501" type="line"/>
		</contour>
		<contour>
			<point x="489" y="134" type="line"/>
			<point x="582" y="134" type="line"/>
			<point x="602" y="274" type="line"/>
			<point x="508" y="274" type="line"/>
		</contour>
		<contour>
			<point x="-17" y="134" type="line"/>
			<point x="76" y="134" type="line"/>
			<point x="95" y="274" type="line"/>
			<point x="2" y="274" type="line"/>
		</contour>
		<contour>
			<point x="275" y="30" type="curve" smooth="yes"/>
			<point x="348" y="30"/>
			<point x="385" y="58"/>
			<point x="395" y="125" type="curve" smooth="yes"/>
			<point x="406" y="201"/>
			<point x="369" y="233"/>
			<point x="293" y="233" type="curve" smooth="yes"/>
			<point x="219" y="233"/>
			<point x="181" y="205"/>
			<point x="172" y="138" type="curve" smooth="yes"/>
			<point x="160" y="62"/>
			<point x="197" y="30"/>
		</contour>
	</outline>
</glyph>
<glyph name="colon_less.cLig.x" format="2">
	<advance width="600"/>
	<outline>
		<contour>
			<point x="396" y="-12" type="line"/>
			<point x="419" y="144" type="line"/>
			<point x="113" y="312" type="line"/>
			<point x="465" y="473" type="line"/>
			<point x="489" y="642" type="line"/>
			<point x="5" y="407" type="line"/>
			<point x="-21" y="222" type="line"/>
		</contour>
		<contour>
			<point x="-278" y="375" type="curve" smooth="yes"/>
			<point x="-205" y="375"/>
			<point x="-168" y="403"/>
			<point x="-158" y="470" type="curve" smooth="yes"/>
			<point x="-147" y="546"/>
			<point x="-184" y="578"/>
			<point x="-260" y="578" type="curve" smooth="yes"/>
			<point x="-334" y="578"/>
			<point x="-372" y="550"/>
			<point x="-381" y="483" type="curve" smooth="yes"/>
			<point x="-393" y="407"/>
			<point x="-356" y="375"/>
		</contour>
		<contour>
			<point x="-326" y="35" type="curve" smooth="yes"/>
			<point x="-253" y="35"/>
			<point x="-216" y="63"/>
			<point x="-206" y="130" type="curve" smooth="yes"/>
			<point x="-195" y="206"/>
			<point x="-232" y="238"/>
			<point x="-308" y="238" type="curve" smooth="yes"/>
			<point x="-382" y="238"/>
			<point x="-420" y="210"/>
			<point x="-429" y="143" type="curve" smooth="yes"/>
			<point x="-441" y="67"/>
			<point x="-404" y="35"/>
		</contour>
	</outline>
</glyph>
<glyph name="cordinal" format="2">
	<advance width="600"/>
	<outline>
		<contour>
			<point x="381" y="226" type="curve" smooth="yes"/>
			<point x="424" y="226"/>
			<point x="457" y="232"/>
			<point x="482" y="239" type="curve"/>
			<point x="494" y="344" type="line"/>
			<point x="473" y="338"/>
			<point x="444" y="332"/>
			<point x="410" y="332" type="curve" smooth="yes"/>
			<point x="327" y="332"/>
			<point x="268" y="376"/>
			<point x="282" y="472" type="curve" smooth="yes"/>
			<point x="294" y="554"/>
			<point x="348" y="589"/>
			<point x="423" y="589" type="curve" smooth="yes"/>
			<point x="463" y="589"/>
			<point x="502" y="580"/>
			<point x="528" y="569" type="curve"/>
			<point x="542" y="671" type="line"/>
			<point x="516" y="683"/>
			<point x="466" y="695"/>
			<point x="405" y="695" type="curve" smooth="yes"/>
			<point x="257" y="695"/>
			<point x="160" y="611"/>
			<point x="142" y="488" type="curve" smooth="yes"/>
			<point x="117" y="313"/>
			<point x="228" y="226"/>
		</contour>
	</outline>
</glyph>
<glyph name="dieresis.cap" format="2">
	<advance width="600"/>
	<outline>
		<contour>
			<point x="490" y="880" type="curve" smooth="yes"/>
			<point x="429" y="880"/>
			<point x="409" y="857"/>
			<point x="403" y="807" type="curve" smooth="yes"/>
			<point x="398" y="763"/>
			<point x="421" y="740"/>
			<point x="478" y="740" type="curve" smooth="yes"/>
			<point x="539" y="740"/>
			<point x="559" y="762"/>
			<point x="565" y="809" type="curve" smooth="yes"/>
			<point x="571" y="861"/>
			<point x="546" y="880"/>
		</contour>
		<contour>
			<point x="264" y="740" type="curve" smooth="yes"/>
			<point x="327" y="740"/>
			<point x="345" y="764"/>
			<point x="350" y="811" type="curve" smooth="yes"/>
			<point x="356" y="859"/>
			<point x="333" y="880"/>
			<point x="276" y="880" type="curve" smooth="yes"/>
			<point x="215" y="880"/>
			<point x="193" y="858"/>
			<point x="188" y="809" type="curve" smooth="yes"/>
			<point x="184" y="762"/>
			<point x="205" y="740"/>
		</contour>
	</outline>
	<anchor name="_top" x="359" y="684"/>
</glyph>
<glyph name="eight.den" format="2">
	<advance width="600"/>
	<outline>
		<contour>
			<point x="272" y="-8" type="curve" smooth="yes"/>
			<point x="392" y="-8"/>
			<point x="450" y="44"/>
			<point x="450" y="119" type="curve" smooth="yes"/>
			<point x="450" y="169"/>
			<point x="419" y="194"/>
			<point x="370" y="206" type="curve"/>
			<point x="426" y="217"/>
			<point x="470" y="253"/>
			<point x="470" y="315" type="curve" smooth="yes"/>
			<point x="470" y="382"/>
			<point x="413" y="418"/>
			<point x="309" y="418" type="curve" smooth="yes"/>
			<point x="211" y="418"/>
			<point x="143" y="377"/>
			<point x="143" y="297" type="curve" smooth="yes"/>
			<point x="143" y="252"/>
			<point x="170" y="223"/>
			<point x="215" y="212" type="curve"/>
			<point x="151" y="203"/>
			<point x="107" y="166"/>
			<point x="107" y="101" type="curve" smooth="yes"/>
			<point x="107" y="24"/>
			<point x="176" y="-8"/>
		</contour>
		<contour>
			<point x="303" y="241" type="curve" smooth="yes"/>
			<point x="270" y="241"/>
			<point x="250" y="258"/>
			<point x="250" y="286" type="curve" smooth="yes"/>
			<point x="250" y="323"/>
			<point x="270" y="342"/>
			<point x="310" y="342" type="curve" smooth="yes"/>
			<point x="343" y="342"/>
			<point x="363" y="327"/>
			<point x="363" y="297" type="curve" smooth="yes"/>
			<point x="363" y="261"/>
			<point x="342" y="241"/>
		</contour>
		<contour>
			<point x="275" y="71" type="curve" smooth="yes"/>
			<point x="242" y="71"/>
			<point x="220" y="87"/>
			<point x="220" y="118" type="curve" smooth="yes"/>
			<point x="220" y="156"/>
			<point x="241" y="175"/>
			<point x="283" y="175" type="curve" smooth="yes"/>
			<point x="318" y="175"/>
			<point x="338" y="159"/>
			<point x="338" y="129" type="curve" smooth="yes"/>
			<point x="338" y="92"/>
			<point x="316" y="71"/>
		</contour>
	</outline>
</glyph>
<glyph name="eight.numr" format="2">
	<advance width="600"/>
	<outline>
		<contour>
			<point x="324" y="366" type="curve" smooth="yes"/>
			<point x="424" y="366"/>
			<point x="473" y="409"/>
			<point x="473" y="472" type="curve" smooth="yes"/>
			<point x="473" y="516"/>
			<point x="445" y="536"/>
			<point x="406" y="545" type="curve"/>
			<point x="452" y="555"/>
			<point x="490" y="584"/>
			<point x="490" y="636" type="curve" smooth="yes"/>
			<point x="490" y="693"/>
			<point x="441" y="724"/>
			<point x="354" y="724" type="curve" smooth="yes"/>
			<point x="271" y="724"/>
			<point x="213" y="690"/>
			<point x="213" y="621" type="curve" smooth="yes"/>
			<point x="213" y="586"/>
			<point x="236" y="560"/>
			<point x="270" y="550" type="curve"/>
			<point x="221" y="542"/>
			<point x="184" y="510"/>
			<point x="184" y="457" type="curve" smooth="yes"/>
			<point x="184" y="392"/>
			<point x="243" y="366"/>
		</contour>
		<contour>
			<point x="348" y="577" type="curve" smooth="yes"/>
			<point x="321" y="577"/>
			<point x="306" y="589"/>
			<point x="306" y="613" type="curve" smooth="yes"/>
			<point x="306" y="642"/>
			<point x="324" y="657"/>
			<point x="354" y="657" type="curve" smooth="yes"/>
			<point x="380" y="657"/>
			<point x="397" y="647"/>
			<point x="397" y="621" type="curve" smooth="yes"/>
			<point x="397" y="593"/>
			<point x="378" y="577"/>
		</contour>
		<contour>
			<point x="325" y="435" type="curve" smooth="yes"/>
			<point x="299" y="435"/>
			<point x="281" y="446"/>
			<point x="281" y="473" type="curve" smooth="yes"/>
			<point x="281" y="503"/>
			<point x="299" y="519"/>
			<point x="332" y="519" type="curve" smooth="yes"/>
			<point x="361" y="519"/>
			<point x="377" y="507"/>
			<point x="377" y="483" type="curve" smooth="yes"/>
			<point x="377" y="452"/>
			<point x="358" y="435"/>
		</contour>
	</outline>
</glyph>
<glyph name="equal.fina" format="2">
	<advance width="600"/>
	<outline>
		<contour>
			<point x="14" y="359" type="line"/>
			<point x="459" y="359" type="line"/>
			<point x="479" y="498" type="line"/>
			<point x="34" y="498" type="line"/>
		</contour>
		<contour>
			<point x="-18" y="131" type="line"/>
			<point x="426" y="131" type="line"/>
			<point x="446" y="270" type="line"/>
			<point x="2" y="270" type="line"/>
		</contour>
	</outline>
</glyph>
<glyph name="equal.init" format="2">
	<advance width="600"/>
	<outline>
		<contour>
			<point x="169" y="359" type="line"/>
			<point x="613" y="359" type="line"/>
			<point x="633" y="498" type="line"/>
			<point x="189" y="498" type="line"/>
		</contour>
		<contour>
			<point x="136" y="131" type="line"/>
			<point x="581" y="131" type="line"/>
			<point x="601" y="270" type="line"/>
			<point x="156" y="270" type="line"/>
		</contour>
	</outline>
</glyph>
<glyph name="equal_equal_equal.cLig" format="2">
	<advance width="600"/>
	<outline>
		<contour>
			<point x="-1022" y="459" type="line"/>
			<point x="478" y="459" type="line"/>
			<point x="496" y="587" type="line"/>
			<point x="-1004" y="587" type="line"/>
		</contour>
		<contour>
			<point x="-1052" y="249" type="line"/>
			<point x="448" y="249" type="line"/>
			<point x="466" y="377" type="line"/>
			<point x="-1034" y="377" type="line"/>
		</contour>
		<contour>
			<point x="-1081" y="39" type="line"/>
			<point x="418" y="39" type="line"/>
			<point x="437" y="167" type="line"/>
			<point x="-1063" y="167" type="line"/>
		</contour>
	</outline>
</glyph>
<glyph name="equal_equal_greater.rem" format="2">
	<advance width="600"/>
	<outline>
		<contour>
			<point x="-1063" y="131" type="line"/>
			<point x="122" y="131" type="line"/>
			<point x="-4" y="0" type="line"/>
			<point x="193" y="0" type="line"/>
			<point x="487" y="311" type="line"/>
			<point x="267" y="629" type="line"/>
			<point x="85" y="629" type="line"/>
			<point x="176" y="498" type="line"/>
			<point x="-1010" y="498" type="line"/>
			<point x="-1030" y="359" type="line"/>
			<point x="273" y="359" type="line"/>
			<point x="302" y="317" type="line"/>
			<point x="257" y="270" type="line"/>
			<point x="-1042" y="270" type="line"/>
		</contour>
	</outline>
</glyph>
<glyph name="equal_greater.rem" format="2">
	<advance width="600"/>
	<outline>
		<contour>
			<point x="-464" y="131" type="line"/>
			<point x="132" y="131" type="line"/>
			<point x="6" y="0" type="line"/>
			<point x="204" y="0" type="line"/>
			<point x="497" y="311" type="line"/>
			<point x="277" y="629" type="line"/>
			<point x="95" y="629" type="line"/>
			<point x="186" y="498" type="line"/>
			<point x="-411" y="498" type="line"/>
			<point x="-431" y="359" type="line"/>
			<point x="283" y="359" type="line"/>
			<point x="312" y="317" type="line"/>
			<point x="267" y="270" type="line"/>
			<point x="-444" y="270" type="line"/>
		</contour>
	</outline>
</glyph>
<glyph name="equal_less.rem" format="2">
	<advance width="600"/>
	<outline>
		<contour>
			<point x="445" y="270" type="line"/>
			<point x="-269" y="270" type="line"/>
			<point x="-298" y="312" type="line"/>
			<point x="-253" y="359" type="line"/>
			<point x="458" y="359" type="line"/>
			<point x="478" y="498" type="line"/>
			<point x="-118" y="498" type="line"/>
			<point x="8" y="629" type="line"/>
			<point x="-190" y="629" type="line"/>
			<point x="-483" y="318" type="line"/>
			<point x="-263" y="0" type="line"/>
			<point x="-81" y="0" type="line"/>
			<point x="-172" y="131" type="line"/>
			<point x="425" y="131" type="line"/>
		</contour>
	</outline>
</glyph>
<glyph name="equal_less_less.rem" format="2">
	<advance width="600"/>
	<outline>
		<contour>
			<point x="566" y="629" type="line"/>
			<point x="368" y="629" type="line"/>
			<point x="65" y="316" type="line"/>
			<point x="292" y="0" type="line"/>
			<point x="478" y="0" type="line"/>
			<point x="255" y="307" type="line"/>
		</contour>
		<contour>
			<point x="172" y="629" type="line"/>
			<point x="-22" y="629" type="line"/>
			<point x="-146" y="498" type="line"/>
			<point x="-1011" y="498" type="line"/>
			<point x="-1031" y="359" type="line"/>
			<point x="-82" y="359" type="line"/>
		</contour>
		<contour>
			<point x="-95" y="270" type="line"/>
			<point x="-1044" y="270" type="line"/>
			<point x="-1064" y="131" type="line"/>
			<point x="-180" y="131" type="line"/>
			<point x="-92" y="0" type="line"/>
			<point x="87" y="0" type="line"/>
		</contour>
	</outline>
</glyph>
<glyph name="exclam_equal.cLig" format="2">
	<advance width="600"/>
	<outline>
		<contour>
			<point x="-466" y="109" type="line"/>
			<point x="-202" y="109" type="line"/>
			<point x="-347" y="-80" type="line"/>
			<point x="-195" y="-80" type="line"/>
			<point x="-50" y="109" type="line"/>
			<point x="422" y="109" type="line"/>
			<point x="441" y="247" type="line"/>
			<point x="56" y="247" type="line"/>
			<point x="124" y="336" type="line"/>
			<point x="454" y="336" type="line"/>
			<point x="473" y="474" type="line"/>
			<point x="230" y="474" type="line"/>
			<point x="360" y="644" type="line"/>
			<point x="208" y="644" type="line"/>
			<point x="78" y="474" type="line"/>
			<point x="-414" y="474" type="line"/>
			<point x="-434" y="336" type="line"/>
			<point x="-28" y="336" type="line"/>
			<point x="-96" y="247" type="line"/>
			<point x="-446" y="247" type="line"/>
		</contour>
	</outline>
</glyph>
<glyph name="exclam_equal_equal.cLig" format="2">
	<advance width="600"/>
	<outline>
		<contour>
			<point x="-1090" y="53" type="line"/>
			<point x="-554" y="53" type="line"/>
			<point x="-652" y="-84" type="line"/>
			<point x="-500" y="-84" type="line"/>
			<point x="-402" y="53" type="line"/>
			<point x="410" y="53" type="line"/>
			<point x="428" y="181" type="line"/>
			<point x="-311" y="181" type="line"/>
			<point x="-253" y="263" type="line"/>
			<point x="439" y="263" type="line"/>
			<point x="457" y="391" type="line"/>
			<point x="-162" y="391" type="line"/>
			<point x="-104" y="473" type="line"/>
			<point x="469" y="473" type="line"/>
			<point x="487" y="601" type="line"/>
			<point x="-13" y="601" type="line"/>
			<point x="54" y="694" type="line"/>
			<point x="-98" y="694" type="line"/>
			<point x="-164" y="601" type="line"/>
			<point x="-1013" y="601" type="line"/>
			<point x="-1031" y="473" type="line"/>
			<point x="-256" y="473" type="line"/>
			<point x="-314" y="391" type="line"/>
			<point x="-1043" y="391" type="line"/>
			<point x="-1061" y="263" type="line"/>
			<point x="-405" y="263" type="line"/>
			<point x="-463" y="181" type="line"/>
			<point x="-1072" y="181" type="line"/>
		</contour>
	</outline>
</glyph>
<glyph name="exclam_exclam_exclam.rem" format="2">
	<advance width="600"/>
	<outline>
		<contour>
			<point x="-840" y="241" type="line"/>
			<point x="-720" y="241" type="line"/>
			<point x="-644" y="565" type="line"/>
			<point x="-626" y="684" type="line"/>
			<point x="-809" y="684" type="line"/>
			<point x="-826" y="565" type="line"/>
		</contour>
		<contour>
			<point x="-809" y="-12" type="curve" smooth="yes"/>
			<point x="-742" y="-12"/>
			<point x="-709" y="13"/>
			<point x="-700" y="72" type="curve" smooth="yes"/>
			<point x="-689" y="144"/>
			<point x="-726" y="173"/>
			<point x="-796" y="173" type="curve" smooth="yes"/>
			<point x="-862" y="173"/>
			<point x="-896" y="148"/>
			<point x="-904" y="90" type="curve" smooth="yes"/>
			<point x="-915" y="17"/>
			<point x="-878" y="-12"/>
		</contour>
		<contour>
			<point x="-362" y="241" type="line"/>
			<point x="-242" y="241" type="line"/>
			<point x="-166" y="565" type="line"/>
			<point x="-148" y="684" type="line"/>
			<point x="-331" y="684" type="line"/>
			<point x="-348" y="565" type="line"/>
		</contour>
		<contour>
			<point x="-331" y="-12" type="curve" smooth="yes"/>
			<point x="-264" y="-12"/>
			<point x="-231" y="13"/>
			<point x="-222" y="72" type="curve" smooth="yes"/>
			<point x="-211" y="144"/>
			<point x="-248" y="173"/>
			<point x="-318" y="173" type="curve" smooth="yes"/>
			<point x="-384" y="173"/>
			<point x="-418" y="148"/>
			<point x="-426" y="90" type="curve" smooth="yes"/>
			<point x="-437" y="17"/>
			<point x="-400" y="-12"/>
		</contour>
		<contour>
			<point x="115" y="241" type="line"/>
			<point x="235" y="241" type="line"/>
			<point x="311" y="565" type="line"/>
			<point x="329" y="684" type="line"/>
			<point x="146" y="684" type="line"/>
			<point x="129" y="565" type="line"/>
		</contour>
		<contour>
			<point x="146" y="-12" type="curve" smooth="yes"/>
			<point x="213" y="-12"/>
			<point x="246" y="13"/>
			<point x="255" y="72" type="curve" smooth="yes"/>
			<point x="266" y="144"/>
			<point x="229" y="173"/>
			<point x="159" y="173" type="curve" smooth="yes"/>
			<point x="93" y="173"/>
			<point x="59" y="148"/>
			<point x="51" y="90" type="curve" smooth="yes"/>
			<point x="40" y="17"/>
			<point x="77" y="-12"/>
		</contour>
	</outline>
</glyph>
<glyph name="exclam_exclam_period.cLig" format="2">
	<advance width="600"/>
	<outline>
		<contour>
			<point x="-840" y="241" type="line"/>
			<point x="-720" y="241" type="line"/>
			<point x="-644" y="565" type="line"/>
			<point x="-626" y="684" type="line"/>
			<point x="-809" y="684" type="line"/>
			<point x="-826" y="565" type="line"/>
		</contour>
		<contour>
			<point x="-809" y="-12" type="curve" smooth="yes"/>
			<point x="-742" y="-12"/>
			<point x="-709" y="13"/>
			<point x="-700" y="72" type="curve" smooth="yes"/>
			<point x="-689" y="144"/>
			<point x="-726" y="173"/>
			<point x="-796" y="173" type="curve" smooth="yes"/>
			<point x="-862" y="173"/>
			<point x="-896" y="148"/>
			<point x="-904" y="90" type="curve" smooth="yes"/>
			<point x="-915" y="17"/>
			<point x="-878" y="-12"/>
		</contour>
		<contour>
			<point x="-362" y="241" type="line"/>
			<point x="-242" y="241" type="line"/>
			<point x="-166" y="565" type="line"/>
			<point x="-148" y="684" type="line"/>
			<point x="-331" y="684" type="line"/>
			<point x="-348" y="565" type="line"/>
		</contour>
		<contour>
			<point x="-331" y="-12" type="curve" smooth="yes"/>
			<point x="-264" y="-12"/>
			<point x="-231" y="13"/>
			<point x="-222" y="72" type="curve" smooth="yes"/>
			<point x="-211" y="144"/>
			<point x="-248" y="173"/>
			<point x="-318" y="173" type="curve" smooth="yes"/>
			<point x="-384" y="173"/>
			<point x="-418" y="148"/>
			<point x="-426" y="90" type="curve" smooth="yes"/>
			<point x="-437" y="17"/>
			<point x="-400" y="-12"/>
		</contour>
		<contour>
			<point x="147" y="-12" type="curve" smooth="yes"/>
			<point x="220" y="-12"/>
			<point x="257" y="16"/>
			<point x="267" y="83" type="curve" smooth="yes"/>
			<point x="278" y="159"/>
			<point x="241" y="191"/>
			<point x="165" y="191" type="curve" smooth="yes"/>
			<point x="91" y="191"/>
			<point x="53" y="163"/>
			<point x="44" y="96" type="curve" smooth="yes"/>
			<point x="32" y="20"/>
			<point x="69" y="-12"/>
		</contour>
	</outline>
</glyph>
<glyph name="four.den" format="2">
	<advance width="600"/>
	<outline>
		<contour>
			<point x="279" y="0" type="line"/>
			<point x="386" y="0" type="line"/>
			<point x="396" y="67" type="line"/>
			<point x="433" y="67" type="line"/>
			<point x="445" y="154" type="line"/>
			<point x="407" y="154" type="line"/>
			<point x="443" y="410" type="line"/>
			<point x="273" y="410" type="line"/>
			<point x="109" y="154" type="line"/>
			<point x="98" y="68" type="line"/>
			<point x="288" y="68" type="line"/>
		</contour>
		<contour>
			<point x="209" y="154" type="line"/>
			<point x="326" y="340" type="line"/>
			<point x="300" y="154" type="line"/>
		</contour>
	</outline>
</glyph>
<glyph name="four.numr" format="2">
	<advance width="600"/>
	<outline>
		<contour>
			<point x="323" y="372" type="line"/>
			<point x="419" y="372" type="line"/>
			<point x="427" y="427" type="line"/>
			<point x="457" y="427" type="line"/>
			<point x="468" y="504" type="line"/>
			<point x="437" y="504" type="line"/>
			<point x="467" y="717" type="line"/>
			<point x="314" y="717" type="line"/>
			<point x="183" y="504" type="line"/>
			<point x="173" y="427" type="line"/>
			<point x="331" y="427" type="line"/>
		</contour>
		<contour>
			<point x="271" y="504" type="line"/>
			<point x="362" y="654" type="line"/>
			<point x="341" y="504" type="line"/>
		</contour>
	</outline>
</glyph>
<glyph name="g.ss01" format="2">
	<advance width="600"/>
	<outline>
		<contour>
			<point x="211" y="-204" type="curve" smooth="yes"/>
			<point x="353" y="-204"/>
			<point x="485" y="-147"/>
			<point x="512" y="48" type="curve" smooth="yes"/>
			<point x="579" y="523" type="line"/>
			<point x="364" y="523" type="line" smooth="yes"/>
			<point x="180" y="523"/>
			<point x="68" y="436"/>
			<point x="45" y="276" type="curve" smooth="yes"/>
			<point x="43" y="262" type="line" smooth="yes"/>
			<point x="22" y="117"/>
			<point x="76" y="18"/>
			<point x="196" y="18" type="curve" smooth="yes"/>
			<point x="258" y="18"/>
			<point x="312" y="50"/>
			<point x="356" y="118" type="curve"/>
			<point x="348" y="65" type="line" smooth="yes"/>
			<point x="335" y="-31"/>
			<point x="284" y="-74"/>
			<point x="196" y="-74" type="curve" smooth="yes"/>
			<point x="127" y="-74"/>
			<point x="73" y="-49"/>
			<point x="36" y="-23" type="curve"/>
			<point x="18" y="-154" type="line"/>
			<point x="59" y="-180"/>
			<point x="128" y="-204"/>
		</contour>
		<contour>
			<point x="282" y="143" type="curve" smooth="yes"/>
			<point x="225" y="143"/>
			<point x="202" y="194"/>
			<point x="213" y="269" type="curve" smooth="yes"/>
			<point x="214" y="276" type="line" smooth="yes"/>
			<point x="226" y="358"/>
			<point x="271" y="395"/>
			<point x="352" y="395" type="curve" smooth="yes"/>
			<point x="394" y="395" type="line"/>
			<point x="373" y="242" type="line" smooth="yes"/>
			<point x="363" y="178"/>
			<point x="331" y="143"/>
		</contour>
	</outline>
	<anchor name="top" x="365" y="523"/>
</glyph>
<glyph name="greater_colon.cLig.x" format="2">
	<advance width="600"/>
	<outline>
		<contour>
			<point x="-472" y="-12" type="line"/>
			<point x="13" y="223" type="line"/>
			<point x="39" y="408" type="line"/>
			<point x="-378" y="642" type="line"/>
			<point x="-402" y="487" type="line"/>
			<point x="-95" y="321" type="line"/>
			<point x="-447" y="157" type="line"/>
		</contour>
		<contour>
			<point x="325" y="375" type="curve" smooth="yes"/>
			<point x="398" y="375"/>
			<point x="435" y="403"/>
			<point x="445" y="470" type="curve" smooth="yes"/>
			<point x="456" y="546"/>
			<point x="419" y="578"/>
			<point x="343" y="578" type="curve" smooth="yes"/>
			<point x="269" y="578"/>
			<point x="231" y="550"/>
			<point x="222" y="483" type="curve" smooth="yes"/>
			<point x="210" y="407"/>
			<point x="247" y="375"/>
		</contour>
		<contour>
			<point x="277" y="35" type="curve" smooth="yes"/>
			<point x="350" y="35"/>
			<point x="387" y="63"/>
			<point x="397" y="130" type="curve" smooth="yes"/>
			<point x="408" y="206"/>
			<point x="371" y="238"/>
			<point x="295" y="238" type="curve" smooth="yes"/>
			<point x="221" y="238"/>
			<point x="183" y="210"/>
			<point x="174" y="143" type="curve" smooth="yes"/>
			<point x="162" y="67"/>
			<point x="199" y="35"/>
		</contour>
	</outline>
</glyph>
<glyph name="greater_equal.fina" format="2">
	<advance width="600"/>
	<outline>
		<contour>
			<point x="-18" y="131" type="line"/>
			<point x="202" y="131" type="line"/>
			<point x="76" y="0" type="line"/>
			<point x="274" y="0" type="line"/>
			<point x="567" y="311" type="line"/>
			<point x="347" y="629" type="line"/>
			<point x="165" y="629" type="line"/>
			<point x="256" y="498" type="line"/>
			<point x="33" y="498" type="line"/>
			<point x="13" y="359" type="line"/>
			<point x="353" y="359" type="line"/>
			<point x="382" y="317" type="line"/>
			<point x="337" y="270" type="line"/>
			<point x="1" y="270" type="line"/>
		</contour>
	</outline>
</glyph>
<glyph name="greater_equal_greater.rem" format="2">
	<advance width="600"/>
	<outline>
		<contour>
			<point x="-1141" y="0" type="line"/>
			<point x="-946" y="0" type="line"/>
			<point x="-822" y="131" type="line"/>
			<point x="127" y="131" type="line"/>
			<point x="1" y="0" type="line"/>
			<point x="199" y="0" type="line"/>
			<point x="492" y="311" type="line"/>
			<point x="272" y="629" type="line"/>
			<point x="90" y="629" type="line"/>
			<point x="181" y="498" type="line"/>
			<point x="-788" y="498" type="line"/>
			<point x="-876" y="629" type="line"/>
			<point x="-1056" y="629" type="line"/>
			<point x="-873" y="359" type="line"/>
			<point x="278" y="359" type="line"/>
			<point x="307" y="317" type="line"/>
			<point x="262" y="270" type="line"/>
			<point x="-886" y="270" type="line"/>
		</contour>
	</outline>
</glyph>
<glyph name="greater_greater.cLig" format="2">
	<advance width="600"/>
	<outline>
		<contour>
			<point x="-553" y="9" type="line"/>
			<point x="-51" y="201" type="line"/>
			<point x="-25" y="385" type="line"/>
			<point x="-473" y="578" type="line"/>
			<point x="-494" y="424" type="line"/>
			<point x="-174" y="296" type="line"/>
			<point x="-530" y="172" type="line"/>
		</contour>
		<contour>
			<point x="17" y="9" type="line"/>
			<point x="519" y="201" type="line"/>
			<point x="545" y="385" type="line"/>
			<point x="97" y="578" type="line"/>
			<point x="76" y="424" type="line"/>
			<point x="396" y="296" type="line"/>
			<point x="40" y="172" type="line"/>
		</contour>
	</outline>
</glyph>
<glyph name="greater_greater_equal.fina" format="2">
	<advance width="600"/>
	<outline>
		<contour>
			<point x="18" y="0" type="line"/>
			<point x="217" y="0" type="line"/>
			<point x="501" y="312" type="line"/>
			<point x="274" y="629" type="line"/>
			<point x="91" y="629" type="line"/>
			<point x="314" y="319" type="line"/>
		</contour>
		<contour>
			<point x="-618" y="131" type="line"/>
			<point x="-257" y="131" type="line"/>
			<point x="-383" y="0" type="line"/>
			<point x="-185" y="0" type="line"/>
			<point x="109" y="311" type="line"/>
			<point x="-112" y="629" type="line"/>
			<point x="-294" y="629" type="line"/>
			<point x="-203" y="498" type="line"/>
			<point x="-566" y="498" type="line"/>
			<point x="-586" y="359" type="line"/>
			<point x="-106" y="359" type="line"/>
			<point x="-77" y="317" type="line"/>
			<point x="-122" y="270" type="line"/>
			<point x="-598" y="270" type="line"/>
		</contour>
	</outline>
</glyph>
<glyph name="greater_greater_hyphen.init" format="2">
	<advance width="600"/>
	<outline>
		<contour>
			<point x="-553" y="0" type="line"/>
			<point x="-355" y="0" type="line"/>
			<point x="-63" y="314" type="line"/>
			<point x="-286" y="629" type="line"/>
			<point x="-467" y="629" type="line"/>
			<point x="-252" y="320" type="line"/>
		</contour>
		<contour>
			<point x="-166" y="0" type="line"/>
			<point x="33" y="0" type="line"/>
			<point x="255" y="239" type="line"/>
			<point x="597" y="239" type="line"/>
			<point x="618" y="389" type="line"/>
			<point x="272" y="389" type="line"/>
			<point x="101" y="629" type="line"/>
			<point x="-80" y="629" type="line"/>
			<point x="132" y="323" type="line"/>
		</contour>
	</outline>
</glyph>
<glyph name="greater_hyphen.fina" format="2">
	<advance width="600"/>
	<outline>
		<contour>
			<point x="133" y="629" type="line"/>
			<point x="308" y="389" type="line"/>
			<point x="18" y="389" type="line"/>
			<point x="-3" y="239" type="line"/>
			<point x="279" y="239" type="line"/>
			<point x="40" y="0" type="line"/>
			<point x="231" y="0" type="line"/>
			<point x="541" y="314" type="line"/>
			<point x="314" y="629" type="line"/>
		</contour>
	</outline>
</glyph>
<glyph name="greater_hyphen.init" format="2">
	<advance width="600"/>
	<outline>
		<contour>
			<point x="46" y="0" type="line"/>
			<point x="244" y="0" type="line"/>
			<point x="467" y="239" type="line"/>
			<point x="597" y="239" type="line"/>
			<point x="618" y="389" type="line"/>
			<point x="483" y="389" type="line"/>
			<point x="313" y="629" type="line"/>
			<point x="132" y="629" type="line"/>
			<point x="344" y="323" type="line"/>
		</contour>
	</outline>
</glyph>
<glyph name="greater_hyphen.rem" format="2">
	<advance width="600"/>
	<outline>
		<contour>
			<point x="-522" y="0" type="line"/>
			<point x="-324" y="0" type="line"/>
			<point x="-101" y="239" type="line"/>
			<point x="473" y="239" type="line"/>
			<point x="494" y="389" type="line"/>
			<point x="-85" y="389" type="line"/>
			<point x="-255" y="629" type="line"/>
			<point x="-436" y="629" type="line"/>
			<point x="-224" y="323" type="line"/>
		</contour>
	</outline>
</glyph>
<glyph name="greater_hyphen_greater.rem" format="2">
	<advance width="600"/>
	<outline>
		<contour>
			<point x="-1118" y="0" type="line"/>
			<point x="-920" y="0" type="line"/>
			<point x="-697" y="239" type="line"/>
			<point x="224" y="239" type="line"/>
			<point x="-15" y="0" type="line"/>
			<point x="176" y="0" type="line"/>
			<point x="486" y="314" type="line"/>
			<point x="259" y="629" type="line"/>
			<point x="78" y="629" type="line"/>
			<point x="253" y="389" type="line"/>
			<point x="-681" y="389" type="line"/>
			<point x="-851" y="629" type="line"/>
			<point x="-1032" y="629" type="line"/>
			<point x="-820" y="323" type="line"/>
		</contour>
	</outline>
</glyph>
<glyph name="hungarumlaut.cap" format="2">
	<advance width="600"/>
	<outline>
		<contour>
			<point x="367" y="743" type="line"/>
			<point x="475" y="743" type="line"/>
			<point x="580" y="884" type="line"/>
			<point x="433" y="884" type="line"/>
		</contour>
		<contour>
			<point x="175" y="743" type="line"/>
			<point x="284" y="743" type="line"/>
			<point x="388" y="884" type="line"/>
			<point x="241" y="884" type="line"/>
		</contour>
	</outline>
	<anchor name="_top" x="316" y="684"/>
</glyph>
<glyph name="hyphen.med" format="2">
	<advance width="600"/>
	<outline>
		<contour>
			<point x="618" y="389" type="line"/>
			<point x="18" y="389" type="line"/>
			<point x="-3" y="239" type="line"/>
			<point x="597" y="239" type="line"/>
		</contour>
	</outline>
</glyph>
<glyph name="hyphen_bar.rem" format="2">
	<advance width="600"/>
	<outline>
		<contour>
			<point x="292" y="684" type="line"/>
			<point x="250" y="389" type="line"/>
			<point x="-427" y="389" type="line"/>
			<point x="-448" y="239" type="line"/>
			<point x="229" y="239" type="line"/>
			<point x="188" y="-55" type="line"/>
			<point x="344" y="-55" type="line"/>
			<point x="448" y="684" type="line"/>
		</contour>
	</outline>
</glyph>
<glyph name="hyphen_braceright.rem" format="2">
	<advance width="600"/>
	<outline>
		<contour>
			<point x="-79" y="-163" type="line"/>
			<point x="140" y="-163" type="line" smooth="yes"/>
			<point x="237" y="-163"/>
			<point x="306" y="-100"/>
			<point x="306" y="-14" type="curve" smooth="yes"/>
			<point x="306" y="69"/>
			<point x="238" y="125"/>
			<point x="238" y="181" type="curve" smooth="yes"/>
			<point x="238" y="219"/>
			<point x="264" y="247"/>
			<point x="334" y="247" type="curve" smooth="yes"/>
			<point x="420" y="247" type="line"/>
			<point x="439" y="386" type="line"/>
			<point x="371" y="386" type="line" smooth="yes"/>
			<point x="299" y="386"/>
			<point x="280" y="419"/>
			<point x="280" y="447" type="curve" smooth="yes"/>
			<point x="280" y="521"/>
			<point x="402" y="551"/>
			<point x="402" y="662" type="curve" smooth="yes"/>
			<point x="402" y="735"/>
			<point x="349" y="792"/>
			<point x="247" y="792" type="curve" smooth="yes"/>
			<point x="56" y="792" type="line"/>
			<point x="38" y="672" type="line"/>
			<point x="162" y="672" type="line" smooth="yes"/>
			<point x="205" y="672"/>
			<point x="226" y="658"/>
			<point x="226" y="627" type="curve" smooth="yes"/>
			<point x="226" y="566"/>
			<point x="109" y="538"/>
			<point x="109" y="458" type="curve" smooth="yes"/>
			<point x="109" y="417"/>
			<point x="143" y="394"/>
			<point x="192" y="385" type="curve"/>
			<point x="-425" y="385" type="line"/>
			<point x="-447" y="243" type="line"/>
			<point x="170" y="243" type="line"/>
			<point x="118" y="233"/>
			<point x="71" y="210"/>
			<point x="71" y="160" type="curve" smooth="yes"/>
			<point x="71" y="105"/>
			<point x="145" y="63"/>
			<point x="145" y="11" type="curve" smooth="yes"/>
			<point x="145" y="-28"/>
			<point x="118" y="-43"/>
			<point x="70" y="-43" type="curve" smooth="yes"/>
			<point x="-62" y="-43" type="line"/>
		</contour>
	</outline>
</glyph>
<glyph name="hyphen_greater.rem" format="2">
	<advance width="600"/>
	<outline>
		<contour>
			<point x="71" y="629" type="line"/>
			<point x="246" y="389" type="line"/>
			<point x="-427" y="389" type="line"/>
			<point x="-448" y="239" type="line"/>
			<point x="217" y="239" type="line"/>
			<point x="-22" y="0" type="line"/>
			<point x="169" y="0" type="line"/>
			<point x="479" y="314" type="line"/>
			<point x="252" y="629" type="line"/>
		</contour>
	</outline>
</glyph>
<glyph name="k.ss01" format="2">
	<advance width="600"/>
	<outline>
		<contour>
			<point x="29" y="0" type="line"/>
			<point x="195" y="0" type="line"/>
			<point x="211" y="118" type="line"/>
			<point x="289" y="207" type="line"/>
			<point x="370" y="0" type="line"/>
			<point x="550" y="0" type="line"/>
			<point x="429" y="303" type="line"/>
			<point x="615" y="525" type="line"/>
			<point x="426" y="525" type="line"/>
			<point x="236" y="290" type="line"/>
			<point x="301" y="750" type="line"/>
			<point x="135" y="750" type="line"/>
		</contour>
	</outline>
	<anchor name="bottom" x="292" y="0"/>
</glyph>
<glyph name="less_asciitilde.cLig" format="2">
	<advance width="600"/>
	<outline>
		<contour>
			<point x="-106" y="0" type="line"/>
			<point x="-281" y="240" type="line"/>
			<point x="94" y="240" type="line"/>
			<point x="104" y="279"/>
			<point x="122" y="307"/>
			<point x="158" y="307" type="curve" smooth="yes"/>
			<point x="219" y="307"/>
			<point x="243" y="190"/>
			<point x="349" y="190" type="curve" smooth="yes"/>
			<point x="445" y="190"/>
			<point x="511" y="257"/>
			<point x="533" y="441" type="curve"/>
			<point x="407" y="441" type="line"/>
			<point x="401" y="375"/>
			<point x="383" y="342"/>
			<point x="348" y="342" type="curve" smooth="yes"/>
			<point x="293" y="342"/>
			<point x="260" y="455"/>
			<point x="151" y="455" type="curve" smooth="yes"/>
			<point x="104" y="455"/>
			<point x="62" y="437"/>
			<point x="32" y="389" type="curve"/>
			<point x="30" y="389" type="line"/>
			<point x="30" y="390" type="line"/>
			<point x="-252" y="390" type="line"/>
			<point x="-13" y="629" type="line"/>
			<point x="-204" y="629" type="line"/>
			<point x="-514" y="315" type="line"/>
			<point x="-287" y="0" type="line"/>
		</contour>
	</outline>
</glyph>
<glyph name="less_asciitilde_asciitilde.cLig" format="2">
	<advance width="600"/>
	<outline>
		<contour>
			<point x="-719" y="-1" type="line"/>
			<point x="-894" y="240" type="line"/>
			<point x="-609" y="239" type="line"/>
			<point x="-578" y="196"/>
			<point x="-534" y="177"/>
			<point x="-488" y="177" type="curve" smooth="yes"/>
			<point x="-378" y="177"/>
			<point x="-349" y="299"/>
			<point x="-280" y="299" type="curve" smooth="yes"/>
			<point x="-205" y="299"/>
			<point x="-202" y="180"/>
			<point x="-88" y="180" type="curve" smooth="yes"/>
			<point x="17" y="180"/>
			<point x="50" y="299"/>
			<point x="117" y="299" type="curve"/>
			<point x="191" y="299"/>
			<point x="199" y="180"/>
			<point x="320" y="180" type="curve" smooth="yes"/>
			<point x="416" y="180"/>
			<point x="511" y="259"/>
			<point x="549" y="439" type="curve"/>
			<point x="419" y="439" type="line"/>
			<point x="400" y="378"/>
			<point x="369" y="334"/>
			<point x="320" y="334" type="curve" smooth="yes"/>
			<point x="250" y="334"/>
			<point x="245" y="450"/>
			<point x="126" y="450" type="curve"/>
			<point x="15" y="450"/>
			<point x="-9" y="335"/>
			<point x="-80" y="335" type="curve" smooth="yes"/>
			<point x="-155" y="335"/>
			<point x="-146" y="450"/>
			<point x="-270" y="450" type="curve" smooth="yes"/>
			<point x="-376" y="450"/>
			<point x="-401" y="329"/>
			<point x="-470" y="329" type="curve" smooth="yes"/>
			<point x="-504" y="329"/>
			<point x="-519" y="349"/>
			<point x="-534" y="389" type="curve"/>
			<point x="-865" y="389" type="line"/>
			<point x="-626" y="628" type="line"/>
			<point x="-817" y="628" type="line"/>
			<point x="-1126" y="314" type="line"/>
			<point x="-900" y="-1" type="line"/>
		</contour>
	</outline>
</glyph>
<glyph name="less_asciitilde_greater.cLig" format="2">
	<advance width="600"/>
	<outline>
		<contour>
			<point x="-852" y="0" type="line"/>
			<point x="-672" y="0" type="line"/>
			<point x="-847" y="240" type="line"/>
			<point x="-483" y="240" type="line"/>
			<point x="-475" y="275"/>
			<point x="-454" y="309"/>
			<point x="-413" y="309" type="curve" smooth="yes"/>
			<point x="-317" y="309"/>
			<point x="-303" y="170"/>
			<point x="-163" y="170" type="curve" smooth="yes"/>
			<point x="-110" y="170"/>
			<point x="-68" y="200"/>
			<point x="-44" y="240" type="curve"/>
			<point x="233" y="240" type="line"/>
			<point x="-12" y="0" type="line"/>
			<point x="181" y="0" type="line"/>
			<point x="493" y="314" type="line"/>
			<point x="266" y="629" type="line"/>
			<point x="88" y="629" type="line"/>
			<point x="265" y="390" type="line"/>
			<point x="-105" y="390" type="line"/>
			<point x="-112" y="355"/>
			<point x="-133" y="321"/>
			<point x="-175" y="321" type="curve" smooth="yes"/>
			<point x="-256" y="321"/>
			<point x="-284" y="460"/>
			<point x="-421" y="460" type="curve" smooth="yes"/>
			<point x="-476" y="460"/>
			<point x="-520" y="430"/>
			<point x="-544" y="390" type="curve"/>
			<point x="-819" y="390" type="line"/>
			<point x="-575" y="629" type="line"/>
			<point x="-767" y="629" type="line"/>
			<point x="-1078" y="315" type="line"/>
		</contour>
	</outline>
</glyph>
<glyph name="less_bar.cLig" format="2">
	<advance width="600"/>
	<outline>
		<contour>
			<point x="369" y="708" type="line"/>
			<point x="213" y="708" type="line"/>
			<point x="-343" y="407" type="line"/>
			<point x="-369" y="222" type="line"/>
			<point x="103" y="-79" type="line"/>
			<point x="259" y="-79" type="line"/>
		</contour>
		<contour>
			<point x="130" y="87" type="line"/>
			<point x="-224" y="306" type="line"/>
			<point x="190" y="525" type="line"/>
		</contour>
	</outline>
</glyph>
<glyph name="less_bar_bar_bar.cLig" format="2">
	<advance width="600"/>
	<outline>
		<contour>
			<point x="-799" y="707" type="line"/>
			<point x="-955" y="707" type="line"/>
			<point x="-1511" y="406" type="line"/>
			<point x="-1537" y="221" type="line"/>
			<point x="-1065" y="-80" type="line"/>
			<point x="-909" y="-80" type="line"/>
		</contour>
		<contour>
			<point x="-235" y="708" type="line"/>
			<point x="-392" y="708" type="line"/>
			<point x="-502" y="-79" type="line"/>
			<point x="-345" y="-79" type="line"/>
		</contour>
		<contour>
			<point x="328" y="708" type="line"/>
			<point x="172" y="708" type="line"/>
			<point x="62" y="-79" type="line"/>
			<point x="218" y="-79" type="line"/>
		</contour>
		<contour>
			<point x="-1038" y="86" type="line"/>
			<point x="-1392" y="305" type="line"/>
			<point x="-978" y="524" type="line"/>
		</contour>
	</outline>
</glyph>
<glyph name="less_bar_greater.cLig" format="2">
	<advance width="600"/>
	<outline>
		<contour>
			<point x="-438" y="-163" type="line"/>
			<point x="-282" y="-163" type="line"/>
			<point x="-148" y="792" type="line"/>
			<point x="-304" y="792" type="line"/>
		</contour>
		<contour>
			<point x="-112" y="-79" type="line"/>
			<point x="444" y="224" type="line"/>
			<point x="470" y="407" type="line"/>
			<point x="-2" y="708" type="line"/>
			<point x="-25" y="534" type="line"/>
			<point x="312" y="321" type="line"/>
			<point x="-85" y="110" type="line"/>
		</contour>
		<contour>
			<point x="-583" y="-78" type="line"/>
			<point x="-560" y="95" type="line"/>
			<point x="-901" y="308" type="line"/>
			<point x="-500" y="520" type="line"/>
			<point x="-473" y="708" type="line"/>
			<point x="-1030" y="406" type="line"/>
			<point x="-1056" y="222" type="line"/>
		</contour>
	</outline>
</glyph>
